<?xml version="1.0" encoding="UTF-8" standalone="no"?>
<!-- Created with Inkscape (http://www.inkscape.org/) -->

<svg
   width="20mm"
   height="20mm"
   viewBox="0 0 20 20"
   version="1.1"
   id="svg5"
   sodipodi:docname="peder3.svg"
   inkscape:version="1.2.1 (9c6d41e410, 2022-07-14)"
   inkscape:export-filename="..\Downloads\new me.png"
   inkscape:export-xdpi="314.95999"
   inkscape:export-ydpi="314.95999"
   xmlns:inkscape="http://www.inkscape.org/namespaces/inkscape"
   xmlns:sodipodi="http://sodipodi.sourceforge.net/DTD/sodipodi-0.dtd"
   xmlns="http://www.w3.org/2000/svg"
   xmlns:svg="http://www.w3.org/2000/svg">
  <sodipodi:namedview
     id="namedview7"
     pagecolor="#ffffff"
     bordercolor="#000000"
     borderopacity="0.25"
     inkscape:showpageshadow="2"
     inkscape:pageopacity="0.0"
     inkscape:pagecheckerboard="0"
     inkscape:deskcolor="#d1d1d1"
     inkscape:document-units="mm"
     showgrid="false"
     inkscape:zoom="16.150319"
     inkscape:cx="26.036638"
     inkscape:cy="18.854117"
     inkscape:window-width="1920"
     inkscape:window-height="1001"
     inkscape:window-x="-9"
     inkscape:window-y="-9"
     inkscape:window-maximized="1"
     inkscape:current-layer="layer1" />
  <defs
     id="defs2">
    <inkscape:path-effect
       effect="bspline"
       id="path-effect2153"
       is_visible="true"
       lpeversion="1"
       weight="33.333333"
       steps="2"
       helper_size="0"
       apply_no_weight="true"
       apply_with_weight="true"
       only_selected="false" />
    <inkscape:path-effect
       effect="bspline"
       id="path-effect2149"
       is_visible="true"
       lpeversion="1"
       weight="33.333333"
       steps="2"
       helper_size="0"
       apply_no_weight="true"
       apply_with_weight="true"
       only_selected="false" />
    <inkscape:path-effect
       effect="bspline"
       id="path-effect2091"
       is_visible="true"
       lpeversion="1"
       weight="33.333333"
       steps="2"
       helper_size="0"
       apply_no_weight="true"
       apply_with_weight="true"
       only_selected="false" />
    <inkscape:path-effect
       effect="bspline"
       id="path-effect1776"
       is_visible="true"
       lpeversion="1"
       weight="33.333333"
       steps="2"
       helper_size="0"
       apply_no_weight="true"
       apply_with_weight="true"
       only_selected="false" />
    <inkscape:path-effect
       effect="bspline"
       id="path-effect1718"
       is_visible="true"
       lpeversion="1"
       weight="33.333333"
       steps="2"
       helper_size="0"
       apply_no_weight="true"
       apply_with_weight="true"
       only_selected="false" />
    <inkscape:path-effect
       effect="bspline"
       id="path-effect1660"
       is_visible="true"
       lpeversion="1"
       weight="33.333333"
       steps="2"
       helper_size="0"
       apply_no_weight="true"
       apply_with_weight="true"
       only_selected="false" />
    <inkscape:path-effect
       effect="bspline"
       id="path-effect745"
       is_visible="true"
       lpeversion="1"
       weight="33.333333"
       steps="2"
       helper_size="0"
       apply_no_weight="true"
       apply_with_weight="true"
       only_selected="false" />
    <inkscape:path-effect
       effect="bspline"
       id="path-effect741"
       is_visible="true"
       lpeversion="1"
       weight="33.333333"
       steps="2"
       helper_size="0"
       apply_no_weight="true"
       apply_with_weight="true"
       only_selected="false" />
    <inkscape:path-effect
       effect="bspline"
       id="path-effect629"
       is_visible="true"
       lpeversion="1"
       weight="33.333333"
       steps="2"
       helper_size="0"
       apply_no_weight="true"
       apply_with_weight="true"
       only_selected="false" />
    <inkscape:path-effect
       effect="bspline"
       id="path-effect625"
       is_visible="true"
       lpeversion="1"
       weight="33.333333"
       steps="2"
       helper_size="0"
       apply_no_weight="true"
       apply_with_weight="true"
       only_selected="false" />
    <inkscape:path-effect
       effect="bspline"
       id="path-effect621"
       is_visible="true"
       lpeversion="1"
       weight="33.333333"
       steps="2"
       helper_size="0"
       apply_no_weight="true"
       apply_with_weight="true"
       only_selected="false" />
    <inkscape:path-effect
       effect="bspline"
       id="path-effect617"
       is_visible="true"
       lpeversion="1"
       weight="33.333333"
       steps="2"
       helper_size="0"
       apply_no_weight="true"
       apply_with_weight="true"
       only_selected="false" />
    <inkscape:path-effect
       effect="bspline"
       id="path-effect613"
       is_visible="true"
       lpeversion="1"
       weight="33.333333"
       steps="2"
       helper_size="0"
       apply_no_weight="true"
       apply_with_weight="true"
       only_selected="false" />
    <inkscape:path-effect
       effect="bspline"
       id="path-effect555"
       is_visible="true"
       lpeversion="1"
       weight="33.333333"
       steps="2"
       helper_size="0"
       apply_no_weight="true"
       apply_with_weight="true"
       only_selected="false" />
    <inkscape:path-effect
       effect="bspline"
       id="path-effect551"
       is_visible="true"
       lpeversion="1"
       weight="33.333333"
       steps="2"
       helper_size="0"
       apply_no_weight="true"
       apply_with_weight="true"
       only_selected="false" />
    <inkscape:path-effect
       effect="bspline"
       id="path-effect547"
       is_visible="true"
       lpeversion="1"
       weight="33.333333"
       steps="2"
       helper_size="0"
       apply_no_weight="true"
       apply_with_weight="true"
       only_selected="false" />
    <inkscape:path-effect
       effect="bspline"
       id="path-effect388"
       is_visible="true"
       lpeversion="1"
       weight="33.333333"
       steps="2"
       helper_size="0"
       apply_no_weight="true"
       apply_with_weight="true"
       only_selected="false" />
    <inkscape:path-effect
       effect="bspline"
       id="path-effect384"
       is_visible="true"
       lpeversion="1"
       weight="33.333333"
       steps="2"
       helper_size="0"
       apply_no_weight="true"
       apply_with_weight="true"
       only_selected="false" />
    <inkscape:path-effect
       effect="bspline"
       id="path-effect326"
       is_visible="true"
       lpeversion="1"
       weight="33.333333"
       steps="2"
       helper_size="0"
       apply_no_weight="true"
       apply_with_weight="true"
       only_selected="false" />
    <inkscape:path-effect
       effect="bspline"
       id="path-effect322"
       is_visible="true"
       lpeversion="1"
       weight="33.333333"
       steps="2"
       helper_size="0"
       apply_no_weight="true"
       apply_with_weight="true"
       only_selected="false" />
    <inkscape:path-effect
       effect="bspline"
       id="path-effect2153-8"
       is_visible="true"
       lpeversion="1"
       weight="33.333333"
       steps="2"
       helper_size="0"
       apply_no_weight="true"
       apply_with_weight="true"
       only_selected="false" />
  </defs>
  <g
     inkscape:label="Layer 1"
     inkscape:groupmode="layer"
     id="layer1">
    <ellipse
       id="path316"
       style="fill:#000000;stroke:none;stroke-width:0.020873"
       cx="14.102229"
       cy="3.2147226"
       rx="0.030880813"
       ry="0.031743996" />
    <path
       style="fill:#000000;stroke-width:0.020873"
       d="m 11.376791,0.77789311 c 0.880105,0.56908929 2.640291,1.70725279 3.51564,4.49434079 0.875349,2.787088 0.865886,7.2229161 0.28388,9.8591711 -0.582006,2.636255 -1.736514,3.472836 -3.439936,3.871681 C 10.032953,19.40193 7.7807182,19.36302 6.3753936,17.120709 4.970069,14.878398 4.4117411,10.432838 4.6672597,7.2566554 4.9227783,4.0804725 5.9921178,2.173844 7.0993551,1.210779 8.2065923,0.24771394 9.3516369,0.22825656 9.9241615,0.21852784 c 0.5725245,-0.009729 0.5725245,-0.009724 1.4526295,0.55936527 z"
       id="path324"
       inkscape:original-d="m 10.496686,0.20880381 c 1.760207,1.13818289 3.520393,2.27634709 5.280558,3.41448969 -0.0095,4.4360283 -0.01889,8.8718565 -0.02839,13.3077545 -1.154533,0.836634 -2.309039,1.673218 -3.463591,2.509794 -2.25231,-0.03889 -4.504545,-0.07781 -6.7568473,-0.116734 C 4.9700858,14.878396 4.4117589,10.432836 3.8533997,5.9871707 4.922802,4.0804858 5.9921414,2.1738572 7.0614815,0.26717244 8.2065927,0.24773964 9.3516373,0.22827877 10.496686,0.20879911 Z"
       inkscape:path-effect="#path-effect326" />
    <path
       style="fill:#ffffff;stroke-width:0.0296175"
       d="M 9.6578771,8.8762349 C 8.2440067,9.011973 6.7393524,10.083691 6.5512885,11.919945 c -0.1880639,1.836254 0.9404024,4.4369 2.438589,5.422852 1.4981865,0.985953 3.3659945,0.357225 4.2155955,-1.078878 0.849602,-1.436103 0.68098,-3.67952 -0.06486,-5.201371 C 12.394777,9.5406961 11.071747,8.7404969 9.6578771,8.8762349 Z"
       id="path386"
       inkscape:original-d="M 9.7486548,7.9402597 C 8.2440306,9.0120066 6.7393775,10.083726 5.234696,11.15541 6.3632363,13.756194 7.4917041,16.356839 8.6201653,18.957509 10.488077,18.328788 12.355884,17.700057 14.223701,17.071286 14.0551,14.827814 13.886481,12.584397 13.717825,10.340906 12.39477,9.5407083 11.071741,8.7405075 9.7486548,7.9402597 Z"
       inkscape:path-effect="#path-effect388" />
    <path
       style="fill:#ffffff;stroke-width:0.0263246"
       d="M 7.9747052,2.4428928 C 7.3926981,2.4428802 6.8165828,3.1029405 6.8107257,3.6696107 6.8048685,4.2362809 7.3692147,4.7095224 7.9512006,4.7095046 8.5331864,4.7094868 9.1328038,4.2362453 9.1386885,3.6695992 9.1445732,3.102953 8.5567123,2.4429054 7.9747052,2.4428928 Z"
       id="path549"
       inkscape:original-d="M 7.9688154,1.7828176 C 7.3927262,2.4429047 6.8166116,3.1029656 6.2404712,3.7629965 6.8048651,4.236285 7.3692113,4.7095264 7.9335429,5.1827488 8.5332099,4.7095165 9.1328272,4.236275 9.7324306,3.7629965 9.1445736,3.1029527 8.5567131,2.4429047 7.9688154,1.7828176 Z"
       inkscape:path-effect="#path-effect551" />
    <path
       style="fill:#ffffff;stroke-width:0.0320251"
       d="M 10.772337,2.5939658 C 10.200059,2.4464519 9.79529,2.8190816 9.8302023,3.370289 9.8651146,3.9214963 10.339663,4.6512161 10.911919,4.7986904 11.484176,4.9461648 12.154128,4.5114378 12.119239,3.9602662 12.08435,3.4090947 11.344615,2.7414798 10.772337,2.5939658 Z"
       id="path553"
       inkscape:original-d="M 10.60483,2.0738203 C 10.200091,2.4464866 9.7953223,2.8191167 9.3905227,3.1917098 9.8651205,3.9214925 10.339668,4.6512129 10.814195,5.3809103 11.4842,4.9462023 12.154152,4.5114753 12.824084,4.076708 12.084347,3.4090984 11.344612,2.7414829 10.60483,2.0738203 Z"
       inkscape:path-effect="#path-effect555" />
    <path
       style="fill:#ff6600;stroke-width:0.0389181"
       d="M 7.9469202,4.7091151 C 8.2927802,3.8082538 10.409825,3.8540593 11.12246,4.7778268 11.835095,5.7015944 11.143401,7.503239 10.084885,7.4803314 9.0263683,7.4574238 7.6010603,5.6099763 7.9469202,4.7091151 Z"
       id="path611"
       inkscape:original-d="m 6.1756895,3.7624474 c 2.11709,0.045838 4.2341345,0.091647 6.3511325,0.1374163 C 11.835144,5.7016132 11.143452,7.5032586 10.4517,9.304902 9.0263796,7.4574151 7.6010718,5.6099674 6.1756895,3.7624474 Z"
       inkscape:path-effect="#path-effect613" />
    <path
       style="fill:#000000;stroke-width:0.0215793"
       d="M 7.8895353,3.4826263 C 7.8090827,3.5138133 7.7333759,3.6385812 7.7381212,3.7425614 7.7428665,3.8465416 7.8280369,3.9297202 7.9368594,3.9401045 8.0456819,3.9504888 8.1781672,3.8881062 8.2160241,3.8153383 8.2538809,3.7425703 8.1971023,3.6593942 8.1261304,3.5866091 8.0551584,3.5138239 7.969988,3.4514394 7.8895353,3.4826263 Z"
       id="path615"
       inkscape:original-d="M 7.8847941,3.3890377 C 7.8091079,3.5138286 7.7334011,3.6385965 7.657674,3.7633412 7.7428664,3.8465417 7.8280347,3.9297224 7.9131847,4.0128769 8.0456949,3.9505165 8.1781794,3.8881321 8.3106462,3.8257267 8.2538869,3.7425662 8.1971063,3.6593915 8.1403051,3.576191 8.0551536,3.5138305 7.9699852,3.4514432 7.8847941,3.3890377 Z"
       inkscape:path-effect="#path-effect617" />
    <path
       style="fill:#000000;stroke-width:0.0215793"
       d="m 10.790067,3.674977 c 0.03786,-0.067595 0.198733,-0.067595 0.279161,-0.025994 0.08043,0.0416 0.08043,0.1247806 0.04258,0.1923489 -0.03785,0.067568 -0.11356,0.1195579 -0.193992,0.077984 C 10.837382,3.8777412 10.75221,3.7425717 10.790067,3.674977 Z"
       id="path619"
       inkscape:original-d="m 10.667025,3.6073822 c 0.160899,2.31e-5 0.321775,2.31e-5 0.482631,0 2.1e-5,0.083201 2.1e-5,0.1663811 0,0.2495356 -0.07568,0.05201 -0.151393,0.1039959 -0.227121,0.1559621 -0.08514,-0.1351468 -0.170321,-0.2703108 -0.25551,-0.4054977 z"
       inkscape:path-effect="#path-effect621" />
    <path
       style="fill:#333333;stroke-width:0.0305653"
       d="m 6.3618352,17.822089 c 0.7086794,-0.419108 2.114002,-0.451978 2.8166501,-0.06573 0.7026482,0.386246 0.7026482,1.191541 -0.00602,1.610614 -0.7086679,0.419073 -2.1259729,0.451942 -2.8286468,0.06573 -0.7026739,-0.38621 -0.6906629,-1.191506 0.018016,-1.610615 z"
       id="path623"
       inkscape:original-d="m 5.6651676,17.435852 c 1.4053479,-0.03283 2.8106703,-0.06571 4.2159659,-0.09861 2.55e-5,0.805362 2.55e-5,1.610657 0,2.415933 -1.417335,0.03291 -2.8346402,0.06577 -4.2519997,0.09861 0.012036,-0.805291 0.02405,-1.610587 0.036034,-2.415933 z"
       inkscape:path-effect="#path-effect625" />
    <path
       style="fill:#333333;stroke-width:0.0252361"
       d="m 11.983074,17.878042 c 0.617565,-0.418714 1.883045,-0.471882 2.530963,-0.146206 0.647919,0.325676 0.678292,1.03014 0.06073,1.448825 -0.617558,0.418686 -1.883013,0.551603 -2.53095,0.225955 -0.647937,-0.325647 -0.67831,-1.109861 -0.06075,-1.528574 z"
       id="path627"
       inkscape:original-d="m 11.335135,17.512498 c 1.265505,-0.05314 2.530985,-0.106309 3.796446,-0.159506 0.0304,0.704519 0.06076,1.408983 0.09112,2.113434 -1.265486,0.13295 -2.530941,0.265867 -3.796445,0.39876 -0.03035,-0.784218 -0.06073,-1.568432 -0.09112,-2.352688 z"
       inkscape:path-effect="#path-effect629" />
    <path
       style="fill:#000000;stroke-width:0.0285777"
       d="M 4.7445177,7.3937866 C 4.2787216,7.2784727 3.4930464,11.183646 3.5660295,13.251535 c 0.072983,2.067889 1.00455,2.298505 1.3973712,0.345891 0.3928211,-1.952613 0.2469131,-6.0883255 -0.218883,-6.2036394 z"
       id="path739"
       inkscape:original-d="M 5.0644017,3.3732745 C 4.2787517,7.2784788 3.493076,11.183652 2.707377,15.088791 3.6390061,15.31945 4.5705731,15.550066 5.5021344,15.780653 5.3562452,11.644812 5.2103371,7.5090997 5.0644017,3.3732745 Z"
       inkscape:path-effect="#path-effect741" />
    <path
       style="fill:#000000;stroke-width:0.0376347"
       d="m 15.274208,7.843262 c -0.454288,0.00741 -0.393717,3.727953 0.09088,5.580797 0.4846,1.852845 1.393147,1.838022 1.362836,-0.02227 -0.03031,-1.86029 -0.999431,-5.5659371 -1.45372,-5.558529 z"
       id="path743"
       inkscape:original-d="m 14.759348,4.1300905 c 0.06062,3.7205789 0.121187,7.4411235 0.181714,11.1616375 0.908631,-0.01479 1.817178,-0.02961 2.725701,-0.04447 C 16.69765,11.541492 15.728531,7.835845 14.759348,4.1300905 Z"
       inkscape:path-effect="#path-effect745" />
    <path
       style="fill:#333333;stroke-width:0.311637"
       d="m 7.1197394,2.5461908 c 1.3556171,-0.045219 4.0905116,-0.00365 5.4817976,0.062357 1.391287,0.066007 1.439057,0.1560714 1.185307,0.2078388 -0.25375,0.051767 -0.809078,0.065623 -1.13468,0.4121873 C 12.326562,3.575138 12.231022,4.2540863 11.872913,4.5622615 11.514804,4.8704367 10.893792,4.8080846 10.490628,4.5034175 10.087463,4.1987505 9.9023542,3.651435 9.7441901,3.3775771 9.5860261,3.1037193 9.4546583,3.1037193 9.2992226,3.4190754 9.1437869,3.7344314 8.964649,4.3648833 8.570691,4.711163 8.176733,5.0574426 7.5676642,5.1197951 7.1854057,4.7631879 6.8031473,4.4065807 6.6478945,3.6306399 6.4569148,3.2424724 6.2659351,2.8543049 6.039027,2.8543049 5.9135172,2.7886738 5.7880073,2.7230427 5.7641223,2.5914098 7.1197394,2.5461908 Z"
       id="path1658"
       inkscape:path-effect="#path-effect1660"
       inkscape:original-d="m 5.7401686,2.4593984 c 2.7351829,0.041905 5.4700774,0.083474 8.2046814,0.124707 0.04806,0.090404 0.09583,0.1804682 0.143312,0.2701991 -0.555059,0.014193 -1.110387,0.02805 -1.666015,0.041569 C 12.326894,3.5751847 12.231352,4.2541328 12.13552,4.9327592 11.514773,4.8707407 10.893762,4.808388 10.272448,4.745699 10.087621,4.1986971 9.902512,3.6513816 9.7171099,3.1037193 c -0.1310838,3.357e-4 -0.2624516,3.357e-4 -0.3941111,0 C 9.1441427,3.7345325 8.9650049,4.3649844 8.7855741,4.9951135 8.17677,5.0578042 7.5677012,5.1201566 6.9583307,5.1821746 6.803361,4.4065379 6.6481082,3.6305971 6.4925628,2.8543049 c -0.2266277,3.357e-4 -0.4535358,3.357e-4 -0.6807377,0 C 5.7882287,2.7230025 5.7643436,2.5913696 5.7401686,2.4593984 Z" />
    <path
       style="fill:#1a1a1a;stroke-width:0.347299"
       d="M 7.0586044,3.019817 C 7.4191571,2.6393654 8.4299018,2.6462791 8.7789865,3.0024074 9.1280713,3.3585357 8.8159358,4.0637059 8.4556694,4.4438585 8.0954031,4.824011 7.6866542,4.8793185 7.337273,4.5234889 6.9878918,4.1676594 6.6980518,3.4002686 7.0586044,3.019817 Z"
       id="path1716"
       inkscape:path-effect="#path-effect1718"
       inkscape:original-d="m 6.40805,2.6324493 c 1.0111047,0.00726 2.0218495,0.014163 3.0322344,0.020741 C 9.1284962,3.3587238 8.8163609,4.0638941 8.5038591,4.7687431 8.0954541,4.8243879 7.6867052,4.8796954 7.2775878,4.934669 6.9880961,4.1675822 6.6982562,3.4001914 6.40805,2.6324493 Z" />
    <path
       style="fill:#1a1a1a;stroke-width:0.305697"
       d="m 10.414855,2.9129418 c 0.409413,-0.2473175 1.288836,-0.2473175 1.633647,0.032289 0.344812,0.2796066 0.155402,0.8386417 -0.07111,1.1768976 -0.226513,0.338256 -0.490334,0.4559474 -0.804796,0.4237111 C 10.858134,4.5136034 10.492843,4.3311814 10.279583,3.9928727 10.066323,3.654564 10.005441,3.1602593 10.414855,2.9129418 Z"
       id="path1774"
       inkscape:path-effect="#path-effect1776"
       inkscape:original-d="m 9.9445186,2.6656243 c 0.8797494,2.851e-4 1.7591724,2.851e-4 2.6382654,0 -0.189089,0.5593424 -0.3785,1.1183771 -0.568241,1.6771382 -0.263505,0.1179814 -0.527326,0.2356729 -0.79148,0.3530818 C 10.858086,4.5137002 10.492795,4.3312782 10.127168,4.1485676 10.066613,3.6545283 10.005729,3.1602239 9.9445186,2.6656243 Z" />
    <text
       xml:space="preserve"
       style="font-size:0.705216px;fill:#1a1a1a;stroke-width:0.058768"
       x="6.4558439"
       y="-24.613047"
       id="text1832"
       transform="matrix(0.50679182,1.91445,-0.48813643,0.12921912,0,0)"><tspan
         sodipodi:role="line"
         id="tspan1830"
         style="fill:#ff1a1a;fill-opacity:1;stroke-width:0.058768"
         x="6.4558439"
         y="-24.613047">unthug</tspan><tspan
         sodipodi:role="line"
         style="fill:#ff1a1a;fill-opacity:1;stroke-width:0.058768"
         x="6.4558439"
         y="-23.731527"
         id="tspan1834">life</tspan></text>
    <path
       style="fill:#4d4d4d;fill-opacity:1;stroke-width:0.264583"
       d="m 7.1074265,17.906122 c 0.3414353,0 1.0240413,0 1.3597369,0.0438 0.3356956,0.0438 0.3247742,0.131173 -0.027317,0.191124 -0.3520915,0.05995 -1.0456052,0.09272 -1.3815922,0.04914 -0.335987,-0.04358 -0.3141442,-0.163713 -0.3032035,-0.223887 0.010941,-0.06017 0.010941,-0.06018 0.3523761,-0.06018 z"
       id="path2089"
       inkscape:path-effect="#path-effect2091"
       inkscape:original-d="m 6.7659913,17.906122 c 0.6828705,2.64e-4 1.3654765,2.64e-4 2.0478181,0 -0.010657,0.08764 -0.021579,0.175012 -0.032765,0.262121 -0.6932768,0.03303 -1.3867908,0.06579 -2.0805833,0.0983 0.022109,-0.119877 0.043951,-0.240013 0.06553,-0.360416 z" />
    <path
       style="fill:#4d4d4d;fill-opacity:1;stroke-width:0.264583"
       d="m 12.800355,17.92796 c 0.251325,-0.01093 0.753723,-0.03277 1.002058,-0.0026 0.248334,0.03017 0.242875,0.112075 0.01092,0.161095 -0.231955,0.04902 -0.690657,0.0654 -0.939174,0.03553 -0.248517,-0.02987 -0.286743,-0.106323 -0.305935,-0.144708 -0.01919,-0.03838 -0.01919,-0.03839 0.232131,-0.04931 z"
       id="path2147"
       inkscape:path-effect="#path-effect2149"
       inkscape:original-d="m 12.54903,17.938887 c 0.502662,-0.02158 1.00506,-0.04342 1.507194,-0.06553 -0.0052,0.08218 -0.01066,0.16409 -0.01638,0.245738 -0.458456,0.01665 -0.917158,0.03303 -1.376134,0.04915 -0.03796,-0.07619 -0.07619,-0.152639 -0.114678,-0.229356 z" />
    <path
       style="fill:#b3b3b3;fill-opacity:1;stroke-width:0.413477"
       d="M 6.1762584,19.176805 C 6.6758264,19.03641 8.6378816,19.116586 9.1192278,19.296933 9.600574,19.477279 8.6013992,19.757889 7.6204655,19.717937 6.6395318,19.677984 5.6766904,19.317199 6.1762584,19.176805 Z"
       id="path2151"
       inkscape:path-effect="#path-effect2153"
       inkscape:original-d="m 4.7133164,18.956215 c 1.9624951,0.08056 3.9245501,0.160741 5.8861656,0.240529 -0.9987749,0.281009 -1.9979495,0.56162 -2.9975844,0.841847 -0.9624395,-0.36041 -1.9252809,-0.721195 -2.8885812,-1.082376 z" />
    <path
       style="fill:#b3b3b3;fill-opacity:1;stroke-width:0.387277"
       d="m 11.836573,19.078296 c 0.438257,-0.140398 2.159538,-0.06022 2.581798,0.12013 0.422261,0.180351 -0.4543,0.460961 -1.314835,0.421007 -0.860535,-0.03995 -1.70522,-0.400739 -1.266963,-0.541137 z"
       id="path2151-9"
       inkscape:path-effect="#path-effect2153-8"
       inkscape:original-d="m 10.553146,18.857703 c 1.721667,0.08056 3.442948,0.160741 5.163844,0.240529 -0.87621,0.281009 -1.75277,0.56162 -2.629735,0.841847 -0.844335,-0.36041 -1.68902,-0.721195 -2.534109,-1.082376 z" />
  </g>
</svg>
