<?xml version="1.0" encoding="UTF-8" standalone="no"?>
<!-- Created with Inkscape (http://www.inkscape.org/) -->

<svg
   width="20mm"
   height="20mm"
   viewBox="0 0 20 20"
   version="1.1"
   id="svg5"
   sodipodi:docname="peder4.svg"
   inkscape:version="1.2.1 (9c6d41e410, 2022-07-14)"
   inkscape:export-filename="..\Downloads\new me.png"
   inkscape:export-xdpi="314.95999"
   inkscape:export-ydpi="314.95999"
   xmlns:inkscape="http://www.inkscape.org/namespaces/inkscape"
   xmlns:sodipodi="http://sodipodi.sourceforge.net/DTD/sodipodi-0.dtd"
   xmlns="http://www.w3.org/2000/svg"
   xmlns:svg="http://www.w3.org/2000/svg">
  <sodipodi:namedview
     id="namedview7"
     pagecolor="#ffffff"
     bordercolor="#000000"
     borderopacity="0.25"
     inkscape:showpageshadow="2"
     inkscape:pageopacity="0.0"
     inkscape:pagecheckerboard="0"
     inkscape:deskcolor="#d1d1d1"
     inkscape:document-units="mm"
     showgrid="false"
     inkscape:zoom="5.71"
     inkscape:cx="-10.070053"
     inkscape:cy="53.152364"
     inkscape:window-width="1920"
     inkscape:window-height="1001"
     inkscape:window-x="-9"
     inkscape:window-y="-9"
     inkscape:window-maximized="1"
     inkscape:current-layer="layer1" />
  <defs
     id="defs2">
    <inkscape:path-effect
       effect="bspline"
       id="path-effect1131"
       is_visible="true"
       lpeversion="1"
       weight="33.333333"
       steps="2"
       helper_size="0"
       apply_no_weight="true"
       apply_with_weight="true"
       only_selected="false" />
    <inkscape:path-effect
       effect="bspline"
       id="path-effect869"
       is_visible="true"
       lpeversion="1"
       weight="33.333333"
       steps="2"
       helper_size="0"
       apply_no_weight="true"
       apply_with_weight="true"
       only_selected="false" />
    <inkscape:path-effect
       effect="bspline"
       id="path-effect745"
       is_visible="true"
       lpeversion="1"
       weight="33.333333"
       steps="2"
       helper_size="0"
       apply_no_weight="true"
       apply_with_weight="true"
       only_selected="false" />
    <inkscape:path-effect
       effect="bspline"
       id="path-effect741"
       is_visible="true"
       lpeversion="1"
       weight="33.333333"
       steps="2"
       helper_size="0"
       apply_no_weight="true"
       apply_with_weight="true"
       only_selected="false" />
    <inkscape:path-effect
       effect="bspline"
       id="path-effect629"
       is_visible="true"
       lpeversion="1"
       weight="33.333333"
       steps="2"
       helper_size="0"
       apply_no_weight="true"
       apply_with_weight="true"
       only_selected="false" />
    <inkscape:path-effect
       effect="bspline"
       id="path-effect625"
       is_visible="true"
       lpeversion="1"
       weight="33.333333"
       steps="2"
       helper_size="0"
       apply_no_weight="true"
       apply_with_weight="true"
       only_selected="false" />
    <inkscape:path-effect
       effect="bspline"
       id="path-effect621"
       is_visible="true"
       lpeversion="1"
       weight="33.333333"
       steps="2"
       helper_size="0"
       apply_no_weight="true"
       apply_with_weight="true"
       only_selected="false" />
    <inkscape:path-effect
       effect="bspline"
       id="path-effect617"
       is_visible="true"
       lpeversion="1"
       weight="33.333333"
       steps="2"
       helper_size="0"
       apply_no_weight="true"
       apply_with_weight="true"
       only_selected="false" />
    <inkscape:path-effect
       effect="bspline"
       id="path-effect613"
       is_visible="true"
       lpeversion="1"
       weight="33.333333"
       steps="2"
       helper_size="0"
       apply_no_weight="true"
       apply_with_weight="true"
       only_selected="false" />
    <inkscape:path-effect
       effect="bspline"
       id="path-effect555"
       is_visible="true"
       lpeversion="1"
       weight="33.333333"
       steps="2"
       helper_size="0"
       apply_no_weight="true"
       apply_with_weight="true"
       only_selected="false" />
    <inkscape:path-effect
       effect="bspline"
       id="path-effect551"
       is_visible="true"
       lpeversion="1"
       weight="33.333333"
       steps="2"
       helper_size="0"
       apply_no_weight="true"
       apply_with_weight="true"
       only_selected="false" />
    <inkscape:path-effect
       effect="bspline"
       id="path-effect547"
       is_visible="true"
       lpeversion="1"
       weight="33.333333"
       steps="2"
       helper_size="0"
       apply_no_weight="true"
       apply_with_weight="true"
       only_selected="false" />
    <inkscape:path-effect
       effect="bspline"
       id="path-effect388"
       is_visible="true"
       lpeversion="1"
       weight="33.333333"
       steps="2"
       helper_size="0"
       apply_no_weight="true"
       apply_with_weight="true"
       only_selected="false" />
    <inkscape:path-effect
       effect="bspline"
       id="path-effect384"
       is_visible="true"
       lpeversion="1"
       weight="33.333333"
       steps="2"
       helper_size="0"
       apply_no_weight="true"
       apply_with_weight="true"
       only_selected="false" />
    <inkscape:path-effect
       effect="bspline"
       id="path-effect326"
       is_visible="true"
       lpeversion="1"
       weight="33.333333"
       steps="2"
       helper_size="0"
       apply_no_weight="true"
       apply_with_weight="true"
       only_selected="false" />
    <inkscape:path-effect
       effect="bspline"
       id="path-effect322"
       is_visible="true"
       lpeversion="1"
       weight="33.333333"
       steps="2"
       helper_size="0"
       apply_no_weight="true"
       apply_with_weight="true"
       only_selected="false" />
  </defs>
  <g
     inkscape:label="Layer 1"
     inkscape:groupmode="layer"
     id="layer1">
    <path
       style="fill:#000000;stroke-width:0.0137368"
       d="m 15.429392,7.903715 c 0.208172,0.6578294 0.624509,1.9734705 -0.09933,3.753195 -0.723839,1.779725 -2.587763,4.023448 -3.988047,5.114953 C 9.9417312,17.863368 9.0051517,17.802619 7.9734413,17.28963 6.9417308,16.776642 5.8149474,15.811449 6.0414804,14.08529 6.2680134,12.35913 7.8478426,9.8721185 9.3087136,8.3699672 10.769585,6.8678159 12.111411,6.3506035 13.077008,6.3274176 c 0.965598,-0.023186 1.554905,0.4476395 1.84956,0.6830529 0.294654,0.2354134 0.294653,0.2354151 0.502824,0.8932445 z"
       id="path324"
       inkscape:original-d="m 15.221221,7.2458856 c 0.416339,1.3156599 0.832675,2.6313014 1.249011,3.9469234 -1.864061,2.243783 -3.727914,4.487566 -5.59189,6.73131 C 9.9417301,17.863385 9.0051504,17.802639 8.0685524,17.741868 6.94172,16.776655 5.8149451,15.811452 4.6881296,14.846227 6.268023,12.359136 7.8478528,9.872125 9.4277101,7.3850471 10.769591,6.8678325 12.111417,6.3506202 13.453266,5.8333797 c 0.58933,0.4708649 1.178638,0.9416889 1.767956,1.4125042 z"
       inkscape:path-effect="#path-effect326" />
    <path
       style="fill:#ffffff;stroke-width:0.0194918"
       d="M 11.162843,11.285668 C 10.388363,10.760912 9.1755229,10.67232 8.3104721,11.523829 7.4454213,12.375337 6.9281898,14.166844 7.275346,15.295372 7.6225022,16.4239 8.8339929,16.889411 9.8670886,16.518376 10.900184,16.14734 11.754852,14.939783 12.014143,13.85554 c 0.259291,-1.084243 -0.07682,-2.045117 -0.8513,-2.569872 z"
       id="path386"
       inkscape:original-d="m 11.601197,10.849504 c -1.212836,-0.08856 -2.4256762,-0.177155 -3.6385148,-0.265776 -0.5172536,1.791611 -1.0344841,3.583118 -1.5517283,5.374638 1.2115389,0.465558 2.4230298,0.931069 3.6345411,1.396561 0.854703,-1.207577 1.709371,-2.415134 2.564055,-3.622742 -0.336125,-0.960885 -0.672234,-1.921759 -1.008353,-2.882681 z"
       inkscape:path-effect="#path-effect388" />
    <path
       style="fill:#ffffff;stroke-width:0.0173247"
       d="m 12.994019,7.0285788 c -0.284521,0.046306 -0.853561,0.1389174 -1.094034,0.4235988 -0.240472,0.2846813 -0.152389,0.7613883 0.142998,1.0056942 0.295387,0.2443059 0.798057,0.256224 1.038532,-0.028433 0.240476,-0.2846571 0.21875,-0.8658939 0.207886,-1.1565302 -0.01086,-0.2906362 -0.01086,-0.2906357 -0.295382,-0.2443297 z"
       id="path549"
       inkscape:original-d="m 13.278541,6.9822728 c -0.569039,0.092637 -1.138079,0.1852481 -1.70712,0.2778344 0.08809,0.476752 0.176171,0.9534595 0.264256,1.4301519 0.502692,0.011944 1.005362,0.023862 1.50804,0.035755 -0.02172,-0.5812327 -0.04345,-1.1624694 -0.06518,-1.7437418 z"
       inkscape:path-effect="#path-effect551" />
    <path
       style="fill:#ffffff;stroke-width:0.0210762"
       d="M 14.361465,8.5701979 C 14.132838,8.2552111 13.77123,8.2741077 13.55793,8.5680686 c -0.213301,0.2939609 -0.278287,0.8629335 -0.04965,1.1778911 0.228632,0.3149573 0.750858,0.3759183 0.964155,0.081986 0.213296,-0.2939323 0.117661,-0.9427606 -0.110966,-1.2577474 z"
       id="path553"
       inkscape:original-d="m 14.494451,8.2363143 c -0.361611,0.018928 -0.723219,0.037825 -1.08483,0.05669 -0.06499,0.5690254 -0.129974,1.1379983 -0.194962,1.70695 0.522246,0.060992 1.044472,0.1219527 1.566703,0.1828837 C 14.685725,9.5340134 14.59009,8.885185 14.494451,8.2363143 Z"
       inkscape:path-effect="#path-effect555" />
    <path
       style="fill:#ff6600;stroke-width:0.0256127"
       d="m 12.040974,8.4558777 c 0.553101,-0.3112885 1.60838,0.6006465 1.582903,1.3678937 C 13.5984,10.591019 12.492244,11.213568 11.96461,10.7576 11.436975,10.301632 11.487872,8.7671662 12.040974,8.4558777 Z"
       id="path611"
       inkscape:original-d="m 11.538772,7.2326338 c 1.055289,0.9119713 2.110566,1.8239086 3.165838,2.7358056 -1.106193,0.6226086 -2.212348,1.2451596 -3.318533,1.8676836 0.05091,-1.534491 0.101804,-3.0689565 0.152695,-4.6034892 z"
       inkscape:path-effect="#path-effect613" />
    <path
       style="fill:#000000;stroke-width:0.0142017"
       d="m 12.517343,7.7766172 c -0.04536,0.015722 -0.136073,0.04716 -0.177244,0.1018401 -0.04117,0.05468 -0.0328,0.132584 0.01807,0.1835285 0.05088,0.050944 0.144267,0.074951 0.193978,0.053972 0.04971,-0.020979 0.05576,-0.08697 0.05024,-0.1536444 -0.0055,-0.066674 -0.0226,-0.1340362 -0.03114,-0.1677263 -0.0085,-0.03369 -0.0085,-0.033692 -0.0539,-0.01797 z"
       id="path615"
       inkscape:original-d="m 12.562706,7.7608951 c -0.09072,0.031463 -0.181428,0.062904 -0.272147,0.094321 0.0084,0.077918 0.01673,0.1558258 0.0251,0.2337055 0.09339,0.024027 0.186777,0.048033 0.280164,0.072021 0.006,-0.065967 0.01209,-0.1319541 0.01813,-0.197952 -0.01708,-0.067351 -0.03416,-0.1347137 -0.05125,-0.2020931 z"
       inkscape:path-effect="#path-effect617" />
    <path
       style="fill:#000000;stroke-width:0.0142017"
       d="m 13.924108,9.0732735 c 0.04083,0.033772 0.122482,0.101309 0.145866,0.1561522 0.02338,0.054843 -0.01148,0.09699 -0.05901,0.1153394 -0.04753,0.018349 -0.10774,0.01291 -0.13114,-0.041924 -0.0234,-0.054834 -0.01,-0.1590761 -0.0033,-0.2112074 0.0067,-0.052131 0.0067,-0.052133 0.04754,-0.018361 z"
       id="path619"
       inkscape:original-d="m 13.883278,9.039501 c 0.08165,0.067558 0.163305,0.1350895 0.244951,0.2026087 -0.03486,0.042168 -0.06972,0.084316 -0.104584,0.1264434 -0.06021,-0.00542 -0.12042,-0.010855 -0.180639,-0.016318 0.01343,-0.1042263 0.02685,-0.2084691 0.04027,-0.3127323 z"
       inkscape:path-effect="#path-effect621" />
    <path
       style="fill:#ff6600;stroke-width:0.0201156"
       d="m 5.7406401,14.434997 c 0.5353343,0.08513 1.2623615,0.658426 1.457099,1.149112 0.1947376,0.490686 -0.1427729,0.898739 -0.6780871,0.813593 -0.5353142,-0.08515 -1.2684231,-0.66347 -1.463189,-1.154147 -0.194766,-0.490677 0.1488427,-0.893691 0.6841771,-0.808558 z"
       id="path623"
       inkscape:original-d="m 5.548934,13.946827 c 0.7270256,0.573322 1.4540573,1.146609 2.1810825,1.719879 C 7.3924892,16.074805 7.0549784,16.482858 6.7174632,16.890892 5.984321,16.312577 5.2512142,15.734251 4.5180922,15.155887 4.8617115,14.75289 5.2053199,14.349876 5.548934,13.946827 Z"
       inkscape:path-effect="#path-effect625" />
    <path
       style="fill:#ff6600;stroke-width:0.0166083"
       d="m 8.5701737,16.823118 c 0.4889253,0.04708 1.1534858,0.551383 1.3458321,0.988401 0.1923462,0.437018 -0.087488,0.806731 -0.5763989,0.759637 -0.488911,-0.04709 -1.1868824,-0.510974 -1.3792503,-0.947985 -0.192368,-0.437012 0.1208919,-0.847136 0.6098171,-0.800053 z"
       id="path627"
       inkscape:original-d="m 8.3945246,16.36589 c 0.664566,0.504322 1.3291245,1.008625 1.9936854,1.512904 -0.279848,0.369751 -0.5596879,0.739459 -0.8395219,1.109162 C 8.8506834,18.524081 8.1527147,18.060197 7.4547272,17.596285 7.7680017,17.186169 8.0812587,16.776043 8.3945246,16.36589 Z"
       inkscape:path-effect="#path-effect629" />
    <path
       style="fill:#000000;stroke-width:0.0188074"
       d="M 9.2904514,8.4718859 C 9.1023728,8.2179157 7.0668967,9.8669003 6.2372552,10.945367 5.4076137,12.023833 5.7837631,12.531757 6.8015037,11.707244 7.8192443,10.882732 9.4785299,8.725856 9.2904514,8.4718859 Z"
       id="path739"
       inkscape:original-d="M 11.137861,6.5689214 C 9.1023857,8.2179316 7.0669093,9.8669158 5.0314365,11.515872 5.4075993,12.023844 5.7837484,12.531768 6.1599073,13.039674 7.8192564,10.882741 9.4785421,8.7258654 11.137861,6.5689214 Z"
       inkscape:path-effect="#path-effect741" />
    <path
       style="fill:#000000;stroke-width:0.024768"
       d="M 14.44627,13.119954 C 14.212598,12.933 12.684003,14.84368 12.1534,15.985976 c -0.530603,1.142296 -0.06327,1.516189 0.701021,0.560828 0.764292,-0.955361 1.825522,-3.239896 1.591849,-3.42685 z"
       id="path743"
       inkscape:original-d="m 15.741206,11.022302 c -1.528582,1.910719 -3.057181,3.821396 -4.585784,5.732042 0.467345,0.373965 0.934693,0.74784 1.402028,1.121705 1.061285,-2.284596 2.122514,-4.569131 3.183756,-6.853747 z"
       inkscape:path-effect="#path-effect745" />
    <path
       style="fill:#008000;stroke-width:0.279165"
       d="m 3.3904499,18.71632 c 2.8035096,1.358261 8.3484841,1.444236 11.1053971,0.344086 2.756912,-1.10015 2.726017,-3.387464 2.116055,-4.634229 -0.609961,-1.246766 -1.79925,-1.453102 -2.749244,-2.398701 C 12.912665,11.081876 12.20218,9.3967967 10.858467,8.4337174 9.5147533,7.4706382 7.5377547,7.2299123 6.1320157,7.9005775 4.7262767,8.5712428 3.8922302,10.153156 3.0428546,11.004236 2.1934789,11.855316 1.328542,11.975679 0.92685054,13.351475 0.52515909,14.72727 0.58694028,17.358059 3.3904499,18.71632 Z"
       id="path867"
       inkscape:path-effect="#path-effect869"
       inkscape:original-d="M 0.64871567,19.988601 C 6.193955,20.074868 11.73893,20.160846 17.28364,20.246527 17.283904,17.959835 17.22212,15.672939 17.19097,13.385703 16.001899,13.179653 14.81261,12.973316 13.623034,12.766681 12.912782,11.081827 12.202298,9.3967469 11.491535,7.7113376 9.5147218,7.4708967 7.5377232,7.2301709 5.5604203,6.9891456 4.7266053,8.571416 3.8925587,10.153329 3.0582311,11.734979 c -0.864707,0.120662 -1.7296439,0.241025 -2.59486273,0.361096 0.062048,2.631189 0.1238294,5.261978 0.1853473,7.892526 z"
       sodipodi:insensitive="true" />
    <path
       style="fill:#008b00;stroke-width:0.264583;fill-opacity:1"
       d="m 8.317585,8.6033791 c 0.8265181,0.4170717 2.371079,1.5137099 3.405899,2.4250509 1.034819,0.911342 1.559959,1.637271 2.216456,2.177793 0.656498,0.540522 1.444208,0.895764 1.868756,1.58224 0.424547,0.686475 0.486442,1.70773 0.285748,2.248172 -0.200694,0.540443 -0.664052,0.602224 -0.926731,0.193062 C 14.905034,16.820535 14.843252,15.940153 14.54993,15.368601 14.256607,14.797049 13.731466,14.534479 13.190812,14.009392 12.650157,13.484304 12.094127,12.696594 11.105635,11.769807 10.117144,10.843021 8.6961757,9.7772946 8.0395628,9.1130861 7.3829499,8.4488776 7.491067,8.1863074 8.317585,8.6033791 Z"
       id="path1129"
       inkscape:path-effect="#path-effect1131"
       inkscape:original-d="m 7.599241,7.923599 c 1.5448258,1.0969029 3.089387,2.193541 4.633684,3.289915 0.525426,0.726223 1.050566,1.452152 1.575452,2.177831 0.788006,0.355521 1.575717,0.710763 2.363179,1.065748 0.03116,1.019695 0.123829,2.039085 0.185347,3.058231 -0.463113,0.06205 -0.926472,0.123829 -1.390105,0.185347 -0.06152,-0.880153 -0.1233,-1.760535 -0.185348,-2.6412 C 14.256554,14.797155 13.731413,14.534585 13.205998,14.271745 12.650209,13.484268 12.094179,12.696557 11.537872,11.908567 10.117112,10.843063 8.6961439,9.777337 7.2748832,8.7113252 7.3832693,8.4490091 7.4913862,8.1864389 7.599241,7.923599 Z" />
  </g>
</svg>
