<?xml version="1.0" encoding="UTF-8" standalone="no"?>
<!-- Created with Inkscape (http://www.inkscape.org/) -->

<svg
   width="20mm"
   height="20mm"
   viewBox="0 0 20 20"
   version="1.1"
   id="svg5"
   sodipodi:docname="peder7.svg"
   inkscape:version="1.2.1 (9c6d41e410, 2022-07-14)"
   inkscape:export-filename="..\Downloads\new me.png"
   inkscape:export-xdpi="314.95999"
   inkscape:export-ydpi="314.95999"
   xmlns:inkscape="http://www.inkscape.org/namespaces/inkscape"
   xmlns:sodipodi="http://sodipodi.sourceforge.net/DTD/sodipodi-0.dtd"
   xmlns="http://www.w3.org/2000/svg"
   xmlns:svg="http://www.w3.org/2000/svg">
  <sodipodi:namedview
     id="namedview7"
     pagecolor="#ffffff"
     bordercolor="#000000"
     borderopacity="0.25"
     inkscape:showpageshadow="2"
     inkscape:pageopacity="0.0"
     inkscape:pagecheckerboard="0"
     inkscape:deskcolor="#d1d1d1"
     inkscape:document-units="mm"
     showgrid="false"
     inkscape:zoom="5.71"
     inkscape:cx="-35.113835"
     inkscape:cy="24.430823"
     inkscape:window-width="1920"
     inkscape:window-height="1001"
     inkscape:window-x="-9"
     inkscape:window-y="-9"
     inkscape:window-maximized="1"
     inkscape:current-layer="layer1" />
  <defs
     id="defs2">
    <inkscape:path-effect
       effect="bspline"
       id="path-effect2997"
       is_visible="true"
       lpeversion="1"
       weight="33.333333"
       steps="2"
       helper_size="0"
       apply_no_weight="true"
       apply_with_weight="true"
       only_selected="false" />
    <inkscape:path-effect
       effect="bspline"
       id="path-effect2993"
       is_visible="true"
       lpeversion="1"
       weight="33.333333"
       steps="2"
       helper_size="0"
       apply_no_weight="true"
       apply_with_weight="true"
       only_selected="false" />
    <inkscape:path-effect
       effect="bspline"
       id="path-effect745"
       is_visible="true"
       lpeversion="1"
       weight="33.333333"
       steps="2"
       helper_size="0"
       apply_no_weight="true"
       apply_with_weight="true"
       only_selected="false" />
    <inkscape:path-effect
       effect="bspline"
       id="path-effect741"
       is_visible="true"
       lpeversion="1"
       weight="33.333333"
       steps="2"
       helper_size="0"
       apply_no_weight="true"
       apply_with_weight="true"
       only_selected="false" />
    <inkscape:path-effect
       effect="bspline"
       id="path-effect629"
       is_visible="true"
       lpeversion="1"
       weight="33.333333"
       steps="2"
       helper_size="0"
       apply_no_weight="true"
       apply_with_weight="true"
       only_selected="false" />
    <inkscape:path-effect
       effect="bspline"
       id="path-effect625"
       is_visible="true"
       lpeversion="1"
       weight="33.333333"
       steps="2"
       helper_size="0"
       apply_no_weight="true"
       apply_with_weight="true"
       only_selected="false" />
    <inkscape:path-effect
       effect="bspline"
       id="path-effect621"
       is_visible="true"
       lpeversion="1"
       weight="33.333333"
       steps="2"
       helper_size="0"
       apply_no_weight="true"
       apply_with_weight="true"
       only_selected="false" />
    <inkscape:path-effect
       effect="bspline"
       id="path-effect617"
       is_visible="true"
       lpeversion="1"
       weight="33.333333"
       steps="2"
       helper_size="0"
       apply_no_weight="true"
       apply_with_weight="true"
       only_selected="false" />
    <inkscape:path-effect
       effect="bspline"
       id="path-effect613"
       is_visible="true"
       lpeversion="1"
       weight="33.333333"
       steps="2"
       helper_size="0"
       apply_no_weight="true"
       apply_with_weight="true"
       only_selected="false" />
    <inkscape:path-effect
       effect="bspline"
       id="path-effect555"
       is_visible="true"
       lpeversion="1"
       weight="33.333333"
       steps="2"
       helper_size="0"
       apply_no_weight="true"
       apply_with_weight="true"
       only_selected="false" />
    <inkscape:path-effect
       effect="bspline"
       id="path-effect551"
       is_visible="true"
       lpeversion="1"
       weight="33.333333"
       steps="2"
       helper_size="0"
       apply_no_weight="true"
       apply_with_weight="true"
       only_selected="false" />
    <inkscape:path-effect
       effect="bspline"
       id="path-effect547"
       is_visible="true"
       lpeversion="1"
       weight="33.333333"
       steps="2"
       helper_size="0"
       apply_no_weight="true"
       apply_with_weight="true"
       only_selected="false" />
    <inkscape:path-effect
       effect="bspline"
       id="path-effect388"
       is_visible="true"
       lpeversion="1"
       weight="33.333333"
       steps="2"
       helper_size="0"
       apply_no_weight="true"
       apply_with_weight="true"
       only_selected="false" />
    <inkscape:path-effect
       effect="bspline"
       id="path-effect384"
       is_visible="true"
       lpeversion="1"
       weight="33.333333"
       steps="2"
       helper_size="0"
       apply_no_weight="true"
       apply_with_weight="true"
       only_selected="false" />
    <inkscape:path-effect
       effect="bspline"
       id="path-effect326"
       is_visible="true"
       lpeversion="1"
       weight="33.333333"
       steps="2"
       helper_size="0"
       apply_no_weight="true"
       apply_with_weight="true"
       only_selected="false" />
    <inkscape:path-effect
       effect="bspline"
       id="path-effect322"
       is_visible="true"
       lpeversion="1"
       weight="33.333333"
       steps="2"
       helper_size="0"
       apply_no_weight="true"
       apply_with_weight="true"
       only_selected="false" />
  </defs>
  <g
     inkscape:label="Layer 1"
     inkscape:groupmode="layer"
     id="layer1"
     style="display:inline">
    <path
       style="fill:#000000;stroke-width:0.0107483"
       d="m 19.78498,1.7834409 c 0.118547,0.539717 0.355637,1.6191371 -0.325403,2.8908685 -0.68104,1.2717313 -2.280133,2.7357226 -3.44219,3.3756465 -1.162057,0.6399239 -1.887025,0.4557639 -2.656146,-0.092411 -0.769122,-0.548175 -1.582351,-1.4603307 -1.291929,-2.763411 0.290423,-1.3030803 1.684473,-2.9970014 2.920833,-3.9459432 1.23636,-0.94894176 2.314954,-1.15285559 3.068058,-1.02942203 0.753103,0.12343356 1.180667,0.57419313 1.39445,0.79957353 0.213782,0.2253804 0.213781,0.2253818 0.332327,0.7650988 z"
       id="path324"
       inkscape:original-d="m 19.666434,1.2437239 c 0.23709,1.0794346 0.474179,2.1588549 0.711269,3.238259 C 18.778492,5.9459916 17.179455,7.4100443 15.580325,8.8740465 14.855327,8.6898927 14.130358,8.5057344 13.405375,8.3215551 12.592112,7.4093765 11.778886,6.4972179 10.965637,5.5850314 12.359742,3.8910596 13.753793,2.1971386 15.14787,0.50317046 c 1.078638,-0.20390713 2.157232,-0.40782106 3.235848,-0.61175394 0.427581,0.45079264 0.855145,0.90155194 1.282717,1.35230598 z"
       inkscape:path-effect="#path-effect326" />
    <path
       style="fill:#ffffff;stroke-width:0.0152511"
       d="M 16.240573,3.7767642 C 15.672445,3.2571439 14.734291,3.0109804 14.004693,3.5434868 13.275096,4.0759933 12.75409,5.3870982 12.949702,6.3115414 13.145315,7.2359846 14.057504,7.7737295 14.886137,7.6377696 15.71477,7.5018097 16.45982,6.6921584 16.733308,5.8907922 17.006796,5.0894259 16.8087,4.2963846 16.240573,3.7767642 Z"
       id="path386"
       inkscape:original-d="M 16.610595,3.5033061 C 15.67244,3.2571637 14.734285,3.0110015 13.796132,2.7648159 c -0.521029,1.31118 -1.042035,2.6222853 -1.563053,3.9333965 0.912226,0.537789 1.824416,1.0755328 2.736624,1.6132674 0.745077,-0.809661 1.490128,-1.6193111 2.235192,-2.4290002 -0.198106,-0.7930519 -0.396201,-1.5860935 -0.5943,-2.3791735 z"
       inkscape:path-effect="#path-effect388" />
    <path
       style="fill:#ffffff;stroke-width:0.0135555"
       d="m 17.947262,0.7493989 c -0.224516,-0.005813 -0.673549,-0.0174395 -0.87954,0.16772674 -0.20599,0.18516626 -0.168941,0.56709216 0.04482,0.79946376 0.213765,0.2323716 0.60423,0.3151986 0.810219,0.1300508 0.205988,-0.1851477 0.227498,-0.6382744 0.238254,-0.86485119 0.01075,-0.22657675 0.01076,-0.22657695 -0.213758,-0.23239011 z"
       id="path549"
       inkscape:original-d="m 18.171778,0.75521206 c -0.449033,-0.011607 -0.898066,-0.023233 -1.347098,-0.034879 0.03705,0.38195904 0.0741,0.76388484 0.111149,1.14579714 0.390479,0.082849 0.780944,0.165676 1.171416,0.2484854 0.02151,-0.4531231 0.04302,-0.9062498 0.06453,-1.35940334 z"
       inkscape:path-effect="#path-effect551" />
    <path
       style="fill:#ffffff;stroke-width:0.0164909"
       d="M 18.909709,2.1430127 C 18.75258,1.8657008 18.469872,1.8273823 18.284419,2.0237114 c -0.185454,0.1963291 -0.273645,0.6272645 -0.116508,0.9045549 0.157138,0.2772904 0.559582,0.4009447 0.745029,0.204637 0.185447,-0.1963076 0.153898,-0.7125786 -0.0032,-0.9898906 z"
       id="path553"
       inkscape:original-d="M 19.035286,1.904019 C 18.752577,1.865724 18.469869,1.827407 18.187164,1.7890637 c -0.0882,0.4309767 -0.176388,0.8619126 -0.264578,1.292833 0.402456,0.1236815 0.8049,0.2473356 1.207351,0.3709687 -0.03155,-0.5162697 -0.0631,-1.0325407 -0.09465,-1.5488464 z"
       inkscape:path-effect="#path-effect555" />
    <path
       style="fill:#ff6600;stroke-width:0.0200404"
       d="m 17.111114,1.7147511 c 0.451082,-0.15999 1.212177,0.7004667 1.141632,1.2906751 -0.07055,0.5902083 -0.972671,0.9101722 -1.353215,0.4799453 -0.380544,-0.430227 -0.239499,-1.6106303 0.211583,-1.7706204 z"
       id="path611"
       inkscape:original-d="M 16.801084,0.69428486 C 17.562187,1.5547693 18.323279,2.4152286 19.084369,3.2756552 18.18221,3.5956621 17.280085,3.9156266 16.377939,4.2355661 16.518994,3.0551454 16.66004,1.8747421 16.801084,0.69428486 Z"
       inkscape:path-effect="#path-effect613" />
    <path
       style="fill:#000000;stroke-width:0.011112"
       d="m 17.526797,1.2586736 c -0.03635,0.00553 -0.109029,0.016583 -0.144688,0.052887 -0.03566,0.036304 -0.03429,0.097824 0.0019,0.1447133 0.03624,0.046889 0.107339,0.079148 0.147418,0.070185 0.04008,-0.00896 0.04915,-0.059159 0.04926,-0.1115757 1.14e-4,-0.052417 -0.0087,-0.1070672 -0.01315,-0.1344006 -0.0044,-0.027333 -0.0044,-0.027337 -0.04078,-0.021809 z"
       id="path615"
       inkscape:original-d="m 17.563143,1.2531454 c -0.07269,0.011071 -0.145372,0.022131 -0.218061,0.033167 0.0014,0.061551 0.0027,0.1230731 0.0041,0.1845902 0.0711,0.032274 0.142203,0.064531 0.213304,0.096774 0.0091,-0.050174 0.01813,-0.1003769 0.0272,-0.1505801 -0.0088,-0.054637 -0.01768,-0.1092813 -0.02653,-0.1639476 z"
       inkscape:path-effect="#path-effect617" />
    <path
       style="fill:#000000;stroke-width:0.011112"
       d="m 18.536039,2.4684144 c 0.02955,0.032123 0.08864,0.096357 0.103212,0.1422363 0.01458,0.04588 -0.01534,0.073401 -0.05355,0.080646 -0.03821,0.00725 -0.08471,-0.00578 -0.0993,-0.051648 -0.01459,-0.04587 0.0028,-0.124606 0.01142,-0.1639803 0.0087,-0.039374 0.0087,-0.039377 0.03822,-0.00725 z"
       id="path619"
       inkscape:original-d="m 18.50649,2.4362918 c 0.05909,0.064252 0.118176,0.1284876 0.177266,0.1927067 -0.02992,0.027542 -0.05984,0.055062 -0.08976,0.082569 -0.04651,-0.01301 -0.09301,-0.026034 -0.139523,-0.039077 0.01734,-0.078711 0.03468,-0.157447 0.05202,-0.2361964 z"
       inkscape:path-effect="#path-effect621" />
    <path
       style="fill:#ff6600;stroke-width:0.0157392"
       d="m 11.812039,5.420799 c 0.41105,0.1442852 0.939037,0.6945298 1.058176,1.1028901 C 12.989355,6.9320493 12.69968,7.198513 12.288647,7.054221 11.877614,6.9099291 11.345227,6.3549001 11.226064,5.9465413 11.106902,5.5381825 11.400989,5.2765138 11.812039,5.420799 Z"
       id="path623"
       inkscape:original-d="m 11.695093,5.0148296 c 0.527984,0.5502664 1.055973,1.1005089 1.58396,1.6507336 C 12.989364,6.9320596 12.69969,7.1985233 12.410013,7.4649706 11.877597,6.9099453 11.345222,6.3549046 10.812818,5.7998487 11.106891,5.5381702 11.401,5.2765264 11.695093,5.0148296 Z"
       inkscape:path-effect="#path-effect625" />
    <path
       style="fill:#ff6600;stroke-width:0.012995"
       d="m 13.992017,7.5479661 c 0.241967,0.2438508 0.725892,0.7315431 0.846717,1.0980083 C 14.959559,9.0124396 14.71731,9.2576659 14.339879,9.1496232 13.962449,9.0415804 13.449847,8.5802862 13.329005,8.2138226 13.208164,7.847359 13.479101,7.5757441 13.614576,7.4399298 13.750051,7.3041155 13.75005,7.3041154 13.992017,7.5479661 Z"
       id="path627"
       inkscape:original-d="m 13.75005,7.3041154 c 0.483922,0.4877134 0.967849,0.9754037 1.451777,1.4630791 -0.242259,0.245254 -0.484513,0.4904757 -0.726762,0.735693 C 13.962439,9.0415912 13.449837,8.5802969 12.937226,8.1189753 13.208169,7.8473639 13.479103,7.5757465 13.750051,7.3041155 Z"
       inkscape:path-effect="#path-effect629" />
    <path
       style="fill:#000000;stroke-width:0.0147157"
       d="M 14.969193,1.3244137 C 14.83959,1.1002725 13.146284,2.0787462 12.429246,2.7921304 11.712208,3.5055146 11.971409,3.9537819 12.818066,3.46453 13.664723,2.9752781 15.098796,1.5485549 14.969193,1.3244137 Z"
       id="path739"
       inkscape:original-d="m 16.532908,0.12179242 c -1.693309,0.97849498 -3.386616,1.95696798 -5.07992,2.93542128 0.259208,0.4483079 0.518409,0.896575 0.777619,1.3448312 1.434124,-1.4267592 2.868198,-2.853481 4.302301,-4.28025248 z"
       inkscape:path-effect="#path-effect741" />
    <path
       style="fill:#000000;stroke-width:0.0193795"
       d="M 19.163495,4.870891 C 18.50545,5.4985337 17.189374,6.753808 16.700872,7.5603873 16.212371,8.3669665 16.551403,8.7248313 17.209437,8.0971782 17.867471,7.4695251 18.844486,5.8564124 19.33301,5.0498302 19.821533,4.243248 19.821539,4.2432483 19.163495,4.870891 Z"
       id="path743"
       inkscape:original-d="m 19.821539,4.2432483 c -1.316068,1.255307 -2.632145,2.5105811 -3.94823,3.7658223 0.33903,0.3579261 0.678082,0.7157724 1.017117,1.0736152 C 17.867487,7.469535 18.844502,5.856422 19.821533,4.243248 Z"
       inkscape:path-effect="#path-effect745" />
    <path
       style="display:inline;fill:#784421;stroke-width:0.573666"
       d="M 6.918421,13.860904 C 6.231472,16.53718 6.98851,20.502043 8.6900133,21.588131 10.391517,22.674219 13.036304,20.882057 13.72217,18.206287 14.408036,15.530518 13.136027,11.970671 11.435599,10.884038 9.7351701,9.7974042 7.60537,11.184628 6.918421,13.860904 Z"
       id="path2995"
       inkscape:path-effect="#path-effect2997"
       inkscape:original-d="M 5.474481,12.572562 C 6.2326974,16.536946 6.9897349,20.501809 7.7455944,24.467151 10.391665,22.674438 13.036452,20.882275 15.680114,19.090557 14.40923,15.530091 13.137222,11.970244 11.864011,8.4108047 9.735304,9.7976098 7.6055019,11.184831 5.474481,12.572562 Z" />
    <path
       style="display:inline;fill:#008b00;stroke-width:0.335759"
       d="M 10.714008,3.5381475 C 7.888712,3.6626426 4.8513587,4.1381074 3.3155987,5.8817188 1.7798387,7.6253301 1.7459025,10.636548 4.3338085,12.391067 6.9217145,14.145587 12.130926,14.643683 14.971554,13.02478 17.812182,11.405878 18.290107,7.6252305 17.22125,5.6326452 16.152394,3.6400598 13.539304,3.4136525 10.714008,3.5381475 Z"
       id="path2991"
       inkscape:path-effect="#path-effect2993"
       inkscape:original-d="M 10.925841,3.1872128 C 7.8887782,3.6630655 4.8514249,4.1385304 1.8137806,4.6136075 1.7801338,7.6253334 1.7461976,10.636551 1.7119699,13.64744 6.9216805,14.145943 12.130892,14.64404 17.339917,15.141758 17.815334,11.406276 18.290441,7.6252728 18.765267,3.8664483 16.152363,3.6404198 13.539273,3.4140125 10.925841,3.1872128 Z" />
  </g>
</svg>
