<?xml version="1.0" encoding="UTF-8" standalone="no"?>
<!-- Created with Inkscape (http://www.inkscape.org/) -->

<svg
   width="20mm"
   height="20mm"
   viewBox="0 0 20 20"
   version="1.1"
   id="svg5"
   sodipodi:docname="peder6.svg"
   inkscape:version="1.2.1 (9c6d41e410, 2022-07-14)"
   inkscape:export-filename="..\Downloads\new me.png"
   inkscape:export-xdpi="314.95999"
   inkscape:export-ydpi="314.95999"
   xml:space="preserve"
   xmlns:inkscape="http://www.inkscape.org/namespaces/inkscape"
   xmlns:sodipodi="http://sodipodi.sourceforge.net/DTD/sodipodi-0.dtd"
   xmlns="http://www.w3.org/2000/svg"
   xmlns:svg="http://www.w3.org/2000/svg"><sodipodi:namedview
     id="namedview7"
     pagecolor="#ffffff"
     bordercolor="#000000"
     borderopacity="0.25"
     inkscape:showpageshadow="2"
     inkscape:pageopacity="0.0"
     inkscape:pagecheckerboard="0"
     inkscape:deskcolor="#d1d1d1"
     inkscape:document-units="mm"
     showgrid="false"
     inkscape:zoom="5.71"
     inkscape:cx="-26.444834"
     inkscape:cy="53.152364"
     inkscape:window-width="1920"
     inkscape:window-height="1001"
     inkscape:window-x="-9"
     inkscape:window-y="-9"
     inkscape:window-maximized="1"
     inkscape:current-layer="layer1" /><defs
     id="defs2"><inkscape:path-effect
       effect="bspline"
       id="path-effect745"
       is_visible="true"
       lpeversion="1"
       weight="33.333333"
       steps="2"
       helper_size="0"
       apply_no_weight="true"
       apply_with_weight="true"
       only_selected="false" /><inkscape:path-effect
       effect="bspline"
       id="path-effect741"
       is_visible="true"
       lpeversion="1"
       weight="33.333333"
       steps="2"
       helper_size="0"
       apply_no_weight="true"
       apply_with_weight="true"
       only_selected="false" /><inkscape:path-effect
       effect="bspline"
       id="path-effect629"
       is_visible="true"
       lpeversion="1"
       weight="33.333333"
       steps="2"
       helper_size="0"
       apply_no_weight="true"
       apply_with_weight="true"
       only_selected="false" /><inkscape:path-effect
       effect="bspline"
       id="path-effect625"
       is_visible="true"
       lpeversion="1"
       weight="33.333333"
       steps="2"
       helper_size="0"
       apply_no_weight="true"
       apply_with_weight="true"
       only_selected="false" /><inkscape:path-effect
       effect="bspline"
       id="path-effect621"
       is_visible="true"
       lpeversion="1"
       weight="33.333333"
       steps="2"
       helper_size="0"
       apply_no_weight="true"
       apply_with_weight="true"
       only_selected="false" /><inkscape:path-effect
       effect="bspline"
       id="path-effect617"
       is_visible="true"
       lpeversion="1"
       weight="33.333333"
       steps="2"
       helper_size="0"
       apply_no_weight="true"
       apply_with_weight="true"
       only_selected="false" /><inkscape:path-effect
       effect="bspline"
       id="path-effect613"
       is_visible="true"
       lpeversion="1"
       weight="33.333333"
       steps="2"
       helper_size="0"
       apply_no_weight="true"
       apply_with_weight="true"
       only_selected="false" /><inkscape:path-effect
       effect="bspline"
       id="path-effect555"
       is_visible="true"
       lpeversion="1"
       weight="33.333333"
       steps="2"
       helper_size="0"
       apply_no_weight="true"
       apply_with_weight="true"
       only_selected="false" /><inkscape:path-effect
       effect="bspline"
       id="path-effect551"
       is_visible="true"
       lpeversion="1"
       weight="33.333333"
       steps="2"
       helper_size="0"
       apply_no_weight="true"
       apply_with_weight="true"
       only_selected="false" /><inkscape:path-effect
       effect="bspline"
       id="path-effect547"
       is_visible="true"
       lpeversion="1"
       weight="33.333333"
       steps="2"
       helper_size="0"
       apply_no_weight="true"
       apply_with_weight="true"
       only_selected="false" /><inkscape:path-effect
       effect="bspline"
       id="path-effect388"
       is_visible="true"
       lpeversion="1"
       weight="33.333333"
       steps="2"
       helper_size="0"
       apply_no_weight="true"
       apply_with_weight="true"
       only_selected="false" /><inkscape:path-effect
       effect="bspline"
       id="path-effect384"
       is_visible="true"
       lpeversion="1"
       weight="33.333333"
       steps="2"
       helper_size="0"
       apply_no_weight="true"
       apply_with_weight="true"
       only_selected="false" /><inkscape:path-effect
       effect="bspline"
       id="path-effect326"
       is_visible="true"
       lpeversion="1"
       weight="33.333333"
       steps="2"
       helper_size="0"
       apply_no_weight="true"
       apply_with_weight="true"
       only_selected="false" /><inkscape:path-effect
       effect="bspline"
       id="path-effect322"
       is_visible="true"
       lpeversion="1"
       weight="33.333333"
       steps="2"
       helper_size="0"
       apply_no_weight="true"
       apply_with_weight="true"
       only_selected="false" /></defs><g
     inkscape:label="Layer 1"
     inkscape:groupmode="layer"
     id="layer1"><path
       style="fill:#000000;stroke-width:0.020873"
       d="m 11.376791,0.77789311 c 0.880105,0.56908929 2.640291,1.70725279 3.51564,4.49434079 0.875349,2.787088 0.865886,7.2229161 0.28388,9.8591711 -0.582006,2.636255 -1.736514,3.472836 -3.439936,3.871681 C 10.032953,19.40193 7.7807182,19.36302 6.3753936,17.120709 4.970069,14.878398 4.4117411,10.432838 4.6672597,7.2566554 4.9227783,4.0804725 5.9921178,2.173844 7.0993551,1.210779 8.2065923,0.24771394 9.3516369,0.22825656 9.9241615,0.21852784 c 0.5725245,-0.009729 0.5725245,-0.009724 1.4526295,0.55936527 z"
       id="path324"
       inkscape:original-d="m 10.496686,0.20880381 c 1.760207,1.13818289 3.520393,2.27634709 5.280558,3.41448969 -0.0095,4.4360283 -0.01889,8.8718565 -0.02839,13.3077545 -1.154533,0.836634 -2.309039,1.673218 -3.463591,2.509794 -2.25231,-0.03889 -4.504545,-0.07781 -6.7568473,-0.116734 C 4.9700858,14.878396 4.4117589,10.432836 3.8533997,5.9871707 4.922802,4.0804858 5.9921414,2.1738572 7.0614815,0.26717244 8.2065927,0.24773964 9.3516373,0.22827877 10.496686,0.20879911 Z"
       inkscape:path-effect="#path-effect326" /><path
       style="fill:#ffffff;stroke-width:0.0296175"
       d="M 9.6578771,8.8762349 C 8.2440067,9.011973 6.7393524,10.083691 6.5512885,11.919945 c -0.1880639,1.836254 0.9404024,4.4369 2.438589,5.422852 1.4981865,0.985953 3.3659945,0.357225 4.2155955,-1.078878 0.849602,-1.436103 0.68098,-3.67952 -0.06486,-5.201371 C 12.394777,9.5406961 11.071747,8.7404969 9.6578771,8.8762349 Z"
       id="path386"
       inkscape:original-d="M 9.7486548,7.9402597 C 8.2440306,9.0120066 6.7393775,10.083726 5.234696,11.15541 6.3632363,13.756194 7.4917041,16.356839 8.6201653,18.957509 10.488077,18.328788 12.355884,17.700057 14.223701,17.071286 14.0551,14.827814 13.886481,12.584397 13.717825,10.340906 12.39477,9.5407083 11.071741,8.7405075 9.7486548,7.9402597 Z"
       inkscape:path-effect="#path-effect388" /><path
       style="fill:#ffffff;stroke-width:0.0263246"
       d="M 7.9747052,2.4428928 C 7.3926981,2.4428802 6.8165828,3.1029405 6.8107257,3.6696107 6.8048685,4.2362809 7.3692147,4.7095224 7.9512006,4.7095046 8.5331864,4.7094868 9.1328038,4.2362453 9.1386885,3.6695992 9.1445732,3.102953 8.5567123,2.4429054 7.9747052,2.4428928 Z"
       id="path549"
       inkscape:original-d="M 7.9688154,1.7828176 C 7.3927262,2.4429047 6.8166116,3.1029656 6.2404712,3.7629965 6.8048651,4.236285 7.3692113,4.7095264 7.9335429,5.1827488 8.5332099,4.7095165 9.1328272,4.236275 9.7324306,3.7629965 9.1445736,3.1029527 8.5567131,2.4429047 7.9688154,1.7828176 Z"
       inkscape:path-effect="#path-effect551" /><path
       style="fill:#ffffff;stroke-width:0.0320251"
       d="M 10.772337,2.5939658 C 10.200059,2.4464519 9.79529,2.8190816 9.8302023,3.370289 9.8651146,3.9214963 10.339663,4.6512161 10.911919,4.7986904 11.484176,4.9461648 12.154128,4.5114378 12.119239,3.9602662 12.08435,3.4090947 11.344615,2.7414798 10.772337,2.5939658 Z"
       id="path553"
       inkscape:original-d="M 10.60483,2.0738203 C 10.200091,2.4464866 9.7953223,2.8191167 9.3905227,3.1917098 9.8651205,3.9214925 10.339668,4.6512129 10.814195,5.3809103 11.4842,4.9462023 12.154152,4.5114753 12.824084,4.076708 12.084347,3.4090984 11.344612,2.7414829 10.60483,2.0738203 Z"
       inkscape:path-effect="#path-effect555" /><path
       style="fill:#ff6600;stroke-width:0.0389181"
       d="M 7.9469202,4.7091151 C 8.2927802,3.8082538 10.409825,3.8540593 11.12246,4.7778268 11.835095,5.7015944 11.143401,7.503239 10.084885,7.4803314 9.0263683,7.4574238 7.6010603,5.6099763 7.9469202,4.7091151 Z"
       id="path611"
       inkscape:original-d="m 6.1756895,3.7624474 c 2.11709,0.045838 4.2341345,0.091647 6.3511325,0.1374163 C 11.835144,5.7016132 11.143452,7.5032586 10.4517,9.304902 9.0263796,7.4574151 7.6010718,5.6099674 6.1756895,3.7624474 Z"
       inkscape:path-effect="#path-effect613" /><path
       style="fill:#000000;stroke-width:0.0215793"
       d="M 7.8895353,3.4826263 C 7.8090827,3.5138133 7.7333759,3.6385812 7.7381212,3.7425614 7.7428665,3.8465416 7.8280369,3.9297202 7.9368594,3.9401045 8.0456819,3.9504888 8.1781672,3.8881062 8.2160241,3.8153383 8.2538809,3.7425703 8.1971023,3.6593942 8.1261304,3.5866091 8.0551584,3.5138239 7.969988,3.4514394 7.8895353,3.4826263 Z"
       id="path615"
       inkscape:original-d="M 7.8847941,3.3890377 C 7.8091079,3.5138286 7.7334011,3.6385965 7.657674,3.7633412 7.7428664,3.8465417 7.8280347,3.9297224 7.9131847,4.0128769 8.0456949,3.9505165 8.1781794,3.8881321 8.3106462,3.8257267 8.2538869,3.7425662 8.1971063,3.6593915 8.1403051,3.576191 8.0551536,3.5138305 7.9699852,3.4514432 7.8847941,3.3890377 Z"
       inkscape:path-effect="#path-effect617" /><path
       style="fill:#000000;stroke-width:0.0215793"
       d="m 10.790067,3.674977 c 0.03786,-0.067595 0.198733,-0.067595 0.279161,-0.025994 0.08043,0.0416 0.08043,0.1247806 0.04258,0.1923489 -0.03785,0.067568 -0.11356,0.1195579 -0.193992,0.077984 C 10.837382,3.8777412 10.75221,3.7425717 10.790067,3.674977 Z"
       id="path619"
       inkscape:original-d="m 10.667025,3.6073822 c 0.160899,2.31e-5 0.321775,2.31e-5 0.482631,0 2.1e-5,0.083201 2.1e-5,0.1663811 0,0.2495356 -0.07568,0.05201 -0.151393,0.1039959 -0.227121,0.1559621 -0.08514,-0.1351468 -0.170321,-0.2703108 -0.25551,-0.4054977 z"
       inkscape:path-effect="#path-effect621" /><path
       style="fill:#ff6600;stroke-width:0.0305653"
       d="m 6.3618352,17.822089 c 0.7086794,-0.419108 2.114002,-0.451978 2.8166501,-0.06573 0.7026482,0.386246 0.7026482,1.191541 -0.00602,1.610614 -0.7086679,0.419073 -2.1259729,0.451942 -2.8286468,0.06573 -0.7026739,-0.38621 -0.6906629,-1.191506 0.018016,-1.610615 z"
       id="path623"
       inkscape:original-d="m 5.6651676,17.435852 c 1.4053479,-0.03283 2.8106703,-0.06571 4.2159659,-0.09861 2.55e-5,0.805362 2.55e-5,1.610657 0,2.415933 -1.417335,0.03291 -2.8346402,0.06577 -4.2519997,0.09861 0.012036,-0.805291 0.02405,-1.610587 0.036034,-2.415933 z"
       inkscape:path-effect="#path-effect625" /><path
       style="fill:#ff6600;stroke-width:0.0252361"
       d="m 11.983074,17.878042 c 0.617565,-0.418714 1.883045,-0.471882 2.530963,-0.146206 0.647919,0.325676 0.678292,1.03014 0.06073,1.448825 -0.617558,0.418686 -1.883013,0.551603 -2.53095,0.225955 -0.647937,-0.325647 -0.67831,-1.109861 -0.06075,-1.528574 z"
       id="path627"
       inkscape:original-d="m 11.335135,17.512498 c 1.265505,-0.05314 2.530985,-0.106309 3.796446,-0.159506 0.0304,0.704519 0.06076,1.408983 0.09112,2.113434 -1.265486,0.13295 -2.530941,0.265867 -3.796445,0.39876 -0.03035,-0.784218 -0.06073,-1.568432 -0.09112,-2.352688 z"
       inkscape:path-effect="#path-effect629" /><path
       style="fill:#000000;stroke-width:0.0285777"
       d="M 4.7445177,7.3937866 C 4.2787216,7.2784727 3.4930464,11.183646 3.5660295,13.251535 c 0.072983,2.067889 1.00455,2.298505 1.3973712,0.345891 0.3928211,-1.952613 0.2469131,-6.0883255 -0.218883,-6.2036394 z"
       id="path739"
       inkscape:original-d="M 5.0644017,3.3732745 C 4.2787517,7.2784788 3.493076,11.183652 2.707377,15.088791 3.6390061,15.31945 4.5705731,15.550066 5.5021344,15.780653 5.3562452,11.644812 5.2103371,7.5090997 5.0644017,3.3732745 Z"
       inkscape:path-effect="#path-effect741" /><path
       style="fill:#000000;stroke-width:0.0376347"
       d="m 15.274208,7.843262 c -0.454288,0.00741 -0.393717,3.727953 0.09088,5.580797 0.4846,1.852845 1.393147,1.838022 1.362836,-0.02227 -0.03031,-1.86029 -0.999431,-5.5659371 -1.45372,-5.558529 z"
       id="path743"
       inkscape:original-d="m 14.759348,4.1300905 c 0.06062,3.7205789 0.121187,7.4411235 0.181714,11.1616375 0.908631,-0.01479 1.817178,-0.02961 2.725701,-0.04447 C 16.69765,11.541492 15.728531,7.835845 14.759348,4.1300905 Z"
       inkscape:path-effect="#path-effect745" /><g
       id="g1164"
       transform="matrix(0.01271166,0,0,0.00725605,1.742775,-0.36823129)"><g
         id="g950"><path
           d="m 930,885 c 0,-33 2,-35 35,-35 33,0 35,2 35,35 0,33 -2,35 -35,35 -33,0 -35,-2 -35,-35 z m 50,-320 c 0,-34 1,-35 40,-35 39,0 40,1 40,35 0,34 -1,35 -40,35 -39,0 -40,-1 -40,-35 z M 730,495 c 0,-33 2,-35 35,-35 33,0 35,2 35,35 0,33 -2,35 -35,35 -33,0 -35,-2 -35,-35 z"
           id="path948" /></g><g
         fill="#080808"
         id="g954"><path
           d="m 947,934 c -4,-4 -7,-25 -7,-46 v -39 l 43,3 c 42,3 42,3 42,43 0,39 -1,40 -35,43 -20,2 -39,0 -43,-4 z M 677,853 c -4,-3 -7,-22 -7,-40 0,-33 1,-34 38,-31 35,3 37,5 40,41 3,36 2,37 -31,37 -18,0 -37,-3 -40,-7 z M 840,705 c 0,-34 1,-35 40,-35 39,0 40,1 40,35 0,34 -1,35 -40,35 -39,0 -40,-1 -40,-35 z M 946,597 c -9,-23 -16,-57 -16,-75 0,-30 2,-32 34,-32 19,0 36,6 39,14 3,7 19,16 36,19 28,6 31,10 31,43 0,27 -5,37 -20,41 -11,3 -20,12 -20,19 0,9 -12,14 -34,14 -30,0 -35,-4 -50,-43 z M 712,518 c -7,-7 -12,-27 -12,-45 0,-32 2,-33 39,-33 61,0 71,7 71,51 v 39 h -43 c -24,0 -48,-5 -55,-12 z m 8,-393 c 0,-8 -9,-24 -20,-35 C 689,79 680,57 680,42 V 14 l 45,10 c 32,8 45,15 45,28 0,10 5,18 10,18 6,0 10,16 10,35 0,33 -2,35 -35,35 -24,0 -35,-5 -35,-15 z m 156,-8 C 865,109 860,94 862,78 l 3,-26 48,31 c 26,18 47,35 47,39 0,13 -65,9 -84,-5 z"
           id="path952" /></g><g
         fill="#101010"
         id="g958"><path
           d="m 770,1250 c 0,-16 7,-20 30,-20 17,0 30,-4 30,-10 0,-5 16,-10 35,-10 32,0 35,2 35,30 v 30 h -65 c -58,0 -65,-2 -65,-20 z M 526,1068 c -3,-13 -6,-36 -6,-51 0,-27 2,-28 43,-25 35,3 43,7 45,27 2,12 1,34 -2,47 -5,19 -13,24 -40,24 -26,0 -35,-5 -40,-22 z m 154,-38 c 0,-39 1,-40 35,-40 34,0 35,1 35,40 0,39 -1,40 -35,40 -34,0 -35,-1 -35,-40 z m 280,-95 c 0,-16 -6,-25 -15,-25 -10,0 -15,-11 -15,-35 0,-38 11,-42 79,-29 33,7 37,20 25,83 -6,27 -10,31 -40,31 -30,0 -34,-3 -34,-25 z m 35,-46 c -4,-5 -13,-9 -22,-9 -13,0 -13,3 -3,15 13,15 35,11 25,-6 z m -461,27 c -3,-7 -4,-33 -2,-57 3,-43 4,-44 41,-47 l 37,-3 v 121 h -35 c -21,0 -38,-6 -41,-14 z m 113,-63 c -4,-3 -7,-22 -7,-40 v -34 l 58,3 57,3 3,38 3,37 h -54 c -29,0 -57,-3 -60,-7 z m 233,-58 c 0,-34 1,-35 40,-35 39,0 40,1 40,35 0,34 -1,35 -40,35 -39,0 -40,-1 -40,-35 z m 90,-40 c 0,-33 2,-35 35,-35 33,0 35,2 35,35 0,33 -2,35 -35,35 -33,0 -35,-2 -35,-35 z M 830,705 v -35 h 100 v 70 H 830 Z m 121,-86 c -6,-18 -11,-52 -11,-75 0,-39 3,-44 23,-44 12,0 48,8 79,17 52,16 58,21 58,45 0,33 -27,68 -52,68 -10,0 -18,5 -18,10 0,6 -15,10 -34,10 -29,0 -36,-4 -45,-31 z m 83,-48 c 3,-5 -1,-12 -10,-15 -20,-8 -29,-1 -19,13 8,13 22,14 29,2 z M 760,545 c -7,-8 -21,-15 -31,-15 -23,0 -39,-29 -39,-69 0,-26 4,-31 25,-31 21,0 25,-5 25,-30 0,-28 2,-30 41,-30 59,0 79,14 79,55 0,19 -4,35 -9,35 -4,0 -6,23 -3,50 l 5,50 h -41 c -23,0 -45,-6 -52,-15 z m 20,-54 c 0,-9 -24,-21 -42,-21 -6,0 -6,6 2,15 14,16 40,20 40,6 z M 246,258 c 17,-57 25,-68 44,-68 17,0 20,7 20,39 0,40 -11,51 -51,51 -16,0 -19,-4 -13,-22 z m 479,-98 c -3,-5 -19,-10 -36,-10 -26,0 -29,-3 -29,-34 0,-19 6,-37 13,-39 27,-11 -20,-27 -80,-27 -56,0 -63,-2 -63,-20 0,-18 7,-20 73,-20 77,0 120,8 112,20 -2,4 2,16 10,26 13,18 14,18 8,-5 -6,-23 -5,-23 45,-17 69,8 124,36 187,93 20,18 19,18 -16,21 -26,2 -47,-4 -74,-22 -54,-37 -75,-35 -75,9 0,33 -2,35 -34,35 -19,0 -38,-4 -41,-10 z"
           id="path956" /></g><g
         fill="#191919"
         id="g964"><path
           d="m 603,1231 c -26,-21 -57,-48 -67,-60 -11,-12 -37,-32 -58,-43 -30,-17 -38,-28 -38,-49 0,-42 10,-59 35,-59 21,0 23,-3 18,-35 -3,-19 -2,-42 3,-52 4,-10 13,-49 18,-88 l 11,-70 43,-3 c 32,-2 42,-7 42,-21 0,-10 10,-27 23,-39 27,-26 87,-31 87,-7 0,17 15,19 113,15 41,-1 67,2 67,8 0,6 12,12 28,14 25,3 27,7 30,51 l 3,47 h -40 c -29,0 -41,-4 -41,-14 0,-9 -15,-15 -43,-17 -66,-6 -77,-1 -77,31 0,16 -4,30 -9,32 -5,2 -6,21 -2,43 5,31 11,41 29,43 14,2 22,10 22,23 0,33 28,22 32,-13 3,-32 5,-33 48,-33 h 45 v 40 c 0,34 -3,40 -23,43 -19,3 -23,8 -17,25 3,12 11,40 16,62 6,22 17,44 25,48 17,10 18,54 2,89 l -13,27 H 783 l -132,1 z m 231,-54 c -3,-7 -30,-23 -60,-37 -61,-28 -85,-49 -117,-100 -20,-32 -22,-33 -25,-12 -6,36 27,121 53,138 26,17 109,33 137,26 9,-2 14,-9 12,-15 z M 574,1028 c -10,-16 -22,-7 -17,13 4,15 8,17 14,8 4,-7 5,-17 3,-21 z m 3,-175 c -4,-17 -4,-17 -12,0 -4,9 -4,25 0,35 8,16 8,16 12,0 3,-10 3,-26 0,-35 z m 148,-33 c -3,-5 -17,-10 -31,-10 -14,0 -22,4 -19,10 3,6 17,10 31,10 14,0 22,-4 19,-10 z"
           id="path960" /><path
           d="m 960,950 c 0,-11 -7,-20 -15,-20 -10,0 -15,-11 -15,-35 v -35 h 110 v 33 c 0,62 -9,77 -46,77 -27,0 -34,-4 -34,-20 z m 26,-71 c -29,-8 -31,-4 -9,24 18,25 18,25 24,4 4,-16 0,-24 -15,-28 z m -6,-113 c 0,-65 7,-76 46,-76 31,0 34,3 34,29 0,16 -3,43 -6,60 -6,27 -10,31 -40,31 -33,0 -34,-1 -34,-44 z M 970,625 c 0,-19 -4,-35 -10,-35 -5,0 -10,-20 -10,-45 0,-40 3,-45 23,-45 12,0 48,8 79,17 46,14 58,22 58,39 0,26 -32,64 -54,64 -9,0 -16,8 -16,20 0,16 -7,20 -35,20 -33,0 -35,-2 -35,-35 z m 21,-44 c -17,-30 -13,-36 9,-16 14,13 24,15 31,8 7,-7 -2,-16 -30,-30 -23,-11 -41,-20 -41,-19 0,16 35,97 37,89 3,-7 0,-21 -6,-32 z M 740,546 v -36 l -60,7 -60,6 v -35 c 0,-29 4,-36 33,-46 18,-7 41,-12 50,-12 12,0 17,-9 17,-29 0,-37 22,-45 96,-36 l 55,7 -3,101 -3,102 -62,3 -63,3 z m 80,-22 c 0,-11 -23,-49 -34,-56 -6,-4 -24,-8 -39,-8 -25,0 -27,2 -17,20 6,11 19,20 29,20 10,0 24,7 31,15 12,15 30,20 30,9 z m -4,-109 c -11,-8 -27,-15 -35,-15 -13,1 -12,4 3,15 11,8 27,15 35,15 13,-1 12,-4 -3,-15 z M 240,276 c 0,-8 10,-22 23,-31 18,-13 20,-17 7,-25 -22,-14 1,-32 36,-28 26,3 29,8 32,41 3,31 0,37 -17,37 -11,0 -23,5 -26,10 -10,16 -55,12 -55,-4 z m 110,-51 v -35 h 100 v 70 H 350 Z m 10,-80 c 0,-33 2,-35 35,-35 33,0 35,2 35,35 0,33 -2,35 -35,35 -33,0 -35,-2 -35,-35 z m 340,21 C 645,149 640,142 640,94 V 48 l -65,7 c -55,6 -66,5 -71,-9 -10,-27 3,-31 94,-31 98,0 110,6 144,83 11,24 22,41 25,39 2,-3 -3,-19 -11,-36 -19,-36 -21,-55 -3,-44 14,9 18,9 73,11 26,1 55,12 78,27 21,14 41,23 46,20 8,-5 36,34 28,39 -8,7 -168,26 -203,25 -22,-1 -56,-6 -75,-13 z M 413,65 c 36,-32 47,-31 47,0 0,22 -4,25 -37,25 l -38,-1 z"
           id="path962" /></g><g
         fill="#212121"
         id="g972"><path
           d="m 676,1255 c -3,-9 -19,-15 -41,-15 -28,0 -35,-4 -35,-19 0,-11 -3,-28 -7,-38 -5,-13 5,-8 35,15 23,19 70,42 104,52 l 63,18 -56,1 c -42,1 -58,-3 -63,-14 z"
           id="path966" /><path
           d="m 878,1261 c 11,-6 10,-11 -3,-25 -20,-19 -32,-20 -37,-4 -4,10 -13,10 -43,0 -23,-6 -43,-8 -48,-3 -5,5 -30,-1 -59,-16 -69,-34 -80,-64 -89,-234 -7,-145 -14,-182 -32,-176 -16,5 -26,74 -16,109 6,23 4,30 -12,39 -16,8 -18,13 -9,24 7,8 9,18 6,23 -8,13 13,72 26,72 5,0 6,4 3,10 -4,6 -22,2 -47,-11 -22,-11 -37,-16 -33,-10 3,6 0,11 -7,11 -7,0 8,14 34,30 62,39 67,50 24,50 -25,0 -36,-4 -36,-15 0,-9 -9,-15 -22,-15 -13,0 -38,-9 -56,-20 -29,-18 -33,-25 -30,-58 3,-35 5,-37 40,-40 28,-2 39,-9 44,-25 4,-12 2,-23 -5,-25 -16,-5 -14,-72 3,-72 15,0 26,-30 26,-71 0,-15 7,-32 14,-39 8,-6 20,-27 26,-46 10,-30 16,-34 46,-34 19,0 34,4 34,10 0,14 28,1 58,-26 16,-15 37,-24 58,-24 32,0 34,2 34,33 v 32 l 67,-4 c 38,-2 62,-6 56,-8 -26,-9 -12,-23 22,-23 19,0 35,5 35,10 0,6 11,10 24,10 13,0 38,3 55,6 l 32,7 -5,116 c -6,154 -9,161 -57,161 -39,0 -39,0 -39,-39 0,-45 18,-65 27,-30 6,22 7,22 14,3 13,-32 10,-44 -11,-44 -13,0 -20,-7 -20,-20 0,-11 5,-20 10,-20 6,0 10,-9 10,-20 0,-11 -4,-20 -9,-20 -5,0 -12,-8 -14,-17 -4,-14 -5,-12 -6,5 0,12 -7,22 -15,22 -7,0 -17,-10 -21,-22 -7,-22 -8,-22 -12,6 l -5,29 -74,-6 c -67,-5 -74,-4 -74,13 0,10 -6,20 -12,23 -8,2 -1,16 21,35 28,27 41,32 83,32 70,0 88,12 88,60 0,22 -5,40 -12,42 -9,3 -7,10 6,23 15,15 17,28 12,69 -3,28 -6,75 -6,104 v 52 h -37 c -25,0 -33,-3 -25,-9 z m -8,-133 c -12,-49 -27,-85 -41,-94 -8,-5 -10,1 -7,20 4,21 3,24 -8,15 -8,-6 -14,-18 -14,-25 0,-16 -9,-18 -28,-6 -8,5 -10,16 -6,28 7,18 7,18 -13,1 -23,-20 -41,-66 -19,-48 8,7 15,4 24,-10 11,-16 9,-19 -7,-19 -28,0 -29,-2 -47,-112 -5,-31 -3,-38 10,-38 23,0 20,-17 -5,-31 -25,-13 -15,-26 26,-31 l 30,-4 -28,-14 c -23,-11 -32,-11 -48,-2 -15,10 -19,9 -19,-1 0,-7 6,-19 13,-27 6,-8 -1,-4 -16,10 -24,21 -27,30 -22,55 4,16 9,63 12,103 7,106 45,162 143,210 30,15 59,33 63,40 13,20 15,14 7,-20 z m -144,7 c -16,-17 -46,-20 -46,-6 0,11 18,19 43,20 16,1 17,-1 3,-14 z m -66,-56 c -10,-34 -20,-50 -20,-31 0,14 18,62 24,62 3,0 1,-14 -4,-31 z M 891,975 c -1,-15 -24,-12 -29,3 -3,9 2,13 12,10 10,-1 17,-7 17,-13 z M 874,765 c -7,-16 -31,-19 -60,-8 -16,6 -16,7 2,14 34,14 64,10 58,-6 z m 143,0 c -4,-8 -2,-17 3,-20 6,-4 10,-11 10,-18 0,-6 -6,-2 -14,8 -12,17 -12,45 1,45 3,0 3,-7 0,-15 z M 216,692 c -3,-5 -8,-28 -12,-50 -7,-42 -6,-42 25,-42 28,0 31,-3 30,-27 -2,-24 -2,-25 -6,-5 -3,16 -11,22 -29,22 -24,0 -25,-3 -19,-32 4,-18 12,-35 17,-36 5,-3 6,-39 2,-88 -6,-71 -4,-84 8,-84 9,0 21,-7 28,-15 7,-8 28,-15 47,-15 35,0 35,0 30,38 -8,65 -31,142 -43,142 -7,0 -14,11 -16,25 -5,22 -2,25 23,25 26,0 29,3 29,35 0,32 -3,35 -28,35 -26,0 -27,2 -24,40 4,39 3,40 -26,40 -17,0 -33,-4 -36,-8 z m 754,-39 c 0,-10 -7,-36 -15,-58 -8,-22 -14,-64 -15,-92 v -53 h 61 c 89,0 99,8 99,81 0,35 -5,66 -12,74 -7,7 -22,25 -32,39 -23,32 -86,38 -86,9 z m 25,-62 c -9,-17 -11,-31 -5,-31 5,0 10,5 10,11 0,7 9,9 24,5 16,-4 26,-1 30,10 7,18 26,10 26,-12 0,-8 -8,-14 -17,-14 -10,0 -37,-9 -61,-20 l -43,-20 7,23 c 14,46 34,90 40,84 3,-3 -2,-19 -11,-36 z M 716,578 c -3,-7 -7,-25 -10,-39 -5,-25 -9,-26 -51,-21 l -45,5 v -36 c 0,-22 6,-37 15,-41 9,-3 15,-19 15,-41 0,-30 3,-35 24,-35 13,0 26,-5 28,-12 5,-14 176,4 187,19 3,5 14,12 24,16 26,10 25,87 -2,87 -15,0 -19,10 -24,46 -2,26 -11,50 -18,55 -22,14 -139,11 -143,-3 z m 122,-51 c 2,-10 -5,-28 -15,-39 -10,-12 -12,-18 -4,-13 9,5 12,3 9,-6 -5,-15 -113,-14 -138,2 -11,8 -10,9 7,4 12,-3 24,-1 28,5 3,6 23,17 43,26 36,15 36,16 17,30 -19,15 -18,15 15,12 24,-2 36,-9 38,-21 z m 2,-106 c 0,-13 -9,-20 -32,-24 -53,-7 -65,4 -27,24 44,23 59,23 59,0 z M 240,289 c 0,-25 26,-48 53,-49 24,0 11,-20 -14,-20 -23,0 -23,-3 -5,-39 16,-30 80,-91 96,-91 5,0 29,-14 53,-31 29,-20 59,-32 93,-35 80,-7 138,-6 166,5 27,10 58,46 58,68 0,16 -42,17 -58,1 -8,-8 -12,-8 -12,-1 0,30 90,56 160,47 40,-5 50,-10 50,-25 0,-23 23,-25 41,-3 7,8 20,13 30,11 11,-3 21,4 27,18 9,19 6,24 -18,38 -35,21 -135,22 -210,3 -30,-8 -79,-17 -107,-21 -51,-7 -53,-8 -53,-37 0,-16 7,-36 16,-45 19,-20 6,-34 -24,-27 -16,5 -22,14 -22,35 0,19 -5,29 -15,29 -10,0 -15,10 -15,30 0,27 -3,30 -30,30 -28,0 -30,2 -30,39 0,35 -3,39 -31,45 -17,3 -50,6 -73,6 -56,0 -86,10 -86,26 0,8 -9,14 -20,14 -14,0 -20,-7 -20,-21 z"
           id="path968" /><path
           d="m 970,215 c 0,-43 12,-44 39,-6 27,38 27,41 -9,41 -28,0 -30,-3 -30,-35 z M 757,93 740,55 767,85 c 15,17 24,22 20,13 -7,-20 -6,-21 17,-12 17,7 22,34 7,34 -5,0 -16,2 -23,5 -9,4 -20,-8 -31,-32 z m 79,10 c -11,-11 -6,-23 9,-23 8,0 15,4 15,9 0,13 -16,22 -24,14 z"
           id="path970" /></g><g
         fill="#292929"
         id="g980"><path
           d="m 640,1260 c 0,-5 -7,-10 -15,-10 -10,0 -15,-10 -15,-31 v -30 l 31,22 c 17,12 56,30 87,40 l 57,18 h -72 c -43,1 -73,-3 -73,-9 z m 266,-68 c 0,-43 3,-82 6,-88 4,-5 2,-16 -3,-24 -8,-13 -10,-13 -19,0 -7,11 -12,12 -21,3 -8,-8 -7,-17 5,-35 9,-14 13,-28 9,-32 -5,-4 1,-14 12,-22 20,-15 20,-15 0,-30 -33,-25 -50,-13 -47,31 l 3,40 -27,-38 c -15,-21 -43,-47 -61,-58 -18,-12 -41,-35 -49,-52 -15,-28 -15,-32 0,-42 20,-15 21,-31 0,-39 -8,-3 -12,-11 -8,-17 5,-8 33,-10 90,-6 46,3 84,2 84,-3 0,-4 3,-16 7,-26 6,-15 1,-16 -43,-11 -106,14 -99,16 -102,-26 l -3,-37 -44,31 c -50,36 -78,95 -54,110 10,6 13,29 11,87 -2,63 1,83 13,96 9,9 21,32 27,52 7,28 14,35 28,31 10,-2 25,4 34,14 9,11 23,19 31,19 8,0 20,9 27,20 14,21 34,28 22,8 -5,-10 -4,-10 6,-1 14,13 25,53 15,53 -3,0 -15,-9 -27,-20 -24,-22 -47,-27 -29,-7 6,8 8,17 4,20 -11,12 -53,7 -53,-5 0,-10 -2,-10 -9,0 -19,30 -101,-21 -122,-76 -5,-13 -11,-78 -13,-145 -3,-67 -10,-137 -17,-155 -6,-18 -9,-47 -6,-65 l 6,-32 -16,35 c -8,19 -21,42 -28,50 -8,9 -12,24 -11,35 2,11 -1,28 -5,37 -6,10 -5,19 1,23 8,5 7,11 -1,21 -9,11 -9,14 1,14 9,0 7,7 -6,21 -16,17 -16,22 -4,30 13,8 13,11 -2,23 -23,17 -23,22 2,29 11,3 20,13 20,22 0,9 -3,15 -7,13 -5,-2 -24,-12 -44,-23 -22,-11 -44,-15 -55,-11 -18,7 -18,8 4,26 30,25 28,30 -10,30 -31,0 -43,-7 -116,-69 -15,-14 -22,-31 -22,-55 0,-33 3,-36 28,-36 16,0 46,9 68,19 l 39,19 7,-46 c 4,-26 12,-48 18,-50 5,-2 10,-10 10,-18 0,-8 5,-14 10,-14 6,0 8,-20 4,-55 -7,-54 -6,-55 18,-55 14,0 31,-7 38,-15 14,-17 75,-20 85,-5 9,15 25,12 25,-5 0,-8 9,-15 20,-15 11,0 20,-6 20,-13 0,-8 9,-22 20,-32 26,-24 25,-27 -10,-48 -23,-14 -30,-25 -30,-48 0,-26 -3,-29 -30,-29 h -31 l 3,-72 3,-72 37,-11 c 20,-5 40,-13 44,-17 4,-5 19,-8 33,-8 39,0 141,23 141,32 0,4 8,8 18,8 10,0 27,7 38,15 10,8 27,15 37,15 9,0 17,6 17,14 0,9 16,15 45,18 65,8 95,31 95,72 0,19 -6,37 -12,39 -10,4 -10,6 0,6 20,1 14,18 -18,51 -16,17 -30,37 -30,45 0,10 -11,15 -35,15 -31,0 -35,-3 -35,-26 0,-17 -6,-28 -20,-31 -22,-6 -36,-58 -26,-98 6,-23 3,-25 -24,-25 -28,0 -30,3 -30,35 0,21 -8,44 -19,56 -12,13 -20,39 -23,69 -3,42 0,50 17,54 34,9 45,7 39,-9 -5,-12 2,-15 29,-15 h 35 l 7,75 c 8,92 21,99 18,10 l -2,-65 h 32 c 57,0 62,9 51,92 -6,40 -7,76 -2,79 5,3 -1,36 -12,73 -19,61 -24,67 -43,62 -12,-3 -27,-6 -34,-6 -6,0 -14,-22 -18,-50 -6,-40 -11,-50 -26,-50 -14,0 -19,-7 -19,-25 0,-16 -6,-25 -15,-25 -9,0 -15,-9 -15,-21 0,-15 -4,-19 -16,-15 -9,3 -33,6 -55,6 -36,0 -39,2 -39,28 0,39 25,59 85,67 89,12 88,11 82,64 -4,37 -1,54 14,77 21,33 25,90 7,97 -10,3 -10,11 0,39 21,59 12,78 -36,78 -15,0 -17,-12 -16,-78 z m 108,-288 c 7,-30 5,-31 -23,-30 -32,1 -42,20 -16,30 8,3 15,18 15,33 1,34 14,15 24,-33 z M 930,780 c 0,-16 -4,-30 -10,-30 -5,0 -10,14 -10,30 0,17 5,30 10,30 6,0 10,-13 10,-30 z m 98,-15 c 0,-39 -2,-43 -15,-30 -12,13 -13,20 -1,45 7,17 13,30 14,30 0,0 1,-20 2,-45 z m -20,-167 c -15,-22 -14,-23 13,-24 20,-1 29,5 33,20 5,18 8,19 16,6 17,-25 11,-39 -22,-57 l -33,-18 28,-3 c 15,-2 27,-9 27,-18 0,-8 -1,-14 -2,-15 -2,0 -24,-3 -50,-6 -52,-5 -66,10 -25,27 21,8 10,15 -20,11 -17,-2 -17,-1 8,65 15,39 24,53 32,45 7,-7 5,-17 -5,-33 z M 830,550 c 11,-7 14,-24 13,-60 -2,-49 -2,-50 22,-44 29,7 35,-13 8,-23 -10,-4 -21,-11 -24,-15 -8,-12 -123,-28 -129,-18 -3,5 -16,10 -30,13 -15,2 -8,5 20,6 47,1 95,25 84,42 -3,5 -27,7 -55,3 -31,-4 -49,-3 -49,4 0,5 -12,13 -26,16 -15,4 -24,9 -21,12 3,3 21,1 41,-4 26,-8 38,-7 43,2 5,6 22,18 38,25 l 30,14 -28,9 c -15,5 -25,14 -21,19 7,12 65,11 84,-1 z"
           id="path974" /><path
           d="m 510,1150 c 0,-5 -6,-10 -14,-10 -8,0 -16,-13 -18,-30 l -4,-29 38,21 c 21,12 46,30 55,40 15,17 14,18 -20,18 -21,0 -37,-4 -37,-10 z M 260,710 c 0,-14 -7,-20 -24,-20 -18,0 -25,-7 -30,-31 -9,-46 -7,-99 3,-99 5,0 7,-9 4,-20 -4,-14 0,-20 10,-20 9,0 19,-5 23,-12 4,-7 3,-8 -4,-4 -13,8 -16,-12 -6,-38 5,-13 10,-13 27,-4 12,6 19,7 15,4 -3,-4 2,-33 13,-63 18,-52 18,-55 1,-42 -29,23 -64,41 -70,35 -10,-11 20,-118 39,-137 10,-10 31,-19 45,-19 16,0 23,-4 18,-11 -3,-6 0,-16 7,-21 11,-8 10,-8 -4,-4 -85,28 -89,12 -15,-53 27,-24 28,-24 48,-6 11,10 34,19 51,20 l 31,3 -31,-19 c -17,-10 -43,-22 -57,-25 -26,-7 -26,-8 -9,-20 11,-8 29,-14 41,-14 12,0 36,-13 53,-29 26,-25 41,-29 112,-35 75,-7 83,-6 101,14 12,13 28,20 39,17 17,-5 49,24 49,44 0,15 -54,1 -67,-17 -13,-17 -14,-16 -7,11 7,28 6,29 -12,15 -19,-14 -19,-14 0,8 11,12 29,22 42,22 12,0 50,7 83,15 55,15 62,15 84,0 23,-14 25,-14 31,0 5,15 10,14 41,-5 l 35,-22 15,36 c 8,20 15,38 15,41 0,3 9,14 19,24 20,20 33,59 47,134 6,33 4,37 -15,37 -17,0 -21,-8 -27,-50 -4,-28 -10,-50 -14,-50 -5,0 -21,-20 -36,-44 l -27,-43 -81,-7 c -83,-7 -170,-20 -241,-38 -22,-5 -50,-12 -62,-15 -18,-4 -23,-1 -23,16 0,12 -6,21 -15,21 -11,0 -15,11 -15,40 0,34 -6,46 -36,73 -20,18 -47,36 -60,40 -13,5 -24,15 -24,22 0,7 -11,27 -25,43 -14,17 -25,34 -25,39 0,5 -6,21 -12,36 -9,19 -21,27 -39,27 -23,0 -27,5 -32,36 -4,25 -2,41 8,51 8,8 15,25 15,39 0,19 5,24 25,24 22,0 25,4 25,35 0,33 -2,35 -35,35 -28,0 -35,-4 -35,-20 z m -20,-61 c -7,-11 -14,-19 -16,-16 -7,7 7,37 17,37 6,0 5,-9 -1,-21 z M 420,230 c 23,-7 22,-8 -10,-9 -19,0 -42,4 -50,9 -12,8 -10,10 10,9 14,-1 36,-5 50,-9 z m 77,-86 c -3,-4 -25,-10 -47,-14 -23,-4 -38,-4 -33,0 14,14 94,27 80,14 z"
           id="path976" /><path
           d="m 330,600 c 0,-38 2,-40 29,-40 49,0 61,9 61,46 0,34 -1,34 -45,34 H 330 Z M 761,99 c -7,-12 -10,-23 -8,-26 3,-3 11,5 17,17 15,28 8,35 -9,9 z"
           id="path978" /></g><g
         fill="#313131"
         id="g992"><path
           d="m 633,1263 c -7,-2 -13,-11 -13,-19 0,-8 -8,-14 -18,-14 -23,0 -42,-19 -42,-42 0,-11 -7,-18 -20,-18 -16,0 -20,-7 -20,-31 0,-36 -1,-37 91,47 40,35 73,56 110,67 l 54,15 h -65 c -36,0 -71,-2 -77,-5 z m 302,-3 c 3,-5 2,-18 -3,-27 -5,-10 -12,-42 -14,-71 -4,-40 -2,-52 8,-48 7,3 1,-16 -13,-45 -23,-44 -25,-52 -13,-75 18,-32 8,-39 -68,-48 -45,-5 -64,-13 -89,-38 -35,-34 -43,-58 -18,-58 22,0 18,-28 -6,-40 -26,-14 -19,-22 23,-26 49,-4 88,6 88,22 0,8 -6,14 -13,14 -9,0 -11,12 -9,40 4,42 3,41 80,54 45,8 62,27 63,73 2,33 3,34 6,8 6,-53 13,-75 23,-75 6,0 10,12 10,28 1,39 17,8 26,-49 7,-40 6,-43 -9,-30 -9,7 -24,11 -32,7 -9,-3 -15,0 -15,8 0,8 6,17 13,19 6,3 -3,6 -20,6 -23,1 -33,-4 -33,-14 0,-10 -10,-15 -30,-15 -24,0 -30,-4 -30,-22 0,-13 -3,-33 -6,-45 -5,-17 -2,-23 9,-23 9,0 20,-8 26,-17 10,-19 15,-12 23,29 6,32 26,4 21,-28 -5,-29 -9,-32 -49,-37 -25,-2 -61,-1 -81,4 -21,4 -41,6 -45,3 -17,-11 -7,-40 23,-65 19,-15 29,-31 25,-37 -11,-19 -23,-14 -66,24 l -40,36 v -45 c 0,-41 -3,-47 -35,-67 -24,-15 -35,-29 -35,-46 0,-17 -6,-24 -20,-24 -18,0 -20,-7 -20,-70 0,-57 3,-70 16,-70 8,0 22,-7 30,-15 9,-8 26,-15 40,-15 13,0 24,-5 24,-11 0,-7 17,-9 53,-5 146,17 145,17 151,39 6,21 7,21 20,5 8,-11 26,-18 45,-18 29,0 31,3 31,34 0,30 4,35 31,41 17,4 42,16 55,28 27,23 33,67 9,67 -8,0 -15,7 -15,15 0,13 -3,13 -20,3 -11,-7 -20,-16 -20,-20 0,-5 9,-8 20,-8 11,0 20,-4 20,-9 0,-15 -24,-28 -63,-35 -33,-6 -39,-4 -44,13 -4,17 -11,19 -61,14 -67,-7 -58,-3 -67,-32 -7,-22 -5,-23 24,-16 43,9 42,-19 -1,-41 -44,-23 -140,-44 -153,-34 -5,4 -25,11 -42,15 -50,10 -47,20 5,17 50,-4 102,11 102,28 0,5 -20,10 -45,10 -25,0 -45,-4 -45,-10 0,-5 -7,-10 -16,-10 -8,0 -12,5 -9,10 4,6 -4,20 -17,31 l -23,20 53,-6 c 32,-4 52,-3 52,3 0,6 12,15 28,20 26,9 26,10 -22,24 l -50,15 32,19 c 18,10 32,22 32,26 0,4 8,8 18,8 20,0 82,-59 82,-78 0,-7 7,-12 15,-12 20,0 21,66 1,77 -18,11 -26,103 -9,103 7,0 13,-4 13,-10 0,-5 16,-10 35,-10 31,0 35,3 35,25 0,16 6,25 15,25 10,0 15,11 15,35 0,19 -4,35 -10,35 -5,0 -10,9 -10,20 0,11 5,20 10,20 6,0 10,-5 10,-10 0,-6 16,-10 35,-8 21,1 35,7 35,15 0,7 7,13 15,13 18,0 19,16 3,78 -11,43 -13,45 -19,22 -6,-20 -7,-18 -7,15 1,72 -20,167 -43,191 -17,18 -20,30 -14,62 5,34 3,42 -14,51 -25,14 -34,14 -26,1 z m -175,-81 c 10,-17 14,-18 27,-8 13,12 13,14 -4,20 -30,12 -34,10 -23,-12 z"
           id="path982" /><path
           d="m 677,1170 c -42,-34 -58,-77 -63,-175 -3,-49 -9,-114 -14,-144 -6,-30 -10,-73 -10,-94 0,-39 0,-40 -20,-22 -11,10 -20,25 -20,34 0,9 -9,27 -20,41 -14,18 -16,28 -8,38 9,10 6,14 -10,19 -12,3 -22,12 -22,19 0,8 -4,14 -9,14 -5,0 -11,9 -14,20 -4,16 0,20 19,20 15,0 24,6 24,16 0,10 -6,14 -14,11 -8,-3 -20,1 -26,9 -10,11 -9,14 4,14 10,0 14,5 11,10 -3,6 -1,10 5,10 6,0 8,4 5,10 -6,10 -139,-33 -164,-54 -12,-9 -12,-8 -2,12 6,12 15,22 19,22 4,0 21,12 37,26 17,14 47,35 68,45 20,11 37,24 37,29 0,16 -67,12 -84,-5 -8,-8 -19,-15 -25,-15 -6,0 -11,-4 -11,-9 0,-5 -9,-11 -21,-14 -11,-3 -23,-15 -26,-26 -3,-12 -11,-21 -18,-21 -19,0 -30,-101 -16,-141 6,-18 11,-49 11,-71 0,-25 5,-41 15,-44 12,-5 15,-26 15,-105 v -99 h 31 c 58,0 69,14 69,85 0,37 -5,65 -11,67 -8,3 -9,22 -3,63 4,33 10,52 12,43 2,-10 10,-18 18,-18 9,0 14,-10 14,-27 0,-33 38,-73 68,-73 12,0 24,-4 27,-10 3,-5 22,-10 41,-10 33,0 34,2 34,36 0,23 -6,42 -17,50 -16,12 -17,13 -1,14 10,0 21,14 28,34 12,38 10,145 -3,153 -4,3 -4,10 1,16 15,20 21,57 9,57 -6,0 4,16 23,35 19,19 41,35 51,35 9,0 22,7 29,15 7,8 21,15 31,15 10,0 21,5 25,12 4,6 3,8 -4,5 -11,-7 -72,23 -72,36 0,14 -27,7 -53,-13 z M 414,922 c -1,-7 -2,-30 -2,-52 -2,-32 -6,-40 -21,-40 -22,0 -31,19 -31,65 0,24 5,35 18,38 24,6 37,2 36,-11 z m 619,-149 c 8,-42 -2,-57 -24,-37 -18,16 -19,16 -19,-18 0,-21 -8,-44 -20,-58 -21,-24 -28,-90 -10,-90 6,0 18,16 27,35 19,41 33,45 33,11 0,-30 19,-44 31,-25 5,8 9,32 9,54 1,22 3,66 6,98 6,54 5,57 -16,57 -19,0 -22,-4 -17,-27 z"
           id="path984" /><path
           d="m 250,686 c 0,-44 -9,-66 -26,-66 -17,0 -17,5 -4,31 6,11 7,19 1,19 -12,0 -21,-25 -21,-61 0,-19 5,-29 15,-29 11,0 12,-5 5,-26 -12,-31 -12,-37 -1,-30 5,3 15,-2 22,-11 10,-12 10,-14 2,-9 -15,9 -17,-12 -3,-34 7,-12 12,-12 22,-2 6,6 15,12 19,12 7,0 22,-40 20,-53 -1,-5 12,-24 29,-43 29,-33 43,-61 18,-36 -20,20 -32,13 -14,-7 10,-11 30,-23 45,-26 32,-7 98,-66 98,-89 0,-19 -42,-22 -96,-6 -37,10 -62,3 -40,-12 9,-5 -4,-6 -34,-2 -38,5 -46,4 -42,-8 3,-7 20,-22 39,-32 32,-17 34,-17 67,3 36,22 64,28 54,11 -3,-5 2,-10 12,-10 10,0 -7,-13 -37,-28 -30,-15 -57,-28 -60,-30 -12,-8 28,-21 51,-17 18,4 31,0 44,-15 10,-11 24,-20 32,-20 7,0 13,-4 13,-10 0,-5 17,-10 37,-10 26,0 45,8 66,28 17,15 26,20 22,12 -5,-8 -17,-21 -27,-28 -24,-18 -14,-32 21,-29 16,1 27,6 24,10 -9,15 30,34 64,31 24,-2 36,3 43,17 9,17 7,19 -16,19 -15,0 -33,-8 -41,-18 -13,-16 -14,-15 -10,5 3,15 1,20 -9,16 -8,-3 -14,-1 -14,4 0,19 36,41 75,46 22,2 80,10 128,17 81,11 90,10 101,-6 16,-21 49,-12 44,13 -3,20 38,93 53,93 5,0 9,14 9,30 0,39 -36,43 -46,5 -3,-14 -10,-25 -15,-25 -5,0 -9,-7 -9,-15 0,-8 -4,-15 -9,-15 -5,0 -11,-9 -14,-19 -4,-17 -17,-20 -103,-24 -55,-3 -135,-12 -179,-22 -44,-9 -88,-16 -98,-16 -25,0 -47,26 -47,55 0,36 -39,106 -59,106 -9,1 -27,7 -41,15 -21,12 -22,14 -6,15 17,0 18,6 11,68 -11,108 -13,112 -50,112 -18,0 -38,-7 -45,-15 -13,-16 -50,-21 -50,-7 0,5 -10,14 -22,20 -21,10 -20,11 15,11 36,1 37,2 37,37 0,23 -6,42 -17,50 -17,13 -17,13 0,14 13,0 17,8 17,35 0,33 -2,35 -35,35 -33,0 -35,-2 -35,-34 z M 506,151 c -10,-16 -76,-51 -76,-39 0,6 -9,8 -22,5 -18,-5 -19,-4 -7,8 8,7 34,18 59,23 25,5 46,10 48,11 2,1 1,-3 -2,-8 z m 124,-32 c -7,-11 -14,-18 -17,-15 -4,3 -14,0 -23,-6 -9,-7 -3,-1 12,15 34,32 43,35 28,6 z M 495,100 C 485,89 472,80 467,80 c -6,0 0,11 13,25 27,29 42,25 15,-5 z m 44,-2 C 526,74 511,60 496,60 c -6,0 3,14 19,30 34,36 40,38 24,8 z m 491,282 c 0,-45 24,-56 34,-16 7,30 -2,56 -20,56 -10,0 -14,-12 -14,-40 z"
           id="path986" /><path
           d="m 260,356 c 0,-17 42,-66 58,-66 21,0 2,-20 -24,-25 -30,-6 -30,-6 -9,-15 25,-11 126,-12 142,-2 21,13 -11,41 -63,52 -28,6 -61,23 -76,37 -16,15 -28,23 -28,19 z"
           id="path988" /><path
           d="m 255,300 c 3,-5 16,-15 28,-21 22,-12 22,-12 3,10 -19,21 -43,30 -31,11 z"
           id="path990" /></g><g
         fill="#3a3a3a"
         id="g1000"><path
           d="m 630,1255 c 0,-8 -9,-15 -20,-15 -13,0 -20,-7 -20,-20 0,-12 -7,-20 -16,-20 -18,0 -44,-23 -44,-39 0,-6 -9,-11 -20,-11 -11,0 -20,-4 -20,-9 0,-5 -11,-12 -25,-15 -18,-5 -25,-13 -25,-31 0,-23 2,-24 27,-14 35,13 87,52 136,102 21,21 57,48 80,59 23,11 32,17 20,15 -13,-3 -26,-1 -29,4 -9,15 -44,10 -44,-6 z m 312,-27 c -1,-23 -8,-48 -14,-55 -8,-10 -7,-13 2,-13 9,0 7,-7 -6,-21 -19,-21 -19,-22 2,-15 21,7 45,-13 57,-46 7,-20 -8,-34 -16,-14 -3,7 -15,16 -26,19 -17,4 -23,-2 -33,-36 -10,-32 -10,-41 0,-45 7,-2 12,-9 12,-17 0,-20 -26,-37 -62,-40 -62,-6 -91,-18 -119,-49 -44,-48 -38,-55 26,-31 l 20,8 -20,-16 c -11,-8 -20,-20 -20,-26 0,-5 -9,-17 -20,-25 -18,-13 -11,-15 78,-18 l 99,-3 -4,33 c -3,21 0,32 9,32 7,0 13,-9 13,-20 0,-11 4,-20 9,-20 5,0 8,-15 6,-32 -2,-30 -6,-34 -46,-41 -24,-5 -60,-9 -79,-10 -39,-2 -55,-31 -22,-41 23,-8 36,-45 21,-62 -12,-14 4,-51 29,-70 10,-7 13,-24 11,-57 -4,-39 -2,-46 11,-41 8,4 27,9 42,11 22,4 29,0 43,-28 l 16,-34 -25,28 c -19,20 -26,23 -26,12 0,-8 -12,-21 -27,-28 -16,-6 -30,-14 -33,-17 -15,-16 -111,-40 -127,-32 -10,5 -38,19 -63,30 l -45,20 40,-5 c 47,-6 107,8 113,25 2,8 -11,12 -43,12 -25,0 -60,8 -78,17 l -32,18 35,3 c 57,4 82,12 77,25 -2,7 -19,14 -37,17 l -34,5 40,26 c 36,24 39,29 37,70 -1,38 -7,49 -40,77 l -38,34 -3,-28 c -2,-16 1,-30 7,-32 6,-2 11,-19 11,-37 0,-27 -10,-44 -45,-79 -36,-37 -45,-53 -45,-81 0,-24 5,-35 15,-35 10,0 15,-10 15,-29 0,-46 10,-61 40,-61 20,0 31,-6 35,-20 9,-28 21,-27 203,6 12,3 22,12 23,22 0,13 3,11 9,-6 7,-17 17,-22 45,-22 33,0 35,2 35,35 0,24 5,35 15,35 8,0 15,5 15,10 0,6 8,14 18,17 60,22 100,123 49,123 -23,0 -47,-17 -47,-32 0,-4 7,-8 15,-8 17,0 20,-26 4,-35 -9,-6 -20,-9 -73,-17 -16,-2 -22,5 -29,40 -8,43 -37,60 -37,22 0,-13 -7,-20 -20,-20 -11,0 -20,7 -20,15 0,8 -6,15 -14,15 -21,0 -27,138 -6,145 11,5 12,8 1,14 -20,13 45,22 75,11 14,-6 39,-10 55,-10 30,0 30,0 14,28 -15,24 -15,30 -1,62 14,32 15,33 16,9 0,-31 7,-39 26,-32 18,7 18,104 -2,158 l -13,40 4,-40 c 4,-30 3,-36 -5,-24 -5,10 -12,57 -15,105 -6,104 -13,144 -25,144 -5,0 -10,21 -12,46 -2,33 -9,50 -23,60 -19,12 -20,11 -23,-28 z m 78,-347 c 0,-19 -3,-21 -14,-12 -11,10 -20,10 -36,1 -31,-17 -33,-8 -5,24 14,16 24,39 24,50 -1,17 -2,18 -6,4 -7,-28 -33,-22 -33,7 0,18 5,25 20,25 14,0 20,7 21,23 1,26 28,-87 29,-122 z m -320,285 c 0,-9 -6,-13 -14,-10 -18,7 -53,-51 -62,-102 -4,-30 -2,-43 10,-53 13,-11 16,-11 16,2 0,9 -5,19 -11,23 -7,4 3,20 25,43 20,21 34,40 31,43 -4,3 0,6 7,5 45,-2 56,3 51,23 -7,25 -12,25 -29,3 -12,-17 -13,-16 -8,3 3,12 1,25 -5,28 -6,4 -11,0 -11,-8 z"
           id="path994" /><path
           d="m 350,1055 c 0,-8 -9,-15 -20,-15 -15,0 -20,-7 -20,-25 0,-14 -7,-28 -15,-31 -10,-4 -15,-20 -15,-46 0,-57 20,-181 32,-195 8,-10 2,-13 -26,-13 -25,0 -36,-4 -36,-15 0,-8 -6,-15 -14,-15 -8,0 -18,-10 -22,-22 -11,-32 -11,-117 0,-111 5,3 7,-6 4,-20 -3,-15 -2,-24 2,-22 4,3 16,-5 26,-16 17,-19 17,-20 0,-13 -14,5 -17,3 -14,-7 3,-8 16,-14 29,-14 29,0 74,-39 64,-54 -3,-6 1,-14 10,-17 26,-10 29,3 6,34 -22,32 -27,47 -12,38 5,-3 20,4 35,15 24,19 26,19 27,2 2,-30 -2,-48 -14,-56 -8,-5 -4,-13 13,-27 24,-18 24,-19 3,-13 -26,6 -43,-21 -25,-39 6,-6 8,-17 5,-24 -3,-8 1,-14 10,-14 9,0 30,-12 49,-27 18,-15 27,-20 19,-10 -7,9 -9,17 -3,17 14,0 52,-75 44,-87 -4,-6 -48,-10 -110,-9 -56,0 -102,-2 -102,-6 0,-4 11,-15 25,-24 23,-15 28,-15 59,0 24,11 47,14 82,9 l 48,-6 -39,-14 c -22,-7 -44,-18 -50,-24 -7,-7 -2,-7 15,-1 14,5 43,12 65,16 l 40,7 -38,-26 c -42,-29 -44,-48 -3,-21 38,25 43,19 11,-14 -16,-16 -26,-32 -23,-35 6,-7 52,34 66,60 11,20 11,20 12,-2 0,-12 -12,-35 -26,-52 L 498,40 h 26 c 19,0 29,9 42,36 16,33 59,72 69,62 6,-6 -36,-91 -49,-100 -7,-5 -6,-8 2,-8 22,0 72,40 72,57 0,10 -6,13 -16,9 -10,-4 -14,-2 -10,6 3,7 9,21 12,30 4,11 23,19 57,23 79,10 127,26 127,43 0,16 -33,14 -160,-8 -108,-19 -129,-13 -130,37 0,12 -6,28 -13,35 -8,7 -18,27 -24,43 -5,18 -18,31 -29,33 -16,2 -19,9 -16,38 2,19 -1,41 -7,48 -7,8 -16,36 -21,63 -4,26 -11,58 -15,71 -6,16 -3,22 9,22 11,0 16,9 16,33 0,21 7,36 20,45 11,7 20,22 21,35 0,12 3,16 6,10 2,-7 14,-13 26,-13 12,0 31,-7 41,-15 11,-8 34,-15 52,-15 h 32 v 80 c 0,44 3,84 7,90 8,13 -4,90 -14,90 -11,0 -33,-107 -35,-167 l -1,-52 -36,35 c -24,23 -38,31 -41,23 -2,-7 -9,-9 -17,-5 -7,5 -9,15 -5,25 4,9 6,26 5,39 0,12 4,22 9,22 6,0 10,4 10,9 0,4 -17,8 -37,7 -33,-1 -38,2 -35,19 2,11 4,32 4,48 1,15 5,27 10,27 4,0 8,4 8,9 0,5 -8,8 -17,7 -13,-1 -17,5 -15,21 l 3,23 -53,-27 c -29,-15 -56,-32 -60,-38 -4,-5 -8,0 -8,12 0,20 72,93 92,93 4,0 8,5 8,10 0,6 -16,10 -35,10 -24,0 -35,-5 -35,-15 z m 60,-140 c 0,-3 -8,-21 -19,-40 -17,-33 -19,-34 -24,-13 -4,14 0,29 11,39 17,17 32,24 32,14 z M 380,716 c 0,-14 -4,-28 -10,-31 -6,-4 -10,7 -10,24 0,17 5,31 10,31 6,0 10,-11 10,-24 z M 250,646 c 0,-15 11,-32 28,-45 15,-11 22,-21 16,-21 -6,0 -17,7 -24,15 -7,8 -23,15 -36,15 -26,0 -30,11 -14,41 15,26 30,24 30,-5 z m 150,-11 c 0,-24 -6,-37 -20,-45 -17,-9 -20,-8 -20,9 0,29 18,71 30,71 5,0 10,-16 10,-35 z m -70,10 c 0,-8 -4,-15 -9,-15 -5,0 -14,7 -21,15 -10,13 -9,15 9,15 12,0 21,-6 21,-15 z m 0,-99 c 0,-17 -27,-28 -51,-21 -34,11 -22,35 16,35 23,0 35,-5 35,-14 z m 650,107 c 0,-35 1,-36 19,-19 21,19 37,7 27,-19 -6,-17 2,-45 14,-45 4,0 10,9 13,21 3,12 10,18 16,14 6,-3 11,-1 11,4 0,6 -4,11 -10,11 -5,0 -10,16 -10,35 0,34 -1,35 -40,35 -39,0 -40,-1 -40,-37 z m 36,-305 c -9,-36 -7,-78 5,-78 11,0 39,60 39,85 0,24 -37,18 -44,-7 z"
           id="path996" /><path
           d="m 291,315 c 15,-15 32,-26 38,-24 5,2 -6,15 -27,28 l -37,23 z m 36,-52 c -32,-8 -6,-23 41,-23 44,1 46,2 28,15 -20,15 -35,17 -69,8 z m 623,-33 c 0,-5 -20,-10 -45,-10 -38,0 -45,-3 -45,-19 0,-16 9,-20 56,-23 53,-3 56,-2 74,30 l 19,32 h -29 c -17,0 -30,-4 -30,-10 z M 360,117 c -22,-9 -23,-11 -6,-14 10,-3 23,0 29,6 16,16 5,20 -23,8 z"
           id="path998" /></g><g
         fill="#424242"
         id="g1008"><path
           d="m 620,1246 c 0,-33 11,-38 36,-17 17,14 18,19 8,29 -22,20 -44,14 -44,-12 z m 338,-6 c 0,-14 0,-36 1,-49 1,-13 -5,-31 -14,-41 -15,-16 -14,-18 9,-24 21,-5 26,-15 35,-64 6,-31 18,-88 26,-127 8,-44 10,-74 4,-80 -13,-13 -11,-35 3,-33 12,3 20,-63 11,-96 -5,-17 -6,-17 -14,-3 -6,9 -17,14 -27,11 -14,-5 -15,-4 -2,5 17,11 19,116 3,132 -10,10 -73,-25 -73,-41 0,-6 7,-13 15,-16 12,-5 13,-10 4,-20 -6,-7 -8,-22 -5,-32 6,-17 0,-21 -38,-26 -25,-4 -48,-11 -51,-17 -4,-5 -17,-6 -31,-3 -18,5 -24,2 -24,-11 0,-11 5,-15 14,-12 10,4 13,1 10,-8 -3,-8 -1,-22 4,-31 7,-12 6,-24 -1,-35 -9,-15 -7,-25 12,-50 15,-19 24,-47 25,-71 0,-30 4,-37 16,-32 43,18 60,13 80,-26 21,-42 26,-75 10,-65 -5,3 -10,14 -10,25 0,21 -29,35 -44,20 -5,-5 -19,-10 -30,-10 -17,0 -18,-2 -6,-10 22,-14 4,-24 -36,-22 -20,2 -41,-1 -48,-6 -22,-18 -64,-23 -69,-8 -3,7 -18,17 -33,20 -15,4 -35,13 -45,19 -14,10 -6,12 43,13 32,0 64,6 70,12 9,9 4,12 -22,12 -34,0 -126,38 -116,48 4,3 23,6 44,6 46,1 50,21 4,21 h -33 l 44,40 c 42,37 44,42 34,70 -7,21 -7,30 2,33 20,7 12,30 -19,52 -24,17 -30,18 -30,6 0,-8 -4,-18 -10,-21 -6,-4 -10,11 -10,37 -1,24 -1,52 -1,63 -1,11 0,25 1,30 5,23 -1,66 -8,61 -5,-3 -17,-35 -26,-70 -14,-51 -16,-72 -8,-96 6,-16 9,-30 7,-30 -3,0 -24,17 -47,38 -24,20 -37,29 -29,19 20,-25 6,-32 -17,-9 -34,34 -44,59 -29,74 6,7 19,22 27,32 14,18 14,19 -7,8 -12,-7 -23,-17 -25,-23 -2,-7 -15,-9 -34,-5 l -31,7 20,40 c 26,53 14,84 -34,87 -19,1 -41,-3 -49,-8 -13,-8 -13,-10 0,-10 10,0 8,-4 -6,-15 -19,-12 -20,-20 -13,-57 4,-24 8,-46 9,-50 0,-3 12,-20 26,-37 21,-26 25,-38 20,-65 -5,-25 -3,-35 9,-40 9,-3 15,-18 15,-36 0,-27 3,-31 23,-28 14,2 23,11 25,26 3,18 10,22 38,22 19,0 34,5 34,10 0,6 7,10 15,10 8,0 15,-4 15,-10 0,-5 15,-10 34,-10 30,0 34,-4 40,-32 5,-28 1,-37 -35,-74 l -41,-42 7,-61 c 5,-42 11,-61 21,-61 8,0 14,-4 14,-10 0,-5 7,-10 16,-10 18,0 44,-23 44,-39 0,-6 18,-11 40,-11 36,0 40,-2 40,-25 0,-20 5,-25 25,-25 17,0 25,-6 25,-16 0,-14 8,-16 55,-11 30,3 59,8 65,12 13,8 13,75 0,75 -5,0 -6,8 -3,17 4,11 8,12 11,5 2,-7 18,-12 37,-12 28,0 33,4 39,30 6,34 36,42 36,10 0,-25 27,-27 32,-2 3,9 1,27 -4,39 -4,14 -4,23 2,23 6,0 10,9 10,19 0,12 7,18 17,17 37,-3 42,84 6,119 -13,14 -17,43 -20,148 -3,73 -9,146 -14,162 -9,30 -9,29 -4,-5 l 4,-35 -16,30 c -12,21 -17,60 -19,129 -2,57 -8,102 -14,106 -6,4 -10,26 -9,49 2,32 -2,47 -19,63 l -22,22 z M 400,801 c 0,-12 -20,-25 -27,-18 -7,7 6,27 18,27 5,0 9,-4 9,-9 z m 50,-90 c 0,-13 -29,-35 -37,-27 -3,3 -1,6 5,6 7,0 12,7 12,15 0,8 5,15 10,15 6,0 10,-4 10,-9 z m 470,-1 c -8,-5 -26,-9 -40,-9 l -25,1 25,8 c 14,4 32,8 40,9 13,1 13,0 0,-9 z m 50,-67 c 0,-7 -9,-13 -20,-13 -15,0 -20,7 -20,25 0,23 2,24 20,13 11,-7 20,-18 20,-25 z m 60,-15 c -3,-49 -1,-58 11,-58 5,0 8,4 5,9 -7,11 18,33 27,24 12,-11 7,-40 -8,-53 -19,-16 -9,-33 16,-27 15,4 17,2 9,-12 -13,-26 -38,-44 -49,-36 -6,3 -19,-3 -29,-13 -19,-19 -20,-19 -35,7 -20,34 -15,87 12,144 27,55 43,61 41,15 z M 913,579 c -4,-38 -2,-53 8,-60 11,-7 8,-9 -8,-9 -19,0 -23,6 -23,28 0,16 -7,37 -15,48 -23,30 -18,44 15,44 h 29 z m -373,581 c 0,-27 2,-29 19,-19 10,7 23,20 30,30 10,17 8,19 -19,19 -27,0 -30,-3 -30,-30 z"
           id="path1002" /><path
           d="m 683,1141 c 1,-12 7,-21 14,-21 17,0 16,15 -1,30 -12,9 -15,8 -13,-9 z m 47,5 c 0,-8 5,-18 10,-21 6,-3 10,1 10,9 0,8 -4,18 -10,21 -5,3 -10,-1 -10,-9 z m -350,-76 c 0,-15 -7,-20 -26,-20 -38,0 -55,-23 -52,-70 1,-25 -3,-44 -11,-49 -10,-6 -11,-25 -6,-75 4,-36 11,-66 16,-66 5,0 9,-13 9,-29 0,-25 -5,-30 -35,-35 -21,-4 -35,-13 -35,-21 0,-8 -4,-15 -10,-15 -5,0 -10,-6 -10,-14 0,-9 7,-12 19,-9 16,4 19,1 15,-15 -4,-13 3,-26 22,-41 15,-12 25,-23 22,-26 -9,-9 -87,30 -92,45 -2,8 -4,-4 -5,-28 -1,-27 3,-41 9,-37 5,3 10,0 10,-8 0,-8 10,-27 22,-43 18,-22 19,-26 6,-21 -12,4 -15,2 -11,-9 6,-16 29,-19 38,-3 4,6 14,8 22,4 9,-3 32,4 51,15 41,24 52,16 52,-37 0,-47 0,-46 18,-66 16,-18 15,-18 -11,-12 -34,9 -37,-15 -4,-38 21,-15 21,-16 2,-17 -17,0 -17,-2 -5,-10 8,-5 24,-10 36,-10 15,0 29,-14 48,-51 14,-28 26,-53 26,-55 0,-2 -21,-4 -47,-5 -42,0 -45,-1 -23,-10 14,-6 35,-8 48,-6 37,7 11,-8 -36,-22 -62,-17 -47,-23 16,-7 52,14 63,11 40,-13 -11,-10 -8,-10 15,0 45,20 53,-6 15,-53 -43,-55 -15,-47 41,11 36,37 57,51 87,56 21,3 64,10 94,16 30,5 91,11 135,13 66,2 81,5 83,19 3,15 -8,17 -90,17 -53,0 -136,-9 -193,-20 l -99,-20 -28,32 c -15,18 -38,54 -50,80 -13,26 -26,48 -30,48 -5,0 -8,9 -8,21 0,11 -9,39 -19,62 -11,23 -22,59 -26,80 -4,20 -11,37 -15,37 -5,0 -11,14 -15,31 -7,30 -7,30 -27,12 -20,-18 -20,-17 -17,22 1,22 -1,59 -5,83 -5,28 -4,47 4,57 9,11 7,16 -8,24 -15,8 -22,29 -31,91 -15,102 -3,132 74,181 30,19 55,37 55,42 0,4 -16,7 -35,7 -28,0 -35,-4 -35,-20 z M 329,627 c -1,-17 -2,-18 -6,-4 -2,9 -12,17 -21,17 -14,0 -15,2 -2,9 19,13 30,4 29,-22 z m -20,-92 c -8,-7 -24,-16 -36,-20 -19,-5 -23,-2 -23,14 0,17 6,21 30,21 17,0 30,5 31,13 0,9 2,8 6,-1 3,-8 -1,-20 -8,-27 z m 607,528 c -4,-9 -4,-35 0,-58 5,-39 4,-43 -23,-53 -15,-6 -47,-14 -71,-17 -45,-7 -102,-47 -102,-71 0,-12 8,-10 40,6 44,22 50,24 50,12 0,-5 -17,-17 -37,-27 -37,-18 -38,-18 -13,-25 25,-8 24,-8 -8,-15 -64,-15 -43,-26 47,-24 74,2 89,5 80,16 -6,7 -28,13 -48,14 -36,1 -36,1 14,15 28,9 59,16 70,17 11,1 24,12 30,24 5,12 14,24 20,26 5,2 -1,2 -13,0 -16,-3 -23,0 -20,9 3,7 17,14 31,16 24,3 27,8 27,40 0,35 -16,68 -46,100 -16,16 -21,15 -28,-5 z m 74,-798 c 0,-43 10,-44 33,-6 22,38 22,41 -8,41 -22,0 -25,-4 -25,-35 z"
           id="path1004" /><path
           d="m 330,253 c 0,-5 16,-8 35,-9 19,0 35,3 35,8 0,4 -16,8 -35,8 -19,0 -35,-3 -35,-7 z m 1,-62 c -31,-5 -33,-7 -17,-20 14,-12 19,-12 34,2 9,8 26,17 37,20 l 20,5 h -20 c -11,-1 -35,-3 -54,-7 z M 498,98 C 483,83 475,70 479,70 c 9,0 56,49 50,53 -2,1 -16,-10 -31,-25 z M 640,81 c -6,-12 -7,-21 -1,-21 10,0 24,30 17,37 -2,3 -9,-5 -16,-16 z"
           id="path1006" /></g><g
         fill="#4a4a4a"
         id="g1016"><path
           d="m 604,1246 c -3,-14 -4,-32 -2,-40 2,-13 7,-12 31,7 20,15 26,27 22,40 -10,26 -44,21 -51,-7 z m 365,2 c 9,-12 9,-18 1,-23 -6,-4 -9,-13 -6,-21 3,-8 1,-25 -5,-38 -9,-20 -8,-27 9,-44 12,-12 22,-40 27,-73 3,-30 13,-82 21,-116 12,-46 13,-67 4,-82 -8,-17 -8,-21 3,-21 11,0 15,-15 15,-55 0,-53 -10,-79 -21,-51 -4,9 -14,12 -27,9 -16,-4 -18,-8 -9,-19 7,-8 10,-17 7,-19 -3,-3 -11,1 -17,9 -15,17 -7,36 15,36 8,0 14,6 14,13 0,6 3,23 7,36 4,17 2,22 -8,19 -7,-2 -16,-15 -20,-29 -7,-22 -7,-22 -8,-2 -1,12 7,35 16,52 22,37 13,47 -27,31 -29,-12 -44,-50 -20,-50 7,0 8,-6 2,-16 -5,-9 -7,-25 -5,-35 4,-14 -4,-19 -42,-25 -34,-5 -49,-12 -52,-25 -3,-11 -9,-19 -13,-19 -4,0 -8,-24 -8,-52 0,-37 6,-60 19,-77 11,-13 19,-38 19,-55 0,-30 1,-31 38,-28 34,3 38,0 55,-33 19,-40 22,-75 7,-75 -5,0 -10,9 -10,20 0,11 -4,20 -9,20 -24,0 -60,-21 -65,-37 -5,-15 -19,-18 -98,-20 -51,0 -85,1 -75,4 12,3 -1,14 -43,35 -62,30 -77,48 -25,28 29,-11 91,-4 101,11 3,5 -7,9 -23,9 -15,0 -43,9 -61,20 -18,11 -40,20 -49,20 -12,0 0,17 35,53 57,57 60,66 36,102 -15,23 -15,24 17,32 l 33,9 -30,27 c -17,16 -36,26 -47,23 -16,-4 -17,2 -12,65 3,46 2,68 -5,64 -5,-3 -10,-14 -10,-24 0,-9 -5,-22 -10,-27 -13,-13 -16,-62 -6,-91 10,-31 -5,-29 -39,5 -19,18 -26,21 -22,10 8,-24 -2,-23 -29,3 l -22,21 -34,-37 c -18,-20 -33,-42 -34,-49 -2,-22 -22,-62 -38,-75 -20,-17 -20,-40 -1,-68 8,-12 16,-34 17,-50 1,-15 10,-43 21,-62 l 18,-33 -28,6 c -27,5 -27,5 4,-11 18,-9 33,-23 33,-30 0,-8 -4,-11 -10,-8 -5,3 -10,2 -10,-4 0,-5 8,-12 18,-15 9,-3 27,-27 40,-54 30,-63 71,-109 102,-114 l 25,-4 -27,-12 c -25,-10 -68,-72 -51,-72 4,0 25,20 47,45 40,44 45,46 141,65 55,11 116,20 136,20 47,0 74,27 90,89 10,41 17,51 34,51 18,0 20,-5 17,-40 -6,-64 19,-47 48,32 9,26 8,28 -15,28 -21,0 -25,5 -25,29 0,22 6,30 25,35 14,4 25,11 25,16 0,6 11,20 25,32 30,26 44,84 24,103 -12,12 -18,10 -38,-10 l -23,-25 h 66 l -29,-30 c -16,-17 -35,-30 -43,-30 -8,0 -23,-10 -33,-22 -14,-16 -19,-17 -19,-6 0,9 -6,21 -13,27 -27,22 -11,117 28,178 19,28 50,21 35,-7 -6,-10 -10,-28 -10,-40 0,-19 1,-20 16,-6 8,9 19,16 23,16 3,0 7,8 8,18 1,9 4,27 8,40 6,19 3,24 -14,29 -25,6 -28,23 -5,23 14,0 15,9 10,63 -8,91 -16,140 -23,147 -3,3 -3,-10 0,-28 4,-18 3,-31 -2,-28 -17,11 -31,93 -27,156 2,40 -2,81 -10,107 -8,22 -12,48 -8,56 3,8 -7,27 -22,43 -14,16 -21,22 -15,12 z M 905,705 c -16,-7 -36,-10 -44,-7 -11,4 -11,7 5,13 10,4 30,8 44,7 24,0 24,0 -5,-13 z M 561,654 c 6,-8 19,-14 28,-14 9,0 22,-10 29,-21 12,-19 10,-25 -22,-58 -34,-35 -36,-41 -36,-103 0,-60 2,-67 22,-74 25,-8 48,-28 48,-43 0,-5 16,-15 35,-22 30,-11 35,-17 35,-46 0,-30 3,-33 30,-33 38,0 39,-18 3,-26 -16,-3 -45,-10 -65,-15 -29,-7 -44,-6 -65,5 -46,25 -51,30 -58,59 -6,21 -4,27 9,27 12,0 16,10 16,35 0,28 -4,35 -20,35 -11,0 -20,5 -20,10 0,6 -11,15 -25,20 -14,5 -25,16 -25,24 0,8 -4,16 -9,18 -5,2 -18,30 -29,63 -18,58 -18,61 0,93 10,18 18,40 18,49 0,37 74,50 101,17 z m 369,-34 c 0,-5 -4,-10 -9,-10 -6,0 -14,-19 -19,-42 -8,-34 -10,-37 -11,-15 -1,17 -7,27 -16,27 -25,0 -18,38 8,43 39,8 47,7 47,-3 z M 860,310 c 0,-5 8,-10 17,-10 24,0 4,-16 -31,-24 -24,-6 -27,-4 -22,9 3,9 6,21 6,26 0,5 7,9 15,9 8,0 15,-4 15,-10 z m -360,840 c 0,-5 -7,-10 -15,-10 -9,0 -15,-9 -15,-25 0,-14 4,-25 8,-25 11,0 92,58 92,65 0,3 -16,5 -35,5 -19,0 -35,-4 -35,-10 z m 180,3 c 0,-15 19,-37 26,-31 3,4 -1,14 -10,23 -9,9 -16,13 -16,8 z M 330,1030 v -30 l 35,22 c 44,29 44,38 0,38 -32,0 -35,-2 -35,-30 z"
           id="path1010" /><path
           d="m 913,1008 c 2,-57 -1,-60 -86,-73 -33,-5 -114,-61 -104,-71 2,-3 39,12 81,31 88,40 107,43 81,15 -10,-11 -26,-20 -37,-20 -10,0 -18,-4 -18,-10 0,-5 -18,-14 -40,-20 -21,-6 -42,-15 -45,-20 -9,-14 77,-13 112,1 15,7 39,12 53,13 16,1 29,9 35,24 5,12 15,22 22,22 31,0 25,101 -9,137 -35,38 -48,30 -45,-29 z M 280,921 c 0,-65 11,-147 25,-182 5,-13 -3,-18 -39,-23 -43,-7 -56,-19 -56,-54 0,-12 3,-13 12,-4 18,18 41,15 34,-4 -3,-9 5,-25 21,-40 14,-13 24,-27 20,-30 -11,-11 -79,21 -88,41 -7,18 -8,17 -8,-7 -1,-15 4,-30 9,-33 6,-3 10,-14 10,-24 0,-10 10,-31 22,-47 21,-26 21,-27 3,-20 -19,7 -19,6 -3,-11 14,-13 20,-14 30,-5 7,7 22,12 33,12 35,0 53,29 54,88 0,45 -3,52 -20,52 -16,0 -19,-7 -19,-50 0,-47 -2,-50 -25,-50 -14,0 -25,5 -25,10 0,6 6,10 14,10 15,0 26,30 26,73 0,15 5,27 10,27 6,0 10,16 10,35 0,19 4,35 9,35 5,0 11,9 14,20 3,11 1,20 -4,20 -21,0 -45,163 -30,203 10,25 9,27 -14,27 -24,0 -25,-2 -25,-69 z"
           id="path1012" /><path
           d="m 366,936 c 3,-9 -4,-16 -21,-20 -19,-5 -24,-10 -17,-19 5,-7 10,-23 10,-37 0,-14 5,-38 11,-54 l 12,-29 16,22 c 12,18 17,20 24,10 4,-8 3,-20 -4,-28 -9,-11 -9,-15 1,-18 6,-3 12,-9 12,-14 0,-6 -4,-8 -9,-5 -5,3 -9,-10 -9,-29 0,-48 13,-44 38,13 13,26 26,55 31,64 13,25 12,28 -13,28 -13,0 -29,4 -37,9 -11,7 -10,13 7,32 18,18 19,25 9,38 -8,10 -9,13 0,8 6,-4 14,-3 18,3 3,5 0,10 -8,10 -8,0 -17,7 -21,15 -3,8 -17,15 -30,15 -17,0 -24,-4 -20,-14 z M 757,810 c -88,-17 -43,-25 68,-12 42,4 46,7 25,13 -31,9 -45,9 -93,-1 z M 650,500 c 20,-13 40,-13 40,0 0,6 -12,10 -27,10 -22,0 -25,-2 -13,-10 z M 942,208 c 4,-31 23,-33 42,-3 16,25 16,25 -14,25 -27,0 -31,-3 -28,-22 z"
           id="path1014" /></g><g
         fill="#525252"
         id="g1024"><path
           d="m 601,1253 c 0,-10 3,-26 7,-35 11,-26 46,3 37,31 -8,26 -45,29 -44,4 z m 378,-16 c 12,-15 11,-17 -3,-17 -13,0 -15,-6 -10,-25 3,-14 1,-31 -5,-39 -9,-10 -8,-15 3,-19 17,-7 33,-60 42,-138 11,-103 17,-67 16,102 0,76 -16,128 -44,145 -9,5 -9,3 1,-9 z m -481,-78 c -10,-5 -18,-17 -18,-24 0,-8 -9,-15 -19,-15 -30,0 -51,-11 -51,-26 0,-8 -10,-14 -25,-14 -20,0 -25,-5 -25,-25 0,-14 2,-25 5,-25 13,0 160,87 188,112 l 32,27 h -35 c -19,0 -43,-4 -52,-10 z m 422,-148 c 0,-28 -4,-53 -10,-56 -5,-3 -10,-15 -10,-26 0,-23 -44,-52 -106,-69 -24,-7 -44,-17 -44,-22 0,-12 102,-3 128,11 12,6 29,11 40,11 11,0 20,6 19,13 -1,33 4,47 18,47 8,0 15,2 15,4 0,2 3,11 6,20 5,12 -1,16 -22,16 -25,1 -26,2 -11,11 21,12 22,52 1,73 -23,23 -24,21 -24,-33 z M 373,938 c 2,-7 -8,-18 -21,-23 l -26,-11 30,-27 c 16,-15 37,-27 48,-27 16,0 18,5 12,38 -3,20 -6,43 -6,50 0,6 -9,12 -21,12 -12,0 -19,-5 -16,-12 z m -72,-20 c -1,-16 -5,-28 -11,-28 -18,0 -10,-81 15,-159 7,-24 6,-24 -38,-18 l -46,6 -12,-55 c -10,-43 -10,-60 -1,-75 7,-10 12,-24 12,-30 0,-6 10,-25 22,-42 19,-26 19,-30 4,-24 -10,4 -15,3 -11,-3 8,-14 45,-13 45,1 0,7 9,9 24,5 15,-4 28,0 36,9 13,16 20,106 8,99 -5,-3 -8,0 -8,5 0,6 -9,11 -19,11 -17,0 -19,5 -14,34 5,32 4,34 -17,29 -16,-4 -21,-3 -16,5 4,7 16,12 27,12 14,0 19,-7 19,-30 0,-24 4,-30 20,-30 19,0 20,4 14,53 -4,28 -11,61 -17,72 -5,11 -16,56 -23,100 -6,44 -12,68 -13,53 z M 260,653 c 0,-9 10,-27 22,-40 29,-31 17,-39 -32,-23 -44,15 -53,40 -24,71 18,21 34,16 34,-8 z"
           id="path1018" /><path
           d="m 805,923 c -36,-19 -87,-59 -65,-50 71,26 119,51 114,58 -7,12 -14,11 -49,-8 z m 222,-50 c -3,-15 0,-31 5,-34 6,-4 8,-20 5,-37 -4,-18 -2,-32 4,-34 7,-2 6,-13 -1,-33 -10,-26 -13,-28 -23,-15 -7,9 -20,14 -30,12 -17,-3 -17,-5 -2,-22 15,-16 15,-21 0,-51 -8,-19 -13,-26 -10,-16 3,10 -2,33 -9,52 -12,27 -12,36 -2,44 7,6 16,8 19,5 4,-4 11,5 17,20 14,39 13,51 -5,36 -8,-7 -15,-19 -15,-26 0,-8 -5,-14 -10,-14 -13,0 -2,47 18,78 8,12 12,25 8,29 -3,3 -6,1 -6,-6 0,-8 -6,-11 -16,-7 -19,7 -44,-10 -44,-31 0,-9 6,-13 15,-9 13,5 14,2 3,-17 -7,-12 -11,-29 -10,-38 2,-13 -9,-19 -44,-25 -54,-10 -96,-52 -76,-76 6,-8 10,-28 10,-46 -1,-18 6,-40 15,-50 10,-10 17,-26 17,-34 0,-32 12,-48 36,-48 18,0 25,7 30,28 9,42 36,114 41,109 2,-3 -3,-22 -11,-42 -17,-40 -22,-115 -7,-115 5,0 12,-16 15,-36 4,-19 10,-42 13,-50 3,-8 -1,-14 -11,-14 -10,0 -16,9 -16,25 0,16 -6,25 -15,25 -8,0 -15,-4 -15,-10 0,-5 -6,-7 -14,-4 -20,8 -26,-8 -19,-49 3,-23 11,-37 20,-37 28,0 7,-24 -33,-37 l -39,-13 38,5 c 20,2 37,2 37,0 0,-2 -12,-16 -27,-29 -33,-31 -25,-42 37,-48 40,-4 48,-2 67,23 37,44 39,59 9,59 -21,0 -26,-5 -26,-25 0,-16 -6,-25 -15,-25 -9,0 -15,9 -15,25 0,14 4,25 9,25 5,0 11,9 14,21 3,11 15,23 26,26 16,4 21,13 21,39 0,19 5,34 10,34 6,0 10,7 10,15 0,8 6,15 14,15 8,0 18,9 21,20 3,11 11,20 16,20 5,0 9,7 9,15 0,20 -3,19 -52,-14 l -43,-29 -17,26 c -23,35 -23,69 2,136 23,60 42,81 65,72 15,-5 15,-8 1,-28 -21,-30 -20,-41 4,-35 41,11 48,-48 8,-67 -7,-4 2,-4 21,-1 19,3 36,7 39,9 5,6 -17,47 -35,65 -8,7 -12,20 -9,27 3,8 9,21 12,29 3,8 2,15 -3,15 -5,0 -8,33 -7,73 1,58 -3,79 -21,110 l -22,38 z M 936,721 c -10,-15 -62,-29 -77,-21 -13,9 -12,9 56,23 11,3 21,5 23,6 2,0 1,-3 -2,-8 z m -6,-53 c 0,-7 -5,-20 -10,-28 -8,-13 -10,-12 -10,4 0,15 -5,17 -30,13 -40,-9 -38,0 3,12 44,13 47,13 47,-1 z m -27,-68 c -4,-16 -8,-18 -19,-9 -20,16 -17,29 5,29 14,0 18,-5 14,-20 z M 345,838 c 11,-49 33,-63 27,-17 -1,4 8,5 18,2 20,-5 29,-43 10,-43 -5,0 -10,-4 -10,-10 0,-5 7,-10 15,-10 8,0 15,-7 15,-15 0,-8 5,-15 10,-15 6,0 10,6 10,14 0,8 3,22 7,32 5,13 3,15 -7,9 -8,-5 -11,-3 -8,6 3,8 13,13 23,11 10,-2 14,1 10,7 -3,6 -14,11 -24,11 -24,0 -81,29 -81,41 0,5 -5,9 -11,9 -7,0 -8,-12 -4,-32 z m 271,-33 c -20,-31 -21,-84 0,-113 12,-18 13,-22 1,-22 -8,0 -22,9 -32,20 -11,13 -25,18 -37,14 -10,-3 -18,-1 -18,5 0,6 -12,11 -28,11 -29,0 -86,-45 -77,-60 6,-10 -10,-44 -37,-75 -15,-18 -16,-24 -4,-46 7,-14 21,-51 31,-82 10,-32 22,-57 26,-57 5,0 9,-7 9,-15 0,-9 12,-20 26,-26 26,-9 26,-10 8,-24 -18,-13 -18,-15 11,-73 24,-48 39,-66 77,-86 l 46,-26 81,19 c 94,23 102,27 94,46 -3,9 0,22 7,30 17,20 10,26 -34,28 -44,2 -48,24 -6,40 17,6 30,15 30,19 0,7 -33,13 -54,9 -20,-4 -56,10 -56,22 0,6 -21,24 -48,39 l -47,27 68,-6 c 47,-4 67,-3 67,6 0,6 -8,11 -17,11 -14,0 -76,26 -112,47 -2,2 17,25 42,52 26,28 47,54 47,59 0,5 -9,21 -20,35 -24,30 -25,37 -5,37 8,0 15,7 15,15 0,13 4,14 23,4 14,-8 7,5 -22,35 -35,39 -42,53 -39,77 5,35 5,35 -16,4 z M 587,572 c -27,-28 -32,-41 -35,-96 -4,-61 -3,-66 29,-100 17,-20 38,-36 46,-36 7,0 13,-4 13,-10 0,-5 11,-12 25,-16 24,-6 26,-10 23,-53 -3,-42 -5,-46 -33,-52 -43,-8 -95,18 -95,48 0,13 5,23 10,23 6,0 10,15 10,33 0,25 -8,37 -36,57 -65,47 -72,56 -92,114 -16,48 -18,64 -9,94 23,76 75,95 139,52 l 36,-25 z m 138,228 c -8,-12 61,-12 90,0 15,6 6,9 -32,9 -28,1 -55,-3 -58,-9 z M 400,726 c 0,-8 5,-18 10,-21 6,-3 10,1 10,9 0,8 -4,18 -10,21 -5,3 -10,-1 -10,-9 z"
           id="path1020" /><path
           d="m 1020,345 c 0,-39 14,-46 30,-16 16,31 12,51 -10,51 -16,0 -20,-7 -20,-35 z M 574,122 c -15,-9 -37,-52 -27,-51 11,0 57,59 46,59 -4,0 -13,-4 -19,-8 z"
           id="path1022" /></g><g
         fill="#5a5a5a"
         id="g1032"><path
           d="m 44,1272 c 4,-7 14,-12 22,-12 24,0 93,-39 106,-60 20,-31 28,-24 28,25 v 45 h -64 c -35,0 -72,3 -82,7 -12,4 -15,3 -10,-5 z m 503,-35 c -20,-17 -37,-36 -37,-42 0,-5 -14,-24 -30,-42 -17,-18 -30,-37 -30,-42 0,-6 -13,-11 -30,-11 -20,0 -30,-5 -30,-15 0,-9 -9,-15 -25,-15 -20,0 -25,-5 -25,-25 0,-20 -5,-25 -24,-25 -26,0 -36,-16 -36,-61 0,-40 23,-37 39,6 13,37 46,66 127,112 121,68 199,136 192,169 -6,32 -49,27 -91,-9 z m 424,8 c 21,-26 31,-55 19,-55 -10,0 -6,-54 9,-120 5,-25 11,-65 12,-90 l 2,-45 6,45 c 3,25 5,80 4,122 -2,78 -17,123 -50,149 -17,13 -17,13 -2,-6 z m -44,-207 c -6,-18 -2,-64 6,-60 4,1 11,2 16,2 4,0 7,10 6,23 -1,12 -3,28 -4,35 0,6 -5,12 -10,12 -5,0 -11,-6 -14,-12 z m -2,-87 c -11,-5 -21,-13 -21,-20 -1,-6 -2,-16 -3,-21 0,-6 -21,-19 -46,-30 -25,-11 -45,-24 -45,-29 0,-15 18,-23 25,-12 3,6 12,8 19,5 8,-3 17,-1 21,5 3,6 20,11 36,11 18,0 32,6 36,17 4,9 15,25 25,35 38,38 10,61 -47,39 z M 386,929 c 18,-20 18,-22 1,-34 -9,-6 -17,-17 -17,-23 0,-12 29,-24 41,-16 12,7 0,76 -15,86 -22,15 -29,7 -10,-13 z m 421,-8 c -44,-28 -45,-34 -3,-17 21,9 40,16 42,16 2,0 4,5 4,10 0,14 -10,12 -43,-9 z m 221,-50 c -2,-16 -1,-28 3,-26 13,9 17,-99 4,-124 -12,-24 -13,-24 -19,-3 -4,12 -13,19 -21,16 -10,-4 -11,-11 -4,-28 8,-17 3,-38 -20,-98 -31,-75 -39,-132 -22,-142 4,-3 11,21 14,53 3,37 16,79 34,114 29,55 31,56 47,38 17,-18 17,-21 -1,-47 -17,-27 -17,-27 4,-22 32,8 51,-17 34,-44 -16,-25 -9,-33 18,-18 18,9 20,14 10,33 -7,12 -18,28 -26,36 -8,7 -11,21 -7,30 17,40 15,59 -7,80 -19,17 -20,21 -6,21 26,0 22,69 -7,120 l -23,42 z m -744,-64 7,-64 -32,-9 c -26,-8 -34,-17 -45,-54 -17,-56 -17,-72 -1,-41 13,27 73,64 91,58 6,-3 -1,-10 -16,-17 -31,-14 -33,-22 -18,-51 14,-25 30,-24 30,1 0,13 7,20 19,20 26,0 35,55 18,106 -8,21 -17,56 -21,77 -5,24 -12,37 -23,37 -13,0 -14,-10 -9,-63 z m 57,52 c 0,-8 4,-23 8,-33 6,-16 9,-17 13,-5 3,8 0,23 -8,34 -10,13 -14,14 -13,4 z m 609,-9 c -27,-27 -26,-43 3,-35 22,7 47,32 47,47 0,15 -30,8 -50,-12 z m -186,-5 c -18,-14 -18,-14 9,-15 17,0 27,5 27,15 0,19 -11,19 -36,0 z M 418,770 c 5,-52 21,-52 19,0 -1,22 -7,40 -12,40 -6,0 -9,-17 -7,-40 z m 317,30 c -7,-12 32,-12 60,0 16,7 13,9 -17,9 -20,1 -40,-3 -43,-9 z"
           id="path1026" /><path
           d="m 946,794 c -3,-9 -6,-24 -6,-34 0,-14 -10,-21 -37,-26 -48,-8 -79,-27 -86,-53 -5,-22 13,-34 34,-20 8,5 25,8 39,8 20,-1 16,-4 -15,-13 -46,-15 -52,-31 -32,-78 9,-18 18,-45 21,-59 6,-26 41,-45 51,-28 3,5 8,24 10,44 3,20 14,54 26,77 15,29 19,50 14,74 -3,19 -7,34 -9,34 -2,0 -23,-7 -46,-15 -23,-8 -47,-12 -52,-9 -13,8 11,24 37,24 11,0 33,7 49,15 15,8 31,13 36,10 8,-5 33,45 26,52 -3,3 -11,-4 -18,-16 -18,-29 -32,-26 -24,4 7,27 -8,35 -18,9 z M 606,784 c -12,-31 -6,-71 14,-89 20,-18 21,-18 34,0 12,17 16,18 32,5 11,-8 2,3 -18,23 -21,21 -38,47 -38,57 0,24 -15,26 -24,4 z M 490,710 c 0,-5 5,-10 10,-10 6,0 10,-5 10,-12 0,-6 -7,-4 -18,5 -23,21 -32,21 -32,3 0,-8 -5,-18 -12,-22 -7,-5 -8,-3 -3,6 5,9 4,11 -4,6 -6,-4 -9,-12 -5,-17 3,-5 1,-15 -4,-22 -5,-7 -17,-36 -27,-65 -13,-40 -14,-57 -6,-65 6,-6 11,-18 11,-27 0,-27 50,-119 68,-125 9,-3 31,-17 47,-32 27,-23 27,-24 4,-10 -24,14 -29,14 -45,1 -18,-14 -18,-15 6,-8 22,6 23,5 11,-10 -12,-14 -11,-16 7,-16 18,0 20,-5 16,-33 -6,-40 0,-49 54,-76 29,-15 50,-20 65,-15 12,4 29,7 38,5 14,-2 79,66 79,83 0,3 -9,6 -20,6 -15,0 -20,7 -20,28 0,15 5,33 12,40 9,9 7,12 -13,12 -31,0 -102,47 -93,62 4,6 3,8 -3,5 -6,-4 -18,2 -28,13 -17,19 -17,19 16,10 48,-14 69,-13 63,4 -6,16 -47,36 -75,36 -28,0 -17,35 27,80 19,20 34,45 34,56 0,23 -75,81 -130,101 -42,15 -40,15 -40,3 z m 75,-79 c 34,-30 32,-51 -6,-51 -13,0 -17,-15 -23,-81 l -7,-81 33,-34 c 18,-19 36,-34 40,-34 16,0 58,-49 58,-67 0,-30 -44,-66 -70,-58 -20,6 -21,11 -15,71 l 7,64 -31,6 c -17,4 -31,12 -31,20 0,7 -8,15 -17,18 -17,6 -45,62 -58,116 -6,27 17,93 43,123 21,24 39,21 77,-12 z M 320,605 c 0,-40 24,-49 34,-12 10,37 7,47 -14,47 -16,0 -20,-7 -20,-35 z m -120,0 c 0,-3 14,-30 31,-61 23,-44 26,-55 13,-50 -14,5 -15,4 -4,-9 14,-17 30,-11 30,13 0,10 3,13 8,7 8,-12 43,-12 61,-1 19,12 13,46 -9,46 -11,0 -20,7 -20,15 0,10 -10,15 -27,15 -16,0 -40,7 -55,14 -16,8 -28,13 -28,11 z m 850,-140 c -7,-8 -19,-15 -27,-15 -7,0 -16,-7 -20,-16 -5,-14 -8,-13 -18,6 -17,31 -27,10 -15,-31 12,-42 13,-62 1,-55 -9,6 -28,-14 -48,-51 -7,-13 -13,-43 -13,-68 0,-42 2,-45 26,-45 24,0 26,3 21,28 -4,21 -1,31 14,40 10,7 19,21 19,32 0,11 5,20 10,20 6,0 10,20 10,45 0,31 4,45 14,45 7,0 25,18 40,40 18,28 22,40 12,40 -7,0 -19,-7 -26,-15 z"
           id="path1028" /><path
           d="m 925,400 c -3,-5 -15,-10 -26,-10 -16,0 -18,-5 -13,-27 9,-40 18,-46 36,-26 21,23 34,73 20,73 -6,0 -14,-4 -17,-10 z M 568,113 c -29,-34 -30,-48 -2,-21 15,15 26,30 23,33 -3,3 -13,-3 -21,-12 z"
           id="path1030" /></g><g
         fill="#636363"
         id="g1038"><path
           d="m 167,1228 c 17,-50 44,-98 55,-98 12,0 10,98 -2,121 -7,12 -21,19 -39,19 h -29 z m 203,17 c 0,-14 4,-25 8,-25 5,0 7,-25 4,-55 -3,-37 -1,-55 7,-55 6,0 11,-13 11,-29 v -30 l 47,27 c 49,27 92,68 93,88 0,7 16,24 35,38 19,15 35,36 35,47 0,18 -8,19 -120,19 H 370 Z m 634,-63 c -15,-9 -28,-52 -16,-52 5,0 13,-34 17,-76 4,-41 8,-74 11,-72 2,2 5,31 8,63 5,76 -5,147 -20,137 z m -77,-154 c -5,-18 3,-48 14,-48 5,0 9,14 9,30 0,30 -15,41 -23,18 z m 6,-75 c -22,-4 -33,-33 -13,-33 6,0 10,-4 10,-10 0,-5 -9,-10 -19,-10 -11,0 -22,-4 -26,-9 -3,-5 -19,-12 -35,-16 -34,-7 -47,-22 -32,-37 6,-6 12,-6 16,1 4,5 13,8 20,5 8,-3 17,-1 21,5 3,6 20,11 36,11 19,0 32,6 36,18 4,9 12,22 19,27 7,6 14,19 16,30 3,20 -11,26 -49,18 z m 103,-93 c 3,-25 7,-59 10,-76 2,-18 -1,-43 -7,-57 -10,-21 -8,-29 10,-48 25,-27 26,-35 6,-43 -22,-8 -19,-35 3,-29 21,5 24,23 22,123 -1,57 -7,87 -25,125 l -24,50 z m -649,23 c -11,-11 -8,-20 8,-20 8,0 15,6 15,14 0,14 -12,17 -23,6 z M 260,817 c 0,-50 -4,-66 -20,-80 -23,-20 -26,-37 -5,-37 10,0 6,-8 -10,-25 -14,-13 -25,-29 -25,-36 0,-6 9,0 21,15 11,14 26,26 34,26 7,0 18,7 25,15 7,8 16,12 21,9 16,-10 9,-22 -17,-28 -20,-5 -24,-11 -18,-29 3,-12 16,-32 27,-44 l 20,-23 h -32 c -18,0 -41,5 -52,10 -25,14 -24,8 6,-51 13,-27 20,-49 14,-49 -6,0 -7,-5 -4,-10 4,-7 18,-4 38,9 18,11 36,19 42,19 5,0 14,7 20,16 7,12 6,19 -5,26 -11,7 -12,12 -4,18 20,13 26,70 14,127 -6,30 -16,55 -21,55 -5,0 -8,8 -7,18 3,37 -2,63 -12,57 -6,-4 -10,7 -10,24 0,24 -4,31 -20,31 -18,0 -20,-7 -20,-63 z m 697,35 c -23,-25 -21,-35 6,-26 21,7 37,21 37,37 0,14 -27,7 -43,-11 z m -5,-54 c -14,-14 -16,-44 -3,-52 5,-3 11,9 14,27 6,38 4,40 -11,25 z M 610,778 c 0,-7 -3,-22 -6,-34 -3,-13 1,-28 11,-38 16,-16 18,-16 29,0 10,13 9,23 -3,50 -16,34 -31,44 -31,22 z m 387,-44 c -3,-4 -4,-17 -1,-28 3,-12 -8,-55 -25,-98 -32,-78 -39,-122 -22,-133 6,-3 9,11 8,32 0,24 11,64 32,110 26,56 31,77 24,98 -4,14 -12,23 -16,19 z m -87,-31 c -27,-12 -39,-12 -54,-3 -15,9 -20,9 -27,-2 -20,-31 -10,-39 44,-33 l 52,5 -40,-13 c -43,-13 -55,-37 -34,-63 7,-9 15,-34 18,-57 5,-34 10,-43 29,-45 20,-3 22,1 22,45 0,31 7,59 20,78 20,29 27,90 13,98 -5,2 -24,-2 -43,-10 z m -447,-6 c 3,-9 0,-20 -7,-26 -7,-6 -21,-32 -31,-57 -36,-94 -1,-210 79,-261 29,-18 44,-33 40,-43 -3,-8 -8,-33 -11,-56 -5,-39 -3,-43 25,-58 17,-9 42,-16 55,-16 40,0 106,85 91,118 -4,9 -6,22 -5,29 1,6 -7,14 -17,17 -10,4 -43,29 -73,56 -44,41 -49,49 -26,40 44,-16 50,-12 21,15 -32,30 -42,95 -14,95 17,0 60,40 60,56 0,17 -94,89 -112,86 -10,-2 -18,2 -18,7 0,6 -4,11 -10,11 -5,0 -6,-8 -3,-17 7,-17 5,-16 -22,1 -23,15 -27,16 -22,3 z m 59,-69 c 2,-14 12,-24 28,-28 23,-6 22,-7 -12,-14 -37,-7 -38,-8 -38,-51 0,-37 3,-45 19,-45 16,0 18,-6 13,-45 -4,-37 -2,-45 12,-45 9,0 16,-4 16,-10 0,-5 9,-10 20,-10 13,0 20,-7 20,-18 0,-10 3,-22 7,-26 4,-4 6,-25 4,-46 -2,-27 2,-40 10,-40 10,0 10,-3 2,-11 -7,-7 -19,-9 -27,-6 -13,5 -15,17 -10,62 6,52 5,55 -15,55 -12,0 -21,6 -21,15 0,10 -10,15 -30,15 -25,0 -30,4 -30,25 0,14 -6,25 -14,25 -21,0 -31,127 -11,150 8,9 15,29 15,43 0,35 37,39 42,5 z m 560,-69 c -7,-12 -11,-23 -8,-26 8,-9 36,17 36,33 0,20 -13,17 -28,-7 z m -51,-109 c -41,-30 -41,-30 -50,-9 -4,14 -10,18 -14,12 -4,-6 -3,-23 3,-38 13,-34 13,-75 0,-75 -5,0 -10,-9 -10,-19 0,-11 -8,-26 -18,-33 -25,-18 -33,-44 -22,-73 14,-36 50,-34 51,3 0,15 3,21 6,15 8,-20 17,-15 38,19 13,22 15,33 7,36 -7,2 -11,20 -11,40 1,24 3,29 6,15 6,-33 30,-28 38,8 5,22 3,34 -6,40 -10,6 -11,11 -3,17 10,6 37,72 30,72 -2,0 -22,-14 -45,-30 z"
           id="path1034" /><path
           d="m 913,396 c -24,-11 -27,-27 -14,-60 7,-17 8,-17 22,5 35,54 32,74 -8,55 z"
           id="path1036" /></g><g
         fill="#6b6b6b"
         id="g1042"><path
           d="m 185,1228 c 8,-24 19,-64 26,-90 7,-28 17,-48 25,-48 18,0 19,86 2,141 -9,33 -15,39 -39,39 h -28 z m 142,35 c -13,-12 -7,-81 7,-86 7,-3 16,-18 18,-34 3,-15 8,-35 12,-43 4,-10 -4,-21 -24,-32 -25,-14 -30,-23 -30,-54 v -36 l 40,36 c 22,20 44,36 49,36 16,0 91,82 91,100 0,10 -7,24 -16,31 -14,11 -18,10 -30,-6 -8,-10 -14,-22 -14,-27 0,-4 -4,-8 -10,-8 -19,0 -10,30 20,63 31,36 39,54 18,41 -8,-5 -9,-2 -5,9 7,19 -17,24 -28,7 -3,-5 -11,-10 -16,-10 -6,0 -7,5 -4,10 7,11 -67,14 -78,3 z m 163,-3 c 0,-6 8,-10 18,-8 11,2 16,-3 14,-14 -3,-22 25,-24 51,-4 31,24 20,36 -33,36 -28,0 -50,-5 -50,-10 z m 507,-97 c -12,-11 -8,-35 4,-27 7,4 9,0 5,-13 -8,-25 8,-72 18,-55 9,14 -3,102 -13,102 -4,0 -11,-3 -14,-7 z m -65,-153 c 1,-16 6,-30 10,-30 4,0 8,14 8,30 0,17 -5,30 -10,30 -6,0 -9,-13 -8,-30 z M 245,948 c 4,-24 13,-64 20,-90 14,-56 8,-107 -14,-116 -34,-12 -42,-47 -8,-37 19,6 18,3 -8,-19 l -30,-26 30,12 c 17,6 37,18 47,26 12,10 18,10 23,2 8,-13 -11,-30 -32,-30 -7,0 -13,-2 -13,-5 0,-8 23,-48 39,-67 8,-10 10,-18 5,-19 -26,-3 -71,4 -81,13 -9,7 -13,7 -13,0 0,-6 5,-14 10,-17 6,-3 10,-14 10,-24 0,-10 9,-26 20,-36 20,-18 18,-41 -2,-29 -7,4 -8,2 -4,-5 6,-9 17,-5 42,14 19,14 34,21 34,14 0,-8 4,-8 16,2 10,8 14,22 11,38 -3,14 -1,36 5,50 15,40 -9,141 -33,141 -16,0 -17,3 -8,24 7,15 9,39 4,63 -4,21 -7,59 -6,86 2,37 -1,47 -13,47 -9,0 -16,7 -16,15 0,9 -9,15 -21,15 -19,0 -20,-4 -14,-42 z m 35,-403 c 20,-24 6,-28 -15,-5 -10,11 -13,20 -8,20 6,0 16,-7 23,-15 z m 657,404 c -14,-8 -16,-14 -6,-25 9,-12 2,-18 -39,-37 -40,-17 -49,-25 -42,-36 7,-12 11,-13 24,-1 9,7 26,14 39,15 36,4 37,4 37,20 0,8 5,15 11,15 7,0 9,10 7,25 -3,13 0,26 6,29 6,2 4,5 -4,5 -8,0 -23,-4 -33,-10 z M 816,863 c -11,-11 -6,-23 9,-23 8,0 15,4 15,9 0,13 -16,22 -24,14 z m 144,-8 c -7,-9 -10,-19 -6,-22 8,-9 38,9 44,25 5,17 -23,15 -38,-3 z m 80,-9 c 0,-16 6,-26 14,-26 9,0 12,7 9,20 -8,31 -23,34 -23,6 z m -275,0 c -18,-13 -17,-13 8,-13 16,0 27,5 27,13 0,8 -4,14 -8,14 -5,0 -17,-6 -27,-14 z m 180,-67 c -4,-12 -2,-26 4,-32 8,-8 11,-2 11,21 0,37 -6,41 -15,11 z M 610,751 c 0,-35 2,-38 24,-34 l 24,5 -20,34 c -11,19 -22,34 -24,34 -2,0 -4,-17 -4,-39 z m 390,-16 c -1,-5 -3,-26 -4,-45 -1,-19 -10,-52 -19,-72 -26,-57 -12,-46 19,16 22,45 25,58 16,82 -6,16 -11,25 -12,19 z m 40,-15 c -8,-14 -8,-20 0,-20 6,0 15,-12 21,-27 8,-22 7,-30 -5,-39 -9,-6 -16,-17 -16,-24 0,-9 3,-10 13,-1 8,6 16,9 18,6 3,-2 6,4 7,13 1,9 4,34 8,56 5,27 3,41 -7,47 -21,13 -27,11 -39,-11 z M 910,702 c -27,-11 -39,-11 -54,-2 -15,9 -20,9 -27,-2 -20,-30 -10,-37 49,-32 l 57,4 -47,-15 c -51,-17 -58,-28 -31,-57 9,-10 16,-33 15,-52 -1,-31 21,-66 33,-54 3,3 7,28 9,56 3,28 12,62 21,75 9,15 15,40 13,60 l -3,34 z M 454,668 c -9,-9 -13,-21 -10,-27 4,-6 -3,-23 -14,-39 -20,-27 -20,-33 -9,-98 15,-87 32,-118 90,-155 l 46,-29 -10,-46 c -10,-43 -9,-48 12,-65 43,-35 96,-17 126,42 l 16,29 h -33 c -30,1 -31,2 -15,14 14,11 15,16 6,22 -9,5 -8,9 4,13 13,5 4,17 -42,56 -62,52 -75,71 -41,60 23,-7 28,10 5,19 -8,3 -15,17 -15,31 0,18 -5,25 -20,25 -34,0 -23,29 14,36 19,3 45,17 58,31 l 23,24 -44,37 c -35,29 -52,36 -88,37 -30,0 -49,-5 -59,-17 z M 950,551 c -13,-25 -13,-71 0,-71 5,0 9,15 8,33 -1,19 2,39 6,45 4,7 5,12 2,12 -3,0 -10,-9 -16,-19 z m 125,-1 c -17,-18 -17,-20 -1,-20 9,0 19,7 23,15 9,25 -2,27 -22,5 z m -38,-98 c -17,-11 -27,-26 -28,-42 -1,-22 -3,-20 -20,15 l -19,40 6,-66 c 7,-69 0,-94 -39,-136 -18,-20 -19,-26 -7,-48 24,-44 48,-29 95,60 22,42 24,51 11,53 -17,4 -22,22 -6,22 6,0 10,16 10,35 0,19 4,35 9,35 10,0 26,38 19,45 -2,2 -16,-4 -31,-13 z M 928,398 c -5,-11 -13,-15 -23,-12 -13,5 -15,1 -9,-22 4,-16 8,-31 10,-32 7,-9 35,49 32,65 -3,17 -4,17 -10,1 z"
           id="path1040" /></g><g
         fill="#737373"
         id="g1048"><path
           d="m 196,1233 c 9,-20 23,-89 31,-153 8,-63 21,-130 29,-149 8,-18 14,-62 14,-97 0,-62 1,-64 25,-64 26,0 26,0 18,63 -4,34 -7,77 -6,95 2,45 37,98 83,123 23,13 43,34 49,51 9,26 9,28 -14,22 -25,-6 -45,17 -45,55 0,11 -8,25 -17,31 -17,10 -16,12 5,26 35,25 26,34 -33,34 -37,0 -55,-4 -55,-12 0,-7 12,-43 26,-79 20,-51 25,-76 20,-104 -10,-52 -30,-39 -38,26 -3,30 -15,79 -25,109 -18,49 -23,55 -51,58 l -31,3 z m 804,-79 c -9,-10 -10,-15 -2,-10 9,5 12,-9 13,-61 1,-65 2,-66 10,-27 5,22 6,57 2,78 -8,36 -9,37 -23,20 z M 941,951 c -8,-5 -11,-16 -7,-29 4,-13 1,-22 -9,-26 -8,-3 -15,-12 -15,-21 0,-17 9,-19 30,-5 13,9 13,10 0,10 -11,0 -9,4 5,12 25,14 35,28 35,51 0,18 -17,22 -39,8 z m -98,-83 c -34,-11 -45,-28 -18,-28 8,0 15,4 15,10 0,5 6,7 13,4 7,-2 21,2 32,10 24,18 7,19 -42,4 z m 123,-13 c -11,-8 -17,-18 -13,-21 10,-11 37,4 37,21 0,18 0,18 -24,0 z m 77,-67 c 1,-49 5,-88 8,-88 4,0 10,-11 13,-25 12,-46 25,-16 22,48 -2,35 -12,82 -24,107 l -20,45 z m -263,57 c 0,-8 5,-15 10,-15 6,0 10,7 10,15 0,8 -4,15 -10,15 -5,0 -10,-7 -10,-15 z M 255,735 c -16,-13 -26,-24 -21,-25 10,0 76,39 76,46 0,12 -28,1 -55,-21 z m 745,0 c -1,-5 -3,-26 -4,-45 -1,-19 -6,-44 -10,-55 -4,-11 2,-5 14,13 19,28 21,38 12,65 -5,18 -11,28 -12,22 z M 288,719 c -25,-10 -47,-39 -29,-39 5,0 11,7 15,15 3,8 12,15 21,15 22,0 18,-31 -5,-37 -16,-4 -18,-11 -13,-32 3,-14 12,-32 20,-39 21,-22 15,-32 -17,-25 -19,3 -30,1 -30,-6 0,-6 6,-11 14,-11 8,0 17,-7 20,-16 11,-30 6,-33 -19,-10 -14,13 -25,28 -25,35 0,6 -4,11 -9,11 -14,0 0,-48 20,-66 16,-14 17,-20 6,-33 -11,-14 -10,-15 8,-1 11,8 30,23 43,34 16,14 22,16 22,6 0,-9 3,-10 9,-5 12,13 17,120 7,173 -8,44 -14,47 -58,31 z m 544,-21 c -7,-7 -12,-15 -12,-20 0,-11 119,-8 126,4 12,19 -12,28 -44,17 -23,-8 -36,-8 -45,0 -10,8 -17,7 -25,-1 z m 41,-49 c -39,-11 -41,-26 -8,-57 19,-19 23,-28 15,-42 -12,-22 -3,-50 15,-50 10,0 14,15 13,49 0,27 5,58 11,69 23,42 14,48 -46,31 z M 536,605 c -7,-19 -64,-29 -82,-14 -26,22 -35,-3 -28,-79 8,-87 28,-123 91,-162 26,-17 48,-36 48,-43 0,-6 9,-28 19,-47 17,-31 20,-33 26,-15 4,11 3,28 -2,38 -5,9 -6,22 -3,27 3,5 -10,24 -30,42 -44,38 -86,119 -77,150 8,32 32,55 65,63 15,4 27,11 27,16 v 17 c -1,14 -48,20 -54,7 z m 421,-35 c -8,-22 -13,-40 -11,-40 7,0 36,71 31,76 -2,2 -11,-14 -20,-36 z m 118,-20 c -15,-17 -16,-20 -3,-20 9,0 19,7 22,16 10,25 1,27 -19,4 z"
           id="path1044" /><path
           d="m 529,504 c -12,-14 -11,-16 5,-13 11,2 21,10 24,17 5,17 -13,15 -29,-4 z m 411,2 c 0,-8 5,-18 10,-21 6,-3 10,3 10,14 0,12 -4,21 -10,21 -5,0 -10,-6 -10,-14 z m 103,-56 c -12,-10 -24,-16 -27,-13 -3,4 -6,-9 -7,-28 v -34 l -19,40 c -22,47 -24,39 -10,-36 9,-49 8,-62 -11,-103 -15,-34 -18,-51 -10,-59 25,-25 92,89 96,163 1,25 5,53 10,63 11,26 1,30 -22,7 z"
           id="path1046" /></g><g
         fill="#7b7b7b"
         id="g1054"><path
           d="m 230,1185 c 24,-70 31,-117 41,-251 11,-141 15,-164 28,-162 10,2 15,12 13,28 -1,14 -3,57 -5,95 -2,68 -1,72 41,133 37,54 42,65 29,75 -8,7 -17,26 -20,42 -3,17 -15,51 -26,78 l -20,47 H 201 Z m 781,-59 c -1,-26 2,-37 9,-30 6,6 6,21 1,39 -9,30 -9,30 -10,-9 z M 939,943 c -1,-5 -1,-15 0,-24 1,-9 -5,-19 -14,-22 -13,-6 -23,-37 -11,-37 16,0 36,14 36,25 0,7 7,15 15,19 23,8 19,46 -5,46 -11,0 -21,-3 -21,-7 z m 26,-93 c -17,-18 -17,-20 -1,-20 9,0 19,7 23,15 9,25 -2,27 -22,5 z m 75,-18 c 0,-17 5,-42 11,-55 7,-17 8,-31 2,-42 -7,-12 -6,-26 4,-46 34,-69 51,3 22,93 -25,76 -39,94 -39,50 z M 269,739 c -19,-16 -20,-18 -4,-10 34,17 51,31 39,31 -7,0 -22,-9 -35,-21 z m 43,-16 c -6,-2 -10,-9 -6,-14 10,-17 -6,-48 -23,-42 -12,5 -14,1 -8,-18 4,-13 14,-31 21,-40 21,-23 17,-42 -6,-36 -24,6 -37,-8 -15,-17 8,-3 15,-15 15,-27 v -22 l -25,23 c -28,27 -36,8 -9,-21 16,-18 18,-18 44,1 15,11 30,17 33,13 4,-3 9,2 13,11 4,11 -2,29 -16,48 -21,29 -21,31 -6,78 23,69 21,77 -12,63 z m 686,2 c -8,-8 2,-45 13,-45 10,0 10,8 0,33 -3,10 -9,15 -13,12 z M 835,700 c -3,-5 -3,-14 0,-20 8,-13 98,-5 103,10 3,9 -5,11 -32,6 -23,-4 -43,-3 -51,4 -9,8 -15,8 -20,0 z"
           id="path1050" /><path
           d="m 333,664 c -3,-8 -1,-29 5,-47 10,-32 10,-31 11,16 1,48 -5,60 -16,31 z m 522,-28 c -18,-13 -18,-14 1,-24 21,-11 54,5 54,27 0,15 -32,14 -55,-3 z m 192,-13 c -13,-12 -7,-25 6,-14 8,6 18,7 22,3 5,-4 5,-1 1,6 -8,13 -19,16 -29,5 z M 442,490 c -2,-68 -1,-70 34,-105 36,-37 82,-61 93,-49 3,3 -6,15 -22,26 -41,30 -79,116 -68,155 7,25 6,33 -6,37 -27,11 -29,7 -31,-64 z m 504,54 c -9,-22 -7,-44 2,-44 5,0 9,14 9,30 0,34 -2,37 -11,14 z m 124,1 c -10,-12 -10,-15 3,-15 8,0 17,7 21,15 3,8 2,15 -3,15 -5,0 -14,-7 -21,-15 z M 882,526 c 1,-10 8,-17 13,-17 15,1 12,24 -3,29 -9,3 -13,-2 -10,-12 z m 150,-78 c -20,-10 -22,-16 -17,-52 6,-34 5,-39 -6,-28 -8,7 -19,30 -26,50 l -12,37 7,-40 c 9,-51 8,-111 -2,-152 -7,-27 -5,-33 7,-33 19,0 64,90 72,145 3,22 8,50 11,63 5,24 0,26 -34,10 z"
           id="path1052" /></g><g
         fill="#848484"
         id="g1058"><path
           d="m 948,953 c -22,-6 -23,-17 -2,-38 14,-13 19,-14 25,-3 11,16 12,48 2,47 -5,-1 -16,-3 -25,-6 z m -26,-62 c -11,-7 -10,-10 3,-15 23,-9 25,-8 25,9 0,17 -9,19 -28,6 z m 49,-35 c -16,-19 -11,-29 8,-17 7,5 12,14 9,21 -3,9 -8,7 -17,-4 z m 69,-35 c 0,-17 5,-33 11,-37 6,-4 9,-20 6,-38 -5,-29 10,-66 27,-66 12,0 6,64 -11,117 -20,59 -33,68 -33,24 z M 286,804 c -9,-23 -8,-24 13,-24 14,0 18,5 14,20 -6,24 -19,26 -27,4 z m 24,-115 c 0,-26 -3,-29 -20,-24 -24,8 -26,-7 -5,-25 20,-17 32,-5 40,43 5,24 4,37 -4,37 -6,0 -11,-14 -11,-31 z m 690,-4 c 0,-15 4,-24 10,-20 6,3 10,12 10,20 0,8 -4,17 -10,20 -6,4 -10,-5 -10,-20 z m -170,7 c 0,-15 30,-23 48,-12 16,9 16,9 0,10 -9,0 -23,3 -32,6 -9,3 -16,2 -16,-4 z M 276,562 c 6,-4 15,-15 20,-24 8,-14 12,-15 28,-3 25,18 12,35 -27,35 -18,0 -27,-4 -21,-8 z m -26,-41 c 5,-11 15,-23 20,-26 14,-9 12,19 -2,33 -19,19 -30,14 -18,-7 z m 690,-10 c 0,-12 5,-21 10,-21 6,0 10,6 10,14 0,8 -4,18 -10,21 -5,3 -10,-3 -10,-14 z m 92,-69 c -20,-16 -21,-21 -11,-50 9,-27 8,-37 -6,-58 -14,-21 -15,-28 -4,-35 20,-12 26,-4 37,48 26,120 25,126 -16,95 z"
           id="path1056" /></g><g
         fill="#8c8c8c"
         id="g1062"><path
           d="m 936,941 c -3,-4 4,-17 16,-27 19,-17 21,-17 15,-1 -4,9 -2,17 3,17 6,0 10,5 10,10 0,12 -37,13 -44,1 z m -9,-47 c -8,-8 1,-24 14,-24 5,0 9,7 9,15 0,15 -12,20 -23,9 z m 113,-71 c 1,-20 27,-59 35,-52 7,7 -18,69 -27,69 -4,0 -8,-8 -8,-17 z m 20,-97 c 0,-8 5,-27 11,-43 l 12,-28 7,25 c 14,44 11,60 -10,60 -11,0 -20,-6 -20,-14 z m -59,-31 c 0,-31 2,-36 9,-23 6,10 7,25 1,40 -9,20 -10,18 -10,-17 z M 277,654 c 3,-8 11,-14 19,-14 21,0 17,17 -5,23 -14,3 -18,1 -14,-9 z M 250,535 c 0,-18 19,-40 26,-32 4,4 0,15 -9,24 -9,10 -17,13 -17,8 z m 787,-101 c -14,-19 -16,-28 -7,-39 8,-10 7,-22 -4,-49 -13,-30 -13,-36 -1,-36 15,0 21,14 30,75 4,22 9,48 12,58 6,25 -9,20 -30,-9 z"
           id="path1060" /></g><g
         fill="#949494"
         id="g1066"><path
           d="m 935,941 c -10,-17 9,-20 30,-5 18,14 18,14 -2,14 -12,0 -24,-4 -28,-9 z m -12,-48 c -7,-2 -13,-12 -13,-20 0,-10 6,-13 16,-9 9,3 18,6 20,6 2,0 4,7 4,15 0,15 -6,17 -27,8 z m 132,-100 c 12,-97 17,-123 25,-123 5,0 11,13 15,29 4,20 -2,44 -20,82 l -26,54 z m -4,-351 c -6,-12 -11,-32 -11,-46 0,-13 -5,-37 -10,-52 -10,-26 -7,-44 6,-31 7,7 34,140 29,145 -2,2 -8,-5 -14,-16 z"
           id="path1064" /></g><g
         fill="#9c9c9c"
         id="g1070"><path
           d="m 935,940 c -3,-5 1,-10 9,-10 8,0 18,5 21,10 3,6 -1,10 -9,10 -8,0 -18,-4 -21,-10 z m 128,-182 c 12,-88 21,-106 31,-61 6,27 -16,103 -30,103 -4,0 -4,-19 -1,-42 z"
           id="path1068" /></g><g
         fill="#a5a5a5"
         id="g1074"><path
           d="m 928,892 c -19,-4 -24,-17 -10,-26 11,-7 35,10 31,21 -2,5 -12,7 -21,5 z m 132,-119 c 0,-10 6,-38 14,-63 l 13,-45 7,32 c 5,21 2,42 -9,62 -18,35 -25,39 -25,14 z"
           id="path1072" /></g><g
         fill="#adadad"
         id="g1078"><path
           d="m 910,881 c 0,-18 18,-21 30,-6 10,13 9,15 -9,15 -11,0 -21,-4 -21,-9 z m 150,-108 c 0,-5 6,-28 14,-53 12,-40 14,-42 20,-22 8,25 -10,82 -25,82 -5,0 -9,-3 -9,-7 z"
           id="path1076" /></g><g
         fill="#b5b5b5"
         id="g1082"><path
           d="m 915,881 c -10,-17 12,-21 25,-6 10,12 10,15 -3,15 -9,0 -18,-4 -22,-9 z m 155,-140 c 0,-20 17,-37 27,-28 7,8 -7,47 -18,47 -5,0 -9,-9 -9,-19 z"
           id="path1080" /></g><path
         fill="#bdbdbd"
         d="m 1070,758 c 0,-15 5,-30 11,-33 19,-12 21,2 5,32 l -15,28 z"
         id="path1084" /><path
         fill="#c5c5c5"
         d="m 1070,760 c 0,-21 16,-44 23,-33 4,6 0,19 -8,29 -11,15 -14,16 -15,4 z"
         id="path1086" /></g></g></svg>
