<?xml version="1.0" encoding="UTF-8" standalone="no"?>
<!-- Created with Inkscape (http://www.inkscape.org/) -->

<svg
   width="20mm"
   height="20mm"
   viewBox="0 0 20 20"
   version="1.1"
   id="svg5"
   sodipodi:docname="peder8.svg"
   inkscape:version="1.2.1 (9c6d41e410, 2022-07-14)"
   inkscape:export-filename="..\Downloads\new me.png"
   inkscape:export-xdpi="314.95999"
   inkscape:export-ydpi="314.95999"
   xml:space="preserve"
   xmlns:inkscape="http://www.inkscape.org/namespaces/inkscape"
   xmlns:sodipodi="http://sodipodi.sourceforge.net/DTD/sodipodi-0.dtd"
   xmlns:xlink="http://www.w3.org/1999/xlink"
   xmlns="http://www.w3.org/2000/svg"
   xmlns:svg="http://www.w3.org/2000/svg"><sodipodi:namedview
     id="namedview7"
     pagecolor="#ffffff"
     bordercolor="#000000"
     borderopacity="0.25"
     inkscape:showpageshadow="2"
     inkscape:pageopacity="0.0"
     inkscape:pagecheckerboard="0"
     inkscape:deskcolor="#d1d1d1"
     inkscape:document-units="mm"
     showgrid="false"
     inkscape:zoom="8.0751594"
     inkscape:cx="-8.7304778"
     inkscape:cy="39.689619"
     inkscape:window-width="1920"
     inkscape:window-height="1001"
     inkscape:window-x="-9"
     inkscape:window-y="-9"
     inkscape:window-maximized="1"
     inkscape:current-layer="layer1" /><defs
     id="defs2"><inkscape:path-effect
       effect="bspline"
       id="path-effect2997"
       is_visible="true"
       lpeversion="1"
       weight="33.333333"
       steps="2"
       helper_size="0"
       apply_no_weight="true"
       apply_with_weight="true"
       only_selected="false" /><inkscape:path-effect
       effect="bspline"
       id="path-effect2993"
       is_visible="true"
       lpeversion="1"
       weight="33.333333"
       steps="2"
       helper_size="0"
       apply_no_weight="true"
       apply_with_weight="true"
       only_selected="false" /><inkscape:path-effect
       effect="bspline"
       id="path-effect745"
       is_visible="true"
       lpeversion="1"
       weight="33.333333"
       steps="2"
       helper_size="0"
       apply_no_weight="true"
       apply_with_weight="true"
       only_selected="false" /><inkscape:path-effect
       effect="bspline"
       id="path-effect741"
       is_visible="true"
       lpeversion="1"
       weight="33.333333"
       steps="2"
       helper_size="0"
       apply_no_weight="true"
       apply_with_weight="true"
       only_selected="false" /><inkscape:path-effect
       effect="bspline"
       id="path-effect629"
       is_visible="true"
       lpeversion="1"
       weight="33.333333"
       steps="2"
       helper_size="0"
       apply_no_weight="true"
       apply_with_weight="true"
       only_selected="false" /><inkscape:path-effect
       effect="bspline"
       id="path-effect625"
       is_visible="true"
       lpeversion="1"
       weight="33.333333"
       steps="2"
       helper_size="0"
       apply_no_weight="true"
       apply_with_weight="true"
       only_selected="false" /><inkscape:path-effect
       effect="bspline"
       id="path-effect621"
       is_visible="true"
       lpeversion="1"
       weight="33.333333"
       steps="2"
       helper_size="0"
       apply_no_weight="true"
       apply_with_weight="true"
       only_selected="false" /><inkscape:path-effect
       effect="bspline"
       id="path-effect617"
       is_visible="true"
       lpeversion="1"
       weight="33.333333"
       steps="2"
       helper_size="0"
       apply_no_weight="true"
       apply_with_weight="true"
       only_selected="false" /><inkscape:path-effect
       effect="bspline"
       id="path-effect613"
       is_visible="true"
       lpeversion="1"
       weight="33.333333"
       steps="2"
       helper_size="0"
       apply_no_weight="true"
       apply_with_weight="true"
       only_selected="false" /><inkscape:path-effect
       effect="bspline"
       id="path-effect555"
       is_visible="true"
       lpeversion="1"
       weight="33.333333"
       steps="2"
       helper_size="0"
       apply_no_weight="true"
       apply_with_weight="true"
       only_selected="false" /><inkscape:path-effect
       effect="bspline"
       id="path-effect551"
       is_visible="true"
       lpeversion="1"
       weight="33.333333"
       steps="2"
       helper_size="0"
       apply_no_weight="true"
       apply_with_weight="true"
       only_selected="false" /><inkscape:path-effect
       effect="bspline"
       id="path-effect547"
       is_visible="true"
       lpeversion="1"
       weight="33.333333"
       steps="2"
       helper_size="0"
       apply_no_weight="true"
       apply_with_weight="true"
       only_selected="false" /><inkscape:path-effect
       effect="bspline"
       id="path-effect388"
       is_visible="true"
       lpeversion="1"
       weight="33.333333"
       steps="2"
       helper_size="0"
       apply_no_weight="true"
       apply_with_weight="true"
       only_selected="false" /><inkscape:path-effect
       effect="bspline"
       id="path-effect384"
       is_visible="true"
       lpeversion="1"
       weight="33.333333"
       steps="2"
       helper_size="0"
       apply_no_weight="true"
       apply_with_weight="true"
       only_selected="false" /><inkscape:path-effect
       effect="bspline"
       id="path-effect326"
       is_visible="true"
       lpeversion="1"
       weight="33.333333"
       steps="2"
       helper_size="0"
       apply_no_weight="true"
       apply_with_weight="true"
       only_selected="false" /><inkscape:path-effect
       effect="bspline"
       id="path-effect322"
       is_visible="true"
       lpeversion="1"
       weight="33.333333"
       steps="2"
       helper_size="0"
       apply_no_weight="true"
       apply_with_weight="true"
       only_selected="false" /></defs><g
     inkscape:label="Layer 1"
     inkscape:groupmode="layer"
     id="layer1"
     style="display:inline"><path
       style="fill:#000000;stroke-width:0.0203671"
       d="m 10.665369,2.6794043 c 0.95513,0.5566144 2.865364,1.6698285 3.984384,4.2705398 1.119021,2.6007112 1.446841,6.6887829 1.044517,9.0973299 -0.402323,2.408546 -1.534754,3.137498 -3.269195,3.44298 -1.73444,0.305482 -4.0707867,0.187479 -5.6974133,-1.930459 C 5.1010351,15.441858 4.1842284,11.324125 4.2072062,8.4060289 4.2301839,5.4879329 5.1929332,3.7696381 6.2667646,2.9223852 7.3405961,2.0751324 8.5254161,2.0989596 9.1178274,2.1108732 c 0.5924113,0.011914 0.5924113,0.011917 1.5475416,0.5685311 z"
       id="path324"
       inkscape:original-d="m 9.7102387,2.1227899 c 1.9102573,1.1132331 3.8204913,2.2264486 5.7307023,3.3396413 0.327706,4.0882343 0.655684,8.1762938 0.983477,12.2644108 -1.132457,0.729 -2.264886,1.457955 -3.397364,2.186901 C 10.690634,19.795754 8.3542877,19.677744 6.0178719,19.559726 5.1010522,15.441854 4.1842459,11.324121 3.2673992,7.2062909 4.2302095,5.4879472 5.1929588,3.7696524 6.1557046,2.0513038 c 1.1848911,0.023848 2.3697111,0.047674 3.5545341,0.071483 z"
       inkscape:path-effect="#path-effect326" /><path
       style="fill:#ffffff;stroke-width:0.0288995"
       d="m 9.5009082,10.080765 c -1.4544784,0.07354 -2.9317736,1.006442 -2.9868543,2.692018 -0.055081,1.685577 1.3119858,4.123687 2.9391989,5.087055 1.6272132,0.963368 3.5144632,0.452004 4.2853682,-0.84063 0.770905,-1.292635 0.425456,-3.366489 -0.463087,-4.796348 -0.888543,-1.429859 -2.320147,-2.215635 -3.7746258,-2.142095 z"
       id="path386"
       inkscape:original-d="M 9.5237157,9.2214117 C 8.0464517,10.154341 6.5691576,11.087243 5.0918299,12.020113 6.458984,14.458354 7.8260522,16.896463 9.1931157,19.334597 11.080476,18.823243 12.967725,18.311876 14.854983,17.800474 14.509551,15.726569 14.164105,13.652714 13.818616,11.578789 12.386985,10.793013 10.955381,10.007235 9.5237157,9.2214117 Z"
       inkscape:path-effect="#path-effect388" /><path
       style="fill:#ffffff;stroke-width:0.0256865"
       d="M 6.9377734,3.7750059 C 6.6644569,4.0686806 6.1178231,4.6560308 6.1548837,5.1781051 6.1919442,5.7001795 6.812645,6.156938 7.4156001,6.1781457 8.0185553,6.1993534 8.603759,5.7850455 8.5667242,5.2629985 8.5296894,4.7409514 7.8704073,4.1111617 7.540747,3.7962484 7.2110867,3.4813351 7.2110899,3.4813312 6.9377734,3.7750059 Z"
       id="path549"
       inkscape:original-d="M 7.2110899,3.4813312 C 6.6644855,4.0687072 6.1178524,4.656058 5.5711892,5.2433811 6.1919444,5.7001792 6.8126435,6.15694 7.4333242,6.6136806 8.0185767,6.1993836 8.6037807,5.7850762 9.1889657,5.3707356 8.5296907,4.74095 7.8704094,4.1111595 7.2110867,3.4813351 Z"
       inkscape:path-effect="#path-effect551" /><path
       style="fill:#ffffff;stroke-width:0.0312488"
       d="M 10.177365,4.3311901 C 9.5732426,4.1743565 9.1822505,4.5030389 9.2603727,5.0123498 9.3384949,5.5216607 9.8856819,6.2115321 10.489784,6.3683243 11.093886,6.5251166 11.754889,6.1488722 11.67679,5.6395994 11.59869,5.1303267 10.781488,4.4880236 10.177365,4.3311901 Z"
       id="path553"
       inkscape:original-d="m 9.9642307,3.8456775 c -0.390958,0.3287149 -0.781948,0.6573997 -1.172975,0.986046 0.547238,0.6899381 1.094429,1.3798063 1.6415943,2.0696562 0.661058,-0.3762242 1.322061,-0.752469 1.983041,-1.1287513 -0.8172,-0.6423025 -1.634404,-1.2846037 -2.4516603,-1.9269509 z"
       inkscape:path-effect="#path-effect555" /><path
       style="fill:#ff6600;stroke-width:0.0379748"
       d="M 7.4111364,6.1776313 C 7.7008921,5.3599408 9.8977004,5.4793668 10.706319,6.3567736 11.514938,7.2341805 10.935451,8.869488 9.8370538,8.8097704 8.7386567,8.7500528 7.1213808,6.9953219 7.4111364,6.1776313 Z"
       id="path611"
       inkscape:original-d="m 5.5040318,5.2405119 c 2.196859,0.1194519 4.3936669,0.2388855 6.5904232,0.358278 -0.579462,1.63541 -1.158948,3.270718 -1.738497,4.9060211 C 8.7386657,8.7500445 7.1213907,6.9953128 5.5040318,5.2405119 Z"
       inkscape:path-effect="#path-effect613" /><path
       style="fill:#000000;stroke-width:0.0210563"
       d="m 7.2118244,5.0148024 c -0.034472,0.056122 -0.1034074,0.1683505 -0.090574,0.2643647 0.012833,0.096014 0.1073897,0.1757718 0.2209273,0.1893137 0.1135376,0.013542 0.2460525,-0.039124 0.2797341,-0.10481 C 7.6555935,5.297985 7.5904333,5.2192438 7.5113695,5.1495778 7.4323057,5.0799117 7.3393168,5.0193111 7.292807,4.9890007 c -0.04651,-0.03031 -0.04651,-0.03032 -0.080983,0.025802 z"
       id="path615"
       inkscape:original-d="M 7.2462966,4.9586805 C 7.1773776,5.0709399 7.1084507,5.1831736 7.0394804,5.2953839 7.1341264,5.375131 7.2285969,5.4549902 7.3231917,5.5346924 7.4557266,5.4820508 7.5882401,5.4293811 7.7207293,5.3766967 7.6556414,5.2979454 7.5904307,5.219246 7.5252657,5.1404936 7.4323452,5.0798511 7.3393213,5.0193041 7.2462972,4.9586904 Z"
       inkscape:path-effect="#path-effect617" /><path
       style="fill:#000000;stroke-width:0.0210563"
       d="m 10.22874,5.2643273 c 0.08335,0.00293 0.250021,0.0088 0.336512,0.050081 0.08649,0.04128 0.09282,0.1179375 0.05875,0.1788347 -0.03407,0.060897 -0.108538,0.1060456 -0.195033,0.064802 -0.0865,-0.041243 -0.185026,-0.1689367 -0.234299,-0.2327939 -0.04927,-0.063857 -0.04928,-0.063859 0.03407,-0.060925 z"
       id="path619"
       inkscape:original-d="m 10.145389,5.2613931 c 0.166701,0.00589 0.333371,0.011758 0.500021,0.017602 0.0064,0.076688 0.01269,0.1533488 0.01899,0.2299906 -0.07446,0.045179 -0.148923,0.090329 -0.223432,0.1354696 -0.09849,-0.1276591 -0.197022,-0.2553509 -0.295574,-0.3830606 z"
       inkscape:path-effect="#path-effect621" /><path
       style="fill:#ff6600;stroke-width:0.0298244"
       d="m 6.7425738,17.834827 c 0.7267421,0.01048 2.1801954,0.03143 2.9375564,0.41305 0.7573608,0.381621 0.8186538,1.123842 0.1163514,1.484247 C 9.0941793,20.092529 7.6283079,20.071136 6.8709198,19.689548 6.1135316,19.30796 6.0646834,18.56618 6.0402575,18.195263 6.0158316,17.824346 6.0158316,17.82435 6.7425738,17.834827 Z"
       id="path623"
       inkscape:original-d="m 6.0158316,17.82435 c 1.4534838,0.02099 2.9069371,0.04194 4.3603614,0.06286 0.06132,0.742286 0.122617,1.484507 0.183882,2.226712 C 9.0941787,20.092572 7.6283077,20.071152 6.16238,20.049742 6.113501,19.307962 6.064715,18.566178 6.0158316,17.824346 Z"
       inkscape:path-effect="#path-effect625" /><path
       style="fill:#ff6600;stroke-width:0.0246244"
       d="m 12.549451,18.100347 c 0.653529,-0.0014 1.960557,-0.0043 2.656605,0.319491 0.696049,0.323791 0.781132,0.974186 0.173189,1.337556 -0.607942,0.363369 -1.908875,0.439725 -2.604943,0.115952 -0.696068,-0.323772 -0.787221,-1.047673 -0.832799,-1.409642 -0.04558,-0.361969 -0.04558,-0.361924 0.607948,-0.363357 z"
       id="path627"
       inkscape:original-d="m 11.895923,18.10178 c 1.307057,-0.0028 2.614085,-0.0057 3.921092,-0.0086 0.08511,0.650446 0.170183,1.300843 0.255254,1.951226 -1.300965,0.07638 -2.601897,0.15274 -3.902882,0.229071 -0.09114,-0.723905 -0.1823,-1.447805 -0.273463,-2.171742 z"
       inkscape:path-effect="#path-effect629" /><path
       style="fill:#000000;stroke-width:0.027885"
       d="M 4.2976842,8.5352394 C 3.8063278,8.4119693 3.2895769,11.98262 3.522583,13.891207 3.7555891,15.799793 4.7382721,16.046321 4.9966285,14.26097 5.2549849,12.475619 4.7890405,8.6585095 4.2976842,8.5352394 Z"
       id="path739"
       inkscape:original-d="M 4.3230828,4.8412907 C 3.8063608,8.4119741 3.2896085,11.982625 2.7728296,15.553246 c 0.9827532,0.246572 1.9654365,0.493099 2.948114,0.7396 C 5.2550052,12.475617 4.7890645,8.6585066 4.3230828,4.8412907 Z"
       inkscape:path-effect="#path-effect741" /><path
       style="fill:#000000;stroke-width:0.0367225"
       d="m 14.597912,7.6081044 c 0.172968,1.7156933 0.518899,5.1470426 1.161986,6.8724366 0.643088,1.725395 1.583237,1.744871 1.41024,0.02918 C 16.997141,12.794037 15.711061,9.3432854 15.067999,7.6178522 14.424937,5.892419 14.424945,5.8924111 14.597912,7.6081044 Z"
       id="path743"
       inkscape:original-d="m 14.424945,5.8924111 c 0.345991,3.4313809 0.691922,6.8627299 1.037793,10.2940469 0.940246,0.01956 1.880396,0.03899 2.820521,0.05843 C 16.997175,12.794024 15.711093,9.3432733 14.424937,5.892419 Z"
       inkscape:path-effect="#path-effect745" /><g
       transform="matrix(0.00903158,0.00716287,-0.00953631,0.01026121,14.752022,-4.5820153)"
       id="g1883"><use
         xlink:href="#a"
         width="100%"
         height="100%"
         x="0"
         y="0"
         transform="matrix(-1,0,0,1,378.46,0)"
         id="use1799" /><g
         id="a"
         transform="matrix(2.3815,0,0,2.3815,-261.42,-709.15)"><path
           fill="#c80000"
           stroke-opacity="0"
           d="m 189.33,551.52 -49.169,-5.9032 c -34.178,-50.382 -9.9635,-61.299 49.072,-50.16"
           id="path1801" /><g
           stroke="#000000"
           id="g1805"><path
             fill="#ffd42a"
             stroke="#000000"
             stroke-width="1"
             d="m 140.22,545.85 22.63,2.333 c -22.192,-14.38 -36.331,-29.316 -34.498,-39.548 2.0362,-11.369 15.15,-17.507 30.999,-12.478 10.748,2.6397 20.99,2.9542 29.874,1.8664 v -5.1326 c -9.8165,-0.19742 -20.29,-0.92329 -30.107,-4.1994 -31.754,-8.5386 -59.503,15.732 -18.897,57.159 z"
             id="path1803" /></g><g
           fill="#ffffff"
           stroke="#4c9b53"
           id="g1832"><use
             xlink:href="#b"
             width="100%"
             height="100%"
             x="0"
             y="0"
             fill="#ffffff"
             stroke="#4c9b53"
             transform="translate(5.2535,-37.578)"
             id="use1807" /><use
             xlink:href="#b"
             width="100%"
             height="100%"
             x="0"
             y="0"
             fill="#ffffff"
             stroke="#4c9b53"
             transform="translate(13.648,-40.944)"
             id="use1809" /><use
             xlink:href="#b"
             width="100%"
             height="100%"
             x="0"
             y="0"
             fill="#ffffff"
             stroke="#4c9b53"
             transform="translate(22.747,-41.761)"
             id="use1811" /><use
             xlink:href="#b"
             width="100%"
             height="100%"
             x="0"
             y="0"
             fill="#ffffff"
             stroke="#4c9b53"
             transform="translate(31.612,-40.944)"
             id="use1813" /><use
             xlink:href="#b"
             width="100%"
             height="100%"
             x="0"
             y="0"
             fill="#ffffff"
             stroke="#4c9b53"
             transform="translate(40.128,-38.961)"
             id="use1815" /><use
             xlink:href="#b"
             width="100%"
             height="100%"
             x="0"
             y="0"
             fill="#ffffff"
             stroke="#4c9b53"
             transform="translate(48.526,-37.561)"
             id="use1817" /><use
             xlink:href="#b"
             width="100%"
             height="100%"
             x="0"
             y="0"
             fill="#ffffff"
             stroke="#4c9b53"
             transform="translate(56.925,-36.511)"
             id="use1819" /><use
             xlink:href="#b"
             width="100%"
             height="100%"
             x="0"
             y="0"
             fill="#ffffff"
             stroke="#4c9b53"
             transform="translate(-1.4456,-31.629)"
             id="use1821" /><use
             xlink:href="#b"
             width="100%"
             height="100%"
             x="0"
             y="0"
             fill="#ffffff"
             stroke="#4c9b53"
             transform="translate(-5.6991,-23.909)"
             id="use1823" /><use
             xlink:href="#b"
             width="100%"
             height="100%"
             x="0"
             y="0"
             fill="#ffffff"
             stroke="#4c9b53"
             transform="translate(-6.649,-15.631)"
             id="use1825" /><use
             xlink:href="#b"
             width="100%"
             height="100%"
             x="0"
             y="0"
             transform="translate(-4.1994,-7.8156)"
             id="use1827" /><g
             id="b"><circle
               cx="123.43"
               cy="524.84998"
               r="4.5706"
               fill="#ececec"
               stroke="#000000"
               stroke-linecap="round"
               stroke-linejoin="round"
               stroke-width="1.0222"
               id="circle1829" /></g></g></g><ellipse
         cx="189.23"
         cy="424.32001"
         fill="#0051f6"
         fill-rule="evenodd"
         stroke="#000000"
         stroke-linecap="square"
         stroke-linejoin="bevel"
         stroke-width="2.3815"
         rx="26.587"
         ry="26.024"
         id="ellipse1835" /><path
         fill="#ffd42a"
         stroke="#000000"
         stroke-linecap="round"
         stroke-linejoin="round"
         stroke-width="2.3815"
         d="m 183.42,395.55 h 11.61 v 21.873 h -11.61 z"
         id="path1837" /><path
         fill="#ffd42a"
         fill-rule="evenodd"
         stroke="#000000"
         stroke-width="2.3815"
         d="m 189.2296,448.699 c 0.29,1.674 -16.4,0.309 -17.75,4.031 l -13.11,104.96 30.86,1.48 30.85,-1.48 -13.1,-104.96 c -1.36,-3.722 -18.04,-2.357 -17.75,-4.031 z"
         id="path1839" /><g
         transform="matrix(2.3815,0,0,2.3815,-261.42,-709.15)"
         id="g1846"><g
           id="c"><path
             fill="#ffd42a"
             stroke="#000000"
             stroke-width="1"
             d="m 172.49,533.27 c 2.5917,-11.25 7.2924,-24.936 7.0111,-45.696 -1.1105,-3.7916 0.93423,-3.6026 3.088,-2.3727 1.6926,0.96649 1.6079,1.9145 1.5969,3.5338 -0.18852,17.827 -3.1667,30.685 -7.9103,43.215 z"
             id="path1841" /></g><use
           xlink:href="#c"
           width="100%"
           height="100%"
           x="0"
           y="0"
           transform="matrix(-1,0,0,1,378.46,0)"
           id="use1844" /></g><use
         xlink:href="#b"
         width="100%"
         height="100%"
         x="0"
         y="0"
         fill="#ffffff"
         stroke="#4c9b53"
         transform="matrix(2.3815,0,0,2.3815,-104.73,-794.67)"
         id="use1848" /><use
         xlink:href="#b"
         width="100%"
         height="100%"
         x="0"
         y="0"
         fill="#ffffff"
         stroke="#4c9b53"
         transform="matrix(2.3815,0,0,2.3815,-104.73,-775.06)"
         id="use1850" /><use
         xlink:href="#b"
         width="100%"
         height="100%"
         x="0"
         y="0"
         fill="#ffffff"
         stroke="#4c9b53"
         transform="matrix(2.3815,0,0,2.3815,-104.73,-755.75)"
         id="use1852" /><use
         xlink:href="#b"
         width="100%"
         height="100%"
         x="0"
         y="0"
         fill="#ffffff"
         stroke="#4c9b53"
         transform="matrix(2.3815,0,0,2.3815,-104.73,-736.77)"
         id="use1854" /><g
         id="d"
         transform="matrix(2.3815,0,0,2.3815,-261.42,-709.15)"><path
           fill="#ececec"
           stroke-opacity="0"
           d="m 137.24,579.08 c 17.512,-4.9681 34.881,-6.7255 51.985,-7.7202 0.78405,-19.467 1.6644,-38.819 0,-58.56 -3.0165,1.6868 -6.0391,2.4213 -9.4508,8.1719 -6.8593,4.2144 -10.331,10.287 -10.775,18.021 -1.9442,-23.275 -28.524,-23.838 -26.787,-7.4236 -3.3899,1.2801 -4.8961,4.11 -4.01,8.9083 -10.638,-18.566 -26.75,-12.741 -24.221,1.6497 5.6396,3.2898 9.11,1.5597 13.153,1.1548 3.4731,5.0886 4.3044,10.939 3.5584,16.895 -1.9993,6.3367 -2.4938,11.453 -0.40989,14.759 0.99514,1.8738 1.8116,3.2462 3.1399,5.1163 1.0359,-0.27756 2.1073,-0.48728 3.8169,-0.97227 z"
           id="path1856" /><path
           fill="#000000"
           stroke-opacity="0"
           d="m 113.83,542.13 c 5.837,2.3546 12.093,0.68097 15.158,-3.9592 4.8392,4.3575 8.4948,10.084 11.629,16.414 -3.7914,-4.7986 -7.2387,-11.193 -12.03,-13.362 -1.3652,1.7353 -7.9699,5.1253 -14.757,0.90732 z"
           id="path1858" /><path
           fill="#000000"
           stroke-opacity="0"
           d="m 143.02,542.54 c -0.81611,-3.6437 0.29131,-5.6134 2.2456,-6.8462 4.7493,0.70365 8.3746,-0.46009 10.346,-4.3717 4.1341,1.8106 8.7146,3.0209 10.186,8.4134 0.5105,-2.7209 -1.5682,-6.6569 -6.7369,-7.9185 -3.8733,-2.3209 -3.4912,-4.0165 -2.9674,-5.6914 -0.78273,-0.10814 -1.876,1.0114 -1.4436,2.8045 0.0814,0.68383 -4.2627,-0.88235 -4.0902,-0.74236 0.25183,0.2044 3.208,1.8971 3.208,1.8971 -0.75762,4.5223 -4.3429,4.5854 -8.2607,4.1242 -2.5745,1.7715 -5.132,3.5528 -2.4862,8.3309 z"
           id="path1860" /><path
           fill="#000000"
           stroke-opacity="0"
           d="m 173.01,543.12 c 1.6357,-6.3262 1.0499,-14.023 8.6617,-16.662 3.4834,1.755 5.1629,0.2563 6.6875,0.0308 -3.5539,-0.22802 -6.4375,-0.46019 -8.4519,-3.1652 l 0.96242,2.6395 c -9.2814,3.879 -7.3389,10.756 -7.8597,17.157 z"
           id="path1862" /><path
           fill="#000000"
           stroke-opacity="0"
           d="m 151.26,542.71 c -0.2237,1.5003 -0.55276,2.9887 -0.70571,4.4971 0.004,0.51724 -0.13521,1.0595 -0.0412,1.5609 0.44174,1.0672 0.96957,2.1192 1.3083,3.2164 -0.0359,0.36916 -0.0718,0.73832 -0.10768,1.1075 0.55153,-0.99385 0.88227,-2.0788 1.2476,-3.1496 0.13314,0.72159 0.39219,1.4321 0.44505,2.1608 -0.0734,0.79147 -0.006,1.607 -0.17277,2.3826 -0.12857,0.42974 -0.25713,0.85947 -0.3857,1.2892 0.49439,-0.59246 1.0922,-1.1148 1.372,-1.8528 0.26101,-0.51002 0.52201,-1.02 0.78302,-1.5301 -0.0497,1.3526 -0.13672,2.7017 -0.35506,4.0388 -0.0174,0.28988 -0.22942,1.0537 0.11599,0.4601 0.50672,-0.56781 0.83157,-1.2471 1.1464,-1.9326 0.0867,1.9044 0.13804,3.8094 0.11343,5.7158 -0.22684,0.4666 -0.45369,0.9332 -0.68053,1.3998 0.41841,-0.35881 0.95317,-0.62149 1.2995,-1.0399 0.0849,-0.16538 0.48467,-1.0171 0.33126,-0.66322 -0.26966,0.70854 -0.67152,1.3822 -0.85591,2.1133 -0.0408,0.69819 -0.22227,1.4033 -0.17145,2.097 0.14176,0.51031 0.15443,1.0793 0.37552,1.5535 0.44992,0.55943 0.87191,1.136 1.1373,1.8086 0.18673,0.4253 0.33544,0.71846 0.21471,0.0748 -0.10315,-0.89628 -0.23311,-1.7919 -0.11113,-2.6935 0.0287,-0.42382 -0.0259,-0.87689 0.32258,-1.1883 0.21115,-0.2986 0.42231,-0.5972 0.63346,-0.8958 v 1.983 c 0.17132,-0.64535 0.48715,-1.2679 0.56711,-1.9277 0.0502,-0.65274 -0.14754,-1.356 0.20892,-1.9463 0.19501,-0.45842 0.39001,-0.91685 0.58502,-1.3753 0.0378,0.73878 0.0756,1.4776 0.11343,2.2164 0.25154,-0.78059 0.60899,-1.5428 0.79394,-2.335 v -1.3978 c 0.34026,0.50548 0.68053,1.011 1.0208,1.5164 0.0533,-0.68946 0.21009,-1.389 0.19849,-2.0721 -0.14863,-0.42104 -0.69155,-2.1665 0.0746,-1.1031 0.41007,0.45622 1.011,1.2237 0.97987,0.20086 0.0876,-0.64136 0.29946,-1.2838 0.31135,-1.9245 -0.343,-1.6246 -0.66136,-3.2536 -0.88383,-4.8997 0.37807,0.34995 0.75615,0.6999 1.1342,1.0498 -0.8027,-1.3634 -1.0826,-2.9307 -1.7143,-4.3674 -0.30326,-0.76175 -0.56586,-1.5543 -0.77717,-2.3408 0.0365,-0.56353 0.073,-1.127 0.10958,-1.6906 -0.17716,0.75861 -0.42124,1.5145 -0.55708,2.2748 0.21669,1.4081 0.51771,2.8032 0.78392,4.2002 -0.0318,0.91419 0.11326,1.8496 -0.1961,2.7305 -0.0841,0.45292 -0.16988,0.77635 -0.26786,0.13507 -0.42305,-1.515 -0.8259,-3.0533 -0.86995,-4.6338 -0.0112,-0.71004 -0.0809,-0.0137 -0.13513,0.31262 -0.0621,0.69834 -0.3562,1.4037 -0.10703,2.0926 0.21,0.8907 0.40045,1.7842 0.41061,2.7032 0.11752,0.65267 -0.30149,1.2339 -0.45509,1.8504 -0.17694,0.66319 -1.161,0.29923 -0.69572,-0.39075 0.11228,-0.90995 0.0302,-1.8131 -0.16894,-2.7027 -0.0466,0.10847 -0.0741,0.70713 -0.11335,1.0056 -0.0814,0.44952 -0.0165,0.95277 -0.19121,1.368 -0.27817,0.5238 -0.67569,1.0342 -1.1142,0.2293 -0.23864,-1.0833 0.59789,-2.211 0.61473,-3.3596 l -0.68053,-1.8664 c -0.0202,0.97535 0.089,1.9632 -0.18112,2.9144 -0.0575,0.53468 -0.13578,1.1513 -0.85695,0.70445 -0.76989,-0.74496 0.15799,-2.111 0.1307,-3.0949 v -3.7902 l -0.68053,4.7826 c -0.5293,0.54437 -1.0586,1.0887 -1.5879,1.6331 -0.35511,-2.0406 -0.36713,-4.1349 -0.45369,-6.1824 -0.1404,1.0526 -0.32984,2.1218 -0.62687,3.1353 -0.32034,0.54911 -0.64068,1.0982 -0.96102,1.6473 -0.36786,-0.6835 -0.81556,-1.3458 -1.1342,-2.0424 -0.0274,-1.9261 0.0433,-3.8488 0.11342,-5.7732 z"
           id="path1864" /><path
           fill="none"
           stroke="#000000"
           d="m 189.23,512.8 c -0.22724,0 -0.15891,0.0882 -0.23838,0.13141 -2.9376,1.5975 -5.8906,2.4413 -9.2124,8.0405 -6.8593,4.2144 -10.331,10.287 -10.775,18.021 -1.9442,-23.275 -28.524,-23.838 -26.787,-7.4236 -3.3899,1.2801 -4.8961,4.11 -4.01,8.9083 -10.638,-18.566 -26.75,-12.741 -24.221,1.6497 5.6396,3.2898 9.11,1.5597 13.153,1.1548 3.4731,5.0886 4.3044,10.939 3.5584,16.895 -1.9993,6.3367 -2.4938,11.453 -0.40989,14.759 0.99514,1.8738 1.8116,3.2462 3.1399,5.1163 1.0359,-0.27756 2.1073,-0.48728 3.8169,-0.97227 17.352,-4.9225 34.562,-6.693 51.515,-7.6926 0.15681,-0.009 0.28881,-0.0275 0.47037,-0.0275"
           id="path1866" /><path
           fill="#000000"
           stroke-opacity="0"
           d="m 141.29,550.91 c -0.19788,1.5102 -0.28483,3.0387 -0.55611,4.5367 -0.14665,0.4905 -0.15357,1.049 -0.38711,1.4972 -0.71443,0.89584 -1.5105,1.752 -2.1318,2.7062 -0.0698,0.30448 -0.1406,0.9283 -0.2097,1.0307 -0.25468,-1.0909 -0.26491,-2.2096 -0.32546,-3.3225 -0.40027,0.82396 -1.0228,1.5626 -1.1456,2.4931 -0.17553,0.79839 -0.44987,1.5861 -0.3498,2.4143 0.004,0.38042 0.0671,1.0188 -0.17336,0.33113 -0.3016,-0.59534 -0.57939,-1.1985 -0.64447,-1.871 -0.10528,-0.53573 -0.21056,-1.0714 -0.31584,-1.6072 -0.33773,1.3568 -0.61837,2.7244 -0.78335,4.1137 -0.0374,0.55789 -0.12061,0.7022 -0.28798,0.0886 -0.30684,-0.62863 -0.37997,-1.322 -0.5011,-2.002 -0.60413,1.8031 -1.1744,3.6166 -1.6717,5.4524 0.0901,0.51338 0.18022,1.0268 0.27033,1.5401 -0.30379,-0.46683 -0.74757,-0.87305 -0.96348,-1.3779 -0.0395,-0.20153 -0.20227,-1.2099 -0.12699,-0.6604 0.0603,0.73801 0.26492,1.4789 0.23351,2.2151 -0.15435,0.68147 -0.16571,1.4114 -0.41139,2.0619 -0.29361,0.45881 -0.43991,1.0439 -0.83553,1.4153 -0.6054,0.40394 -1.15,0.87487 -1.6036,1.4461 -0.41015,0.53263 -0.30403,0.24229 -0.10025,-0.20374 0.34249,-0.7971 0.67091,-1.5986 0.79835,-2.4625 0.0776,-0.38653 0.25478,-0.77895 0.0207,-1.147 -0.12597,-0.36193 -0.25195,-0.72387 -0.37792,-1.0858 -0.18073,0.63434 -0.36147,1.2687 -0.5422,1.903 0.0189,-0.83458 -0.20563,-1.6988 0.12021,-2.496 0.13359,-0.48314 0.34766,-0.96008 0.19188,-1.4655 -0.061,-0.48984 -0.12198,-0.97969 -0.18297,-1.4695 l -0.71484,2.0941 c -0.0262,-0.82354 -0.16604,-1.6592 -0.12209,-2.4752 0.12694,-0.44552 0.25387,-0.89103 0.38081,-1.3366 -0.46474,0.38668 -0.92949,0.77335 -1.3942,1.16 0.13801,-0.67698 0.17711,-1.393 0.37609,-2.0459 0.35302,-0.46004 1.2388,-1.9299 0.10989,-1.0079 -0.6039,0.43384 -1.1424,0.65187 -0.86691,-0.25031 0.0891,-0.61361 0.057,-1.2629 0.22164,-1.8543 0.77294,-1.4588 1.5229,-2.9288 2.1854,-4.4416 l -1.3755,0.67946 c 1.186,-1.1246 1.9053,-2.607 2.955,-3.8444 0.4516,-0.60201 0.88901,-1.2328 1.2706,-1.875 0.11886,-0.55055 0.23771,-1.1011 0.35656,-1.6516 0.0125,1.0484 -0.17946,2.1125 0.0934,3.1409 0.0699,0.37002 0.21377,0.75122 -0.075,1.067 -0.40897,0.81683 -0.92324,1.5917 -1.0952,2.503 -0.20158,0.61034 -0.35609,1.2282 -0.3222,1.8761 -0.0168,0.58423 -0.0283,0.63967 -0.0332,0.0231 0.016,-0.50028 -0.13394,-1.0387 0.20438,-1.4649 0.48368,-0.84623 0.82212,-1.7554 1.1363,-2.6752 -0.12727,0.77336 -0.13878,1.5836 -0.33776,2.3341 -0.51262,0.95374 -1.0673,1.8887 -1.3712,2.9356 -0.27038,0.60082 -0.0226,1.2775 -0.0484,1.9142 0.064,0.65921 1.0094,0.51855 0.77138,-0.2295 0.14346,-0.92247 0.4849,-1.7805 0.92624,-2.5964 -0.12323,0.78689 -0.32861,1.5798 -0.4004,2.3629 0.18305,0.41078 0.183,1.2598 0.83786,0.71663 0.90247,-0.83909 0.12945,-2.3868 0.51582,-3.5216 0.38779,-0.53143 0.77559,-1.0628 1.1634,-1.5943 -0.25338,0.9541 -0.62819,1.8859 -0.62628,2.8869 -0.27201,0.7143 0.22445,1.1707 0.95517,0.77629 0.42143,-1.1043 0.15778,-2.3735 0.5684,-3.4939 0.28884,-1.0138 0.57767,-2.0275 0.86651,-3.0412 l -0.65461,4.7865 c 0.3591,0.67548 0.7182,1.351 1.0773,2.0264 0.90023,-1.858 1.4827,-3.8632 2.1258,-5.8018 -0.14987,1.053 -0.26721,2.136 -0.25466,3.1942 l 0.47081,1.8547 c 0.53984,-0.55039 1.1536,-1.0565 1.6476,-1.6344 0.55286,-1.8408 1.0105,-3.7048 1.4689,-5.5706 z"
           id="path1868" /></g><use
         xlink:href="#d"
         width="100%"
         height="100%"
         x="0"
         y="0"
         transform="matrix(-1,0,0,1,378.46,0)"
         id="use1871" /><path
         fill="#000000"
         stroke-opacity="0"
         d="m 204.43,579.9 1.6207,9.7232 0.27012,4.4449 -2.1609,5.0005 -1.0804,2.778 0.27011,2.778 -1.3506,-2.778 -1.6207,-4.7227 -1.0805,4.7227 0.27012,5.5561 1.0805,3.6115 -2.431,-2.778 -2.7012,-5.2783 0.27014,5.2783 0.81033,6.1117 -1.8908,-2.5002 -1.3506,-2.778 -0.27014,7.2229 v 6.3895 l 1.6207,3.3337 -2.9713,-2.2224 -1.0805,-2.2224 2.1609,5.0005 0.54025,5.0005 -0.81036,3.8893 -1.8908,2.5002 -1.6207,3.3337 0.54022,-5.0005 -0.27011,-4.4449 -2.1609,-3.0558 v 4.7227 l -1.3506,-4.1671 v -3.8893 l -1.8908,-4.4449 -0.27014,5.2783 -1.8908,-5.2783 v -3.6115 l -2.431,3.6115 -0.54025,-4.7227 c 0,0 1.6207,-5.0005 0.54025,-3.6115 -1.0805,1.389 -2.7012,2.778 -2.7012,2.778 l -1.0805,-5.8339 1.3506,-6.6673 0.81034,-5.2783 -2.7012,2.5002 c 0,0 1.8908,-3.6115 2.161,-5.0005 0.27011,-1.389 2.431,-6.6673 2.431,-6.6673 l 1.3506,-4.1671 -0.27011,-4.1671 1.3506,5.2783 -0.81036,4.7227 -1.0805,5.2783 v 4.7227 l 0.81034,3.3337 1.3506,-5.0005 0.81034,-4.1671 0.27011,-3.8893 0.81036,5.2783 -1.0805,5.0005 -0.27012,3.8893 1.3506,3.8893 c 0,0 1.8908,0.83342 1.6207,-0.2778 -0.27011,-1.1112 -0.27011,-4.7227 -0.27011,-4.7227 l 0.54024,-3.0558 0.54023,5.5561 1.3506,1.9446 c 0,0 2.431,-1.1112 1.6207,-2.778 -0.81033,-1.6668 -1.6207,-6.3895 -1.6207,-6.3895 l 1.6207,-4.4449 v 4.7227 l 0.81034,4.1671 c 0,0 2.431,0 2.431,-1.1112 0,-1.1112 -1.0804,-6.3895 -1.0804,-6.3895 v -9.1676 l 1.6207,11.39 3.7816,3.8893 0.54022,-3.8893 0.27014,-3.6115 c 0,0 0.27011,-8.3342 0.27011,-7.2229 0,1.1112 1.3506,7.2229 1.3506,7.2229 l 2.431,4.1671 2.7012,-4.7227 v -5.8339 l -0.27012,-8.0564 z"
         id="path1873" /><path
         fill="#ffd42a"
         stroke="#000000"
         stroke-width="2.3815"
         d="m 189.23,415.25 c -7.2306,0.10741 -20.665,0.89562 -26.839,2.5118 -6.1324,2.2593 -2.3287,9.6002 0,9.1819 8.7973,-1.052 17.953,-1.5897 26.839,-1.5861 8.8854,-0.002 18.046,0.53413 26.843,1.5861 2.3287,0.41832 6.1324,-6.9226 0,-9.1819 -6.1737,-1.6161 -19.613,-2.4043 -26.843,-2.5118 z"
         id="path1875" /><path
         fill="#ffd42a"
         fill-rule="evenodd"
         stroke="#000000"
         stroke-width="1.9709"
         d="m 178.68,353.98 v 2.8885 l 4.5444,14.112 -15.238,-4.9026 h -2.8885 l 0.0512,10.549 -0.0512,10.549 h 2.8885 l 16.303,-5.2468 -5.6096,17.424 v 2.8885 l 10.549,-5.5119 10.554,5.5119 v -2.8885 l -5.6096,-17.424 16.299,5.2468 h 2.8932 l -0.0558,-10.549 0.0558,-10.549 h -2.8932 l -15.233,4.9026 4.5444,-14.112 V 353.98 l -10.554,0.0512 z"
         id="path1877" /><path
         fill="none"
         stroke="#000000"
         stroke-width="2.3815"
         d="m 188.11,651.62 c 0.7468,-0.0798 1.4936,-0.0936 2.2404,0"
         id="path1879" /><path
         fill="none"
         stroke="#000000"
         stroke-linecap="round"
         stroke-width="0.71446"
         d="m 189.23,511.28 -4.8e-4,1.7711"
         id="path1881" /></g></g></svg>
